<svg xmlns="http://www.w3.org/2000/svg" xmlns:xlink="http://www.w3.org/1999/xlink" width="180" zoomAndPan="magnify" viewBox="0 0 135 74.999997" height="100" preserveAspectRatio="xMidYMid meet" version="1.0"><defs><clipPath id="43c5638d8a"><path d="M 62 26 L 75 26 L 75 46 L 62 46 Z M 62 26 " clip-rule="nonzero"/></clipPath><clipPath id="a087a4e1d9"><path d="M 70.230469 45.082031 L 62.496094 26.953125 L 67.667969 26.953125 L 74.546875 43.253906 L 70.234375 45.082031 Z M 70.230469 45.082031 " clip-rule="nonzero"/></clipPath><clipPath id="2e0c2d08d5"><path d="M 80 26 L 98 26 L 98 46 L 80 46 Z M 80 26 " clip-rule="nonzero"/></clipPath><clipPath id="aa4befc436"><path d="M 97.914062 45.441406 L 93.222656 45.441406 L 93.222656 35.082031 C 93.222656 34.050781 92.800781 33.050781 92.066406 32.316406 C 91.300781 31.554688 90.378906 31.171875 89.300781 31.15625 C 88.269531 31.15625 87.269531 31.578125 86.535156 32.316406 C 85.777344 33.082031 85.390625 34.003906 85.375 35.082031 L 85.375 45.363281 L 80.6875 45.363281 L 80.6875 35.082031 C 80.6875 32.796875 81.59375 30.609375 83.203125 29 C 84.015625 28.191406 84.949219 27.566406 86.007812 27.128906 C 87.066406 26.691406 88.167969 26.472656 89.316406 26.46875 C 91.597656 26.46875 93.785156 27.375 95.394531 28.984375 C 96.203125 29.792969 96.824219 30.722656 97.257812 31.773438 C 97.695312 32.828125 97.914062 33.925781 97.914062 35.066406 Z M 97.914062 45.441406 " clip-rule="nonzero"/></clipPath><radialGradient gradientTransform="matrix(0, -0.814229, 1.185771, 0, 89.35086, 43.395589)" gradientUnits="userSpaceOnUse" r="21.716467" cx="0" id="b1eedaab18" cy="0" fx="0" fy="0"><stop stop-opacity="1" stop-color="rgb(100%, 100%, 100%)" offset="0"/><stop stop-opacity="1" stop-color="rgb(100%, 100%, 100%)" offset="1"/></radialGradient><clipPath id="8d7e237019"><path d="M 65 26 L 82 26 L 82 52.839844 L 65 52.839844 Z M 65 26 " clip-rule="nonzero"/></clipPath><clipPath id="de1864585c"><path d="M 65.214844 53.039062 L 65.214844 48.347656 C 66.808594 48.347656 68.074219 47.785156 69.105469 46.628906 C 69.617188 46.042969 70.007812 45.386719 70.28125 44.660156 L 70.3125 44.582031 L 76.5 26.953125 L 81.46875 26.953125 L 74.75 46.113281 C 74.304688 47.371094 73.652344 48.511719 72.796875 49.539062 C 70.859375 51.835938 68.230469 53.039062 65.214844 53.039062 Z M 65.214844 53.039062 " clip-rule="nonzero"/></clipPath><clipPath id="9257ab7c3f"><path d="M 99 26 L 119 26 L 119 46 L 99 46 Z M 99 26 " clip-rule="nonzero"/></clipPath><clipPath id="1ea57c7b04"><path d="M 106.304688 40.441406 C 107.085938 40.910156 107.976562 41.160156 108.882812 41.160156 C 109.648438 41.160156 110.398438 40.988281 111.085938 40.660156 C 111.777344 40.316406 112.359375 39.84375 112.835938 39.238281 L 116.527344 42.128906 C 115.613281 43.3125 114.480469 44.230469 113.132812 44.878906 C 112.226562 45.320312 111.273438 45.609375 110.277344 45.753906 C 109.277344 45.894531 108.28125 45.882812 107.285156 45.714844 C 106.292969 45.546875 105.347656 45.230469 104.453125 44.769531 C 103.554688 44.304688 102.75 43.71875 102.039062 43.003906 C 101.128906 42.097656 100.429688 41.050781 99.9375 39.863281 C 99.445312 38.679688 99.195312 37.441406 99.195312 36.160156 C 99.195312 33.597656 100.226562 31.125 102.039062 29.3125 C 102.945312 28.40625 103.992188 27.703125 105.179688 27.210938 C 106.363281 26.71875 107.597656 26.472656 108.882812 26.46875 C 109.421875 26.46875 109.953125 26.515625 110.484375 26.605469 C 111.011719 26.695312 111.53125 26.824219 112.039062 27 C 112.546875 27.175781 113.035156 27.390625 113.507812 27.648438 C 113.976562 27.902344 114.425781 28.199219 114.847656 28.527344 C 115.269531 28.859375 115.664062 29.222656 116.027344 29.617188 C 116.390625 30.011719 116.71875 30.433594 117.011719 30.882812 C 117.304688 31.332031 117.558594 31.804688 117.773438 32.296875 C 117.988281 32.789062 118.160156 33.292969 118.292969 33.816406 C 118.480469 34.578125 118.574219 35.363281 118.558594 36.15625 C 118.558594 36.957031 118.464844 37.738281 118.277344 38.503906 L 104.460938 38.503906 C 104.078125 37.769531 103.882812 36.988281 103.882812 36.160156 C 103.867188 36.992188 104.0625 37.773438 104.460938 38.503906 C 104.882812 39.300781 105.523438 39.972656 106.304688 40.441406 Z M 104.460938 33.816406 C 104.894531 32.996094 105.511719 32.351562 106.304688 31.875 C 107.097656 31.398438 107.957031 31.160156 108.882812 31.15625 C 109.808594 31.160156 110.667969 31.398438 111.460938 31.875 C 112.253906 32.355469 112.867188 33 113.304688 33.816406 Z M 104.460938 33.816406 " clip-rule="evenodd"/></clipPath><clipPath id="c6615aa7f0"><path d="M 103 33 L 119 33 L 119 39 L 103 39 Z M 103 33 " clip-rule="nonzero"/></clipPath><clipPath id="b3f8f7423b"><path d="M 118.292969 33.816406 L 104.460938 33.816406 C 104.070312 34.546875 103.878906 35.328125 103.882812 36.15625 C 103.882812 36.972656 104.085938 37.785156 104.460938 38.503906 L 118.277344 38.503906 C 118.464844 37.734375 118.558594 36.949219 118.558594 36.15625 C 118.574219 35.367188 118.484375 34.585938 118.292969 33.816406 Z M 118.292969 33.816406 " clip-rule="nonzero"/></clipPath><clipPath id="2e4a97bb96"><path d="M 118.667969 26.953125 L 130.75 26.953125 L 130.75 31.640625 L 118.667969 31.640625 Z M 118.667969 26.953125 " clip-rule="nonzero"/></clipPath><clipPath id="5cfb64aec7"><path d="M 121 22.089844 L 130.90625 22.089844 L 130.90625 46 L 121 46 Z M 121 22.089844 " clip-rule="nonzero"/></clipPath><clipPath id="a29e5877c4"><path d="M 130.75 45.863281 L 128.15625 45.863281 C 127.320312 45.867188 126.519531 45.707031 125.75 45.386719 C 124.980469 45.066406 124.304688 44.613281 123.71875 44.019531 C 123.128906 43.429688 122.671875 42.753906 122.351562 41.984375 C 122.035156 41.214844 121.871094 40.414062 121.871094 39.582031 L 121.871094 23.515625 L 126.5625 22.089844 L 126.5625 39.582031 C 126.5625 39.792969 126.601562 39.996094 126.683594 40.191406 C 126.765625 40.386719 126.878906 40.558594 127.027344 40.707031 C 127.179688 40.855469 127.351562 40.972656 127.546875 41.054688 C 127.742188 41.132812 127.945312 41.175781 128.15625 41.175781 L 130.75 41.175781 Z M 130.75 45.863281 " clip-rule="nonzero"/></clipPath><clipPath id="fc479ac186"><path d="M 44 26 L 64 26 L 64 46 L 44 46 Z M 44 26 " clip-rule="nonzero"/></clipPath><clipPath id="6bba9b8c80"><path d="M 54.699219 45.894531 C 49.304688 45.894531 44.914062 41.503906 44.914062 36.109375 C 44.914062 30.71875 49.304688 26.3125 54.695312 26.3125 C 55.535156 26.308594 56.363281 26.414062 57.175781 26.625 C 57.988281 26.835938 58.761719 27.144531 59.496094 27.554688 C 60.226562 27.964844 60.894531 28.464844 61.5 29.046875 C 62.101562 29.632812 62.625 30.28125 63.058594 31 L 59.011719 33.46875 C 58.554688 32.714844 57.941406 32.125 57.171875 31.691406 C 56.402344 31.261719 55.578125 31.046875 54.695312 31.046875 C 54.363281 31.046875 54.035156 31.082031 53.710938 31.144531 C 53.386719 31.210938 53.070312 31.308594 52.765625 31.433594 C 52.460938 31.5625 52.167969 31.714844 51.894531 31.902344 C 51.617188 32.085938 51.363281 32.292969 51.128906 32.527344 C 50.894531 32.761719 50.683594 33.015625 50.5 33.292969 C 50.316406 33.570312 50.160156 33.859375 50.035156 34.164062 C 49.90625 34.472656 49.8125 34.785156 49.746094 35.113281 C 49.679688 35.4375 49.648438 35.765625 49.648438 36.097656 C 49.648438 36.425781 49.679688 36.753906 49.746094 37.082031 C 49.8125 37.40625 49.90625 37.722656 50.035156 38.027344 C 50.160156 38.332031 50.316406 38.625 50.5 38.898438 C 50.6875 39.175781 50.894531 39.429688 51.128906 39.664062 C 51.363281 39.898438 51.617188 40.105469 51.894531 40.292969 C 52.167969 40.476562 52.460938 40.632812 52.765625 40.757812 C 53.074219 40.886719 53.386719 40.980469 53.714844 41.046875 C 54.039062 41.109375 54.367188 41.144531 54.699219 41.144531 C 55.605469 41.140625 56.449219 40.914062 57.234375 40.460938 C 58.019531 40.003906 58.636719 39.382812 59.089844 38.597656 L 63.199219 40.941406 C 62.773438 41.691406 62.253906 42.375 61.644531 42.988281 C 61.039062 43.601562 60.359375 44.125 59.613281 44.5625 C 58.867188 44.996094 58.078125 45.328125 57.246094 45.554688 C 56.410156 45.78125 55.5625 45.894531 54.699219 45.894531 Z M 54.699219 45.894531 " clip-rule="nonzero"/></clipPath><clipPath id="5e0d66fce5"><path d="M 4.15625 22.089844 L 40 22.089844 L 40 52.839844 L 4.15625 52.839844 Z M 4.15625 22.089844 " clip-rule="nonzero"/></clipPath><clipPath id="bc38d192e1"><path d="M 4.246094 37.539062 L 14.808594 26.601562 C 15.148438 26.246094 15.507812 25.90625 15.878906 25.589844 C 16.253906 25.269531 16.644531 24.96875 17.050781 24.6875 C 17.453125 24.410156 17.871094 24.152344 18.304688 23.914062 C 18.734375 23.675781 19.175781 23.460938 19.628906 23.265625 C 20.082031 23.074219 20.542969 22.902344 21.011719 22.757812 C 21.480469 22.609375 21.957031 22.488281 22.441406 22.386719 C 22.921875 22.289062 23.410156 22.214844 23.898438 22.164062 C 24.386719 22.117188 24.878906 22.089844 25.371094 22.089844 C 25.863281 22.089844 26.355469 22.117188 26.84375 22.164062 C 27.332031 22.214844 27.820312 22.289062 28.300781 22.386719 C 28.785156 22.488281 29.261719 22.609375 29.730469 22.757812 C 30.199219 22.902344 30.660156 23.074219 31.113281 23.265625 C 31.566406 23.460938 32.007812 23.675781 32.4375 23.914062 C 32.871094 24.152344 33.289062 24.410156 33.691406 24.6875 C 34.097656 24.96875 34.488281 25.269531 34.863281 25.589844 C 35.234375 25.90625 35.59375 26.246094 35.933594 26.601562 C 37.847656 28.628906 39.195312 31.019531 39.835938 33.554688 C 39.410156 32.757812 38.914062 31.960938 38.277344 31.308594 C 34.945312 27.832031 29.554688 27.832031 26.152344 31.308594 L 20.125 37.539062 L 26.152344 43.769531 C 29.484375 47.246094 34.871094 47.246094 38.277344 43.769531 C 38.914062 43.117188 39.480469 42.320312 39.835938 41.523438 C 39.195312 44.058594 37.921875 46.523438 35.933594 48.476562 C 30.121094 54.558594 20.621094 54.558594 14.808594 48.476562 Z M 4.246094 37.539062 " clip-rule="nonzero"/></clipPath><clipPath id="de162c0631"><path d="M 29 32 L 40 32 L 40 43 L 29 43 Z M 29 32 " clip-rule="nonzero"/></clipPath><clipPath id="877dadb0b3"><path d="M 39.835938 37.539062 C 39.835938 34.566406 37.566406 32.175781 34.660156 32.175781 C 31.824219 32.175781 29.484375 34.566406 29.484375 37.539062 C 29.484375 40.507812 31.753906 42.898438 34.660156 42.898438 C 37.496094 42.824219 39.835938 40.4375 39.835938 37.539062 Z M 39.835938 37.539062 " clip-rule="nonzero"/></clipPath></defs><g clip-path="url(#43c5638d8a)"><g clip-path="url(#a087a4e1d9)"><path fill="#ffffff" d="M 62.496094 26.953125 L 62.496094 45.082031 L 74.546875 45.082031 L 74.546875 26.953125 Z M 62.496094 26.953125 " fill-opacity="1" fill-rule="nonzero"/></g></g><g clip-path="url(#2e0c2d08d5)"><g clip-path="url(#aa4befc436)"><path fill="url(#b1eedaab18)" d="M 80.6875 45.441406 L 97.914062 45.441406 L 97.914062 26.46875 L 80.6875 26.46875 Z M 80.6875 45.441406 " fill-rule="nonzero"/></g></g><g clip-path="url(#8d7e237019)"><g clip-path="url(#de1864585c)"><path fill="#ffffff" d="M 65.214844 26.953125 L 65.214844 52.839844 L 81.46875 52.839844 L 81.46875 26.953125 Z M 65.214844 26.953125 " fill-opacity="1" fill-rule="nonzero"/></g></g><g clip-path="url(#9257ab7c3f)"><g clip-path="url(#1ea57c7b04)"><path fill="#ffffff" d="M 99.195312 26.46875 L 99.195312 45.894531 L 118.574219 45.894531 L 118.574219 26.46875 Z M 99.195312 26.46875 " fill-opacity="1" fill-rule="nonzero"/></g></g><g clip-path="url(#c6615aa7f0)"><g clip-path="url(#b3f8f7423b)"><path fill="#ffffff" d="M 103.878906 33.816406 L 103.878906 38.503906 L 118.574219 38.503906 L 118.574219 33.816406 Z M 103.878906 33.816406 " fill-opacity="1" fill-rule="nonzero"/></g></g><g clip-path="url(#2e4a97bb96)"><path fill="#ffffff" d="M 118.667969 26.953125 L 118.667969 31.640625 L 130.75 31.640625 L 130.75 26.953125 Z M 118.667969 26.953125 " fill-opacity="1" fill-rule="nonzero"/></g><g clip-path="url(#5cfb64aec7)"><g clip-path="url(#a29e5877c4)"><path fill="#ffffff" d="M 121.871094 22.089844 L 121.871094 45.867188 L 130.75 45.867188 L 130.75 22.089844 Z M 121.871094 22.089844 " fill-opacity="1" fill-rule="nonzero"/></g></g><g clip-path="url(#fc479ac186)"><g clip-path="url(#6bba9b8c80)"><path fill="#ffffff" d="M 44.914062 26.308594 L 44.914062 45.894531 L 63.199219 45.894531 L 63.199219 26.308594 Z M 44.914062 26.308594 " fill-opacity="1" fill-rule="nonzero"/></g></g><g clip-path="url(#5e0d66fce5)"><g clip-path="url(#bc38d192e1)"><path fill="#ffffff" d="M 4.246094 22.089844 L 4.246094 52.839844 L 39.835938 52.839844 L 39.835938 22.089844 Z M 4.246094 22.089844 " fill-opacity="1" fill-rule="nonzero"/></g></g><g clip-path="url(#de162c0631)"><g clip-path="url(#877dadb0b3)"><path fill="#ffffff" d="M 29.484375 32.175781 L 29.484375 42.898438 L 39.835938 42.898438 L 39.835938 32.175781 Z M 29.484375 32.175781 " fill-opacity="1" fill-rule="nonzero"/></g></g></svg>