<svg xmlns="http://www.w3.org/2000/svg" xmlns:xlink="http://www.w3.org/1999/xlink" width="180" zoomAndPan="magnify" viewBox="0 0 135 74.999997" height="100" preserveAspectRatio="xMidYMid meet" version="1.0"><defs><clipPath id="94e128051c"><path d="M 40 32 L 133.734375 32 L 133.734375 43 L 40 43 Z M 40 32 " clip-rule="nonzero"/></clipPath><clipPath id="d3c7422b9d"><path d="M 17 25.105469 L 34 25.105469 L 34 49.855469 L 17 49.855469 Z M 17 25.105469 " clip-rule="nonzero"/></clipPath></defs><g clip-path="url(#94e128051c)"><path fill="#ffffff" d="M 40.949219 42.441406 L 40.949219 32.703125 L 49.945312 32.703125 L 49.945312 34.8125 L 43.074219 34.8125 L 43.074219 36.515625 L 48.605469 36.515625 L 48.605469 38.625 L 43.074219 38.625 L 43.074219 42.441406 Z M 53.753906 42.441406 C 53.203125 42.441406 52.730469 42.246094 52.332031 41.859375 C 51.945312 41.460938 51.753906 40.988281 51.753906 40.4375 L 51.753906 34.703125 C 51.753906 34.152344 51.945312 33.683594 52.332031 33.296875 C 52.730469 32.898438 53.203125 32.703125 53.753906 32.703125 L 59.488281 32.703125 C 60.03125 32.703125 60.5 32.898438 60.894531 33.296875 C 61.292969 33.683594 61.492188 34.152344 61.492188 34.703125 L 61.492188 40.4375 C 61.492188 40.988281 61.292969 41.460938 60.894531 41.859375 C 60.5 42.246094 60.03125 42.441406 59.488281 42.441406 Z M 54.296875 40.332031 L 59.367188 40.332031 L 59.367188 34.8125 L 53.847656 34.8125 L 53.847656 40.332031 Z M 64.050781 42.441406 L 64.050781 32.714844 L 71.773438 32.714844 C 72.324219 32.714844 72.796875 32.914062 73.195312 33.308594 C 73.589844 33.707031 73.789062 34.175781 73.789062 34.71875 L 73.789062 37.234375 C 73.789062 37.773438 73.589844 38.242188 73.195312 38.640625 C 72.796875 39.035156 72.324219 39.234375 71.773438 39.234375 L 71.679688 39.234375 L 73.789062 41.722656 L 73.789062 42.441406 L 71.625 42.441406 L 68.933594 39.234375 L 66.144531 39.25 L 66.144531 42.441406 Z M 66.59375 37.125 L 71.664062 37.125 L 71.664062 34.8125 L 66.144531 34.8125 L 66.144531 37.125 Z M 79.636719 42.441406 L 79.636719 34.8125 L 75.820312 34.8125 L 75.820312 32.703125 L 85.558594 32.703125 L 85.558594 34.8125 L 81.746094 34.8125 L 81.746094 42.441406 Z M 87.640625 42.441406 L 87.640625 32.714844 L 95.363281 32.714844 C 95.914062 32.714844 96.386719 32.914062 96.785156 33.308594 C 97.179688 33.707031 97.378906 34.175781 97.378906 34.71875 L 97.378906 37.234375 C 97.378906 37.773438 97.179688 38.242188 96.785156 38.640625 C 96.386719 39.035156 95.914062 39.234375 95.363281 39.234375 L 95.269531 39.234375 L 97.378906 41.722656 L 97.378906 42.441406 L 95.214844 42.441406 L 92.523438 39.234375 L 89.738281 39.25 L 89.738281 42.441406 Z M 90.183594 37.125 L 95.253906 37.125 L 95.253906 34.8125 L 89.738281 34.8125 L 89.738281 37.125 Z M 99.925781 42.441406 L 99.925781 32.703125 L 108.921875 32.703125 L 108.921875 34.8125 L 102.050781 34.8125 L 102.050781 36.515625 L 107.582031 36.515625 L 107.582031 38.625 L 102.046875 38.625 L 102.046875 40.332031 L 108.921875 40.332031 L 108.921875 42.441406 Z M 113.3125 42.441406 C 112.761719 42.441406 112.289062 42.246094 111.890625 41.859375 C 111.503906 41.460938 111.308594 40.988281 111.308594 40.4375 L 111.308594 39.53125 L 113.40625 39.53125 L 113.40625 40.332031 L 118.925781 40.332031 L 118.925781 38.625 L 113.3125 38.625 C 112.761719 38.625 112.289062 38.433594 111.890625 38.042969 C 111.503906 37.648438 111.308594 37.175781 111.308594 36.625 L 111.308594 34.703125 C 111.308594 34.152344 111.503906 33.683594 111.890625 33.296875 C 112.289062 32.898438 112.761719 32.703125 113.3125 32.703125 L 119.046875 32.703125 C 119.585938 32.703125 120.058594 32.898438 120.453125 33.296875 C 120.851562 33.683594 121.050781 34.152344 121.050781 34.703125 L 121.050781 35.609375 L 118.925781 35.609375 L 118.925781 34.8125 L 113.40625 34.8125 L 113.40625 36.515625 L 119.046875 36.515625 C 119.585938 36.515625 120.058594 36.714844 120.453125 37.109375 C 120.851562 37.5 121.050781 37.96875 121.050781 38.519531 L 121.050781 40.4375 C 121.050781 40.988281 120.851562 41.460938 120.453125 41.859375 C 120.058594 42.246094 119.585938 42.441406 119.046875 42.441406 Z M 125.59375 42.441406 C 125.046875 42.441406 124.570312 42.246094 124.175781 41.859375 C 123.789062 41.460938 123.59375 40.988281 123.59375 40.4375 L 123.59375 39.53125 L 125.691406 39.53125 L 125.691406 40.332031 L 131.210938 40.332031 L 131.210938 38.625 L 125.59375 38.625 C 125.046875 38.625 124.570312 38.433594 124.175781 38.042969 C 123.789062 37.648438 123.59375 37.175781 123.59375 36.625 L 123.59375 34.703125 C 123.59375 34.152344 123.789062 33.683594 124.175781 33.296875 C 124.570312 32.898438 125.046875 32.703125 125.59375 32.703125 L 131.332031 32.703125 C 131.871094 32.703125 132.339844 32.898438 132.738281 33.296875 C 133.132812 33.683594 133.332031 34.152344 133.332031 34.703125 L 133.332031 35.609375 L 131.210938 35.609375 L 131.210938 34.8125 L 125.691406 34.8125 L 125.691406 36.515625 L 131.332031 36.515625 C 131.871094 36.515625 132.339844 36.714844 132.738281 37.109375 C 133.132812 37.5 133.332031 37.96875 133.332031 38.519531 L 133.332031 40.4375 C 133.332031 40.988281 133.132812 41.460938 132.738281 41.859375 C 132.339844 42.246094 131.871094 42.441406 131.332031 42.441406 Z M 125.59375 42.441406 " fill-opacity="1" fill-rule="nonzero"/></g><g clip-path="url(#d3c7422b9d)"><path fill="#ffffff" d="M 17.714844 25.105469 L 21.773438 27.132812 L 21.773438 43.535156 L 25.832031 42.351562 L 25.832031 29.164062 L 29.890625 31.191406 L 29.890625 41.167969 L 33.945312 39.984375 L 33.945312 43.367188 L 17.714844 49.453125 Z M 17.714844 25.105469 " fill-opacity="1" fill-rule="nonzero"/></g><path fill="#ffffff" d="M 13.65625 27.132812 L 9.597656 29.164062 L 9.597656 42.6875 L 13.65625 44.042969 Z M 1.484375 39.984375 L 1.484375 33.222656 L 5.539062 31.191406 L 5.539062 41.167969 Z M 1.484375 39.984375 " fill-opacity="1" fill-rule="nonzero"/></svg>