<svg xmlns="http://www.w3.org/2000/svg" xmlns:xlink="http://www.w3.org/1999/xlink" width="180" zoomAndPan="magnify" viewBox="0 0 135 74.999997" height="100" preserveAspectRatio="xMidYMid meet" version="1.0"><defs><clipPath id="647cbac621"><path d="M 40 32 L 133.734375 32 L 133.734375 43 L 40 43 Z M 40 32 " clip-rule="nonzero"/></clipPath><clipPath id="7078c00f5e"><path d="M 17 25.285156 L 34 25.285156 L 34 50 L 17 50 Z M 17 25.285156 " clip-rule="nonzero"/></clipPath></defs><g clip-path="url(#647cbac621)"><path fill="#363636" d="M 40.863281 42.855469 L 40.863281 32.984375 L 49.839844 32.984375 L 49.839844 35.121094 L 42.984375 35.121094 L 42.984375 36.847656 L 48.503906 36.847656 L 48.503906 38.988281 L 42.984375 38.988281 L 42.984375 42.855469 Z M 53.640625 42.855469 C 53.09375 42.855469 52.621094 42.65625 52.226562 42.265625 C 51.839844 41.863281 51.644531 41.382812 51.644531 40.824219 L 51.644531 35.011719 C 51.644531 34.457031 51.839844 33.980469 52.226562 33.585938 C 52.621094 33.183594 53.09375 32.984375 53.640625 32.984375 L 59.367188 32.984375 C 59.90625 32.984375 60.375 33.183594 60.769531 33.585938 C 61.164062 33.980469 61.363281 34.457031 61.363281 35.011719 L 61.363281 40.824219 C 61.363281 41.382812 61.164062 41.863281 60.769531 42.265625 C 60.375 42.65625 59.90625 42.855469 59.367188 42.855469 Z M 54.183594 40.714844 L 59.242188 40.714844 L 59.242188 35.121094 L 53.738281 35.121094 L 53.738281 40.714844 Z M 63.914062 42.855469 L 63.914062 32.996094 L 71.625 32.996094 C 72.171875 32.996094 72.644531 33.199219 73.042969 33.601562 C 73.4375 34.003906 73.636719 34.476562 73.636719 35.027344 L 73.636719 37.578125 C 73.636719 38.125 73.4375 38.601562 73.042969 39 C 72.644531 39.402344 72.171875 39.605469 71.625 39.605469 L 71.53125 39.605469 L 73.636719 42.128906 L 73.636719 42.855469 L 71.472656 42.855469 L 68.789062 39.605469 L 66.007812 39.617188 L 66.007812 42.855469 Z M 66.453125 37.464844 L 71.515625 37.464844 L 71.515625 35.121094 L 66.007812 35.121094 L 66.007812 37.464844 Z M 79.46875 42.855469 L 79.46875 35.121094 L 75.664062 35.121094 L 75.664062 32.984375 L 85.378906 32.984375 L 85.378906 35.121094 L 81.574219 35.121094 L 81.574219 42.855469 Z M 87.457031 42.855469 L 87.457031 32.996094 L 95.164062 32.996094 C 95.714844 32.996094 96.183594 33.199219 96.582031 33.601562 C 96.976562 34.003906 97.175781 34.476562 97.175781 35.027344 L 97.175781 37.578125 C 97.175781 38.125 96.976562 38.601562 96.582031 39 C 96.183594 39.402344 95.714844 39.605469 95.164062 39.605469 L 95.070312 39.605469 L 97.175781 42.128906 L 97.175781 42.855469 L 95.015625 42.855469 L 92.328125 39.605469 L 89.550781 39.617188 L 89.550781 42.855469 Z M 89.996094 37.464844 L 95.054688 37.464844 L 95.054688 35.121094 L 89.550781 35.121094 L 89.550781 37.464844 Z M 99.714844 42.855469 L 99.714844 32.984375 L 108.691406 32.984375 L 108.691406 35.121094 L 101.835938 35.121094 L 101.835938 36.847656 L 107.355469 36.847656 L 107.355469 38.988281 L 101.835938 38.988281 L 101.835938 40.714844 L 108.691406 40.714844 L 108.691406 42.855469 Z M 113.074219 42.855469 C 112.527344 42.855469 112.054688 42.65625 111.65625 42.265625 C 111.269531 41.863281 111.074219 41.382812 111.074219 40.824219 L 111.074219 39.90625 L 113.167969 39.90625 L 113.167969 40.714844 L 118.675781 40.714844 L 118.675781 38.988281 L 113.074219 38.988281 C 112.527344 38.988281 112.050781 38.792969 111.65625 38.398438 C 111.269531 37.996094 111.074219 37.515625 111.074219 36.960938 L 111.074219 35.011719 C 111.074219 34.457031 111.269531 33.980469 111.65625 33.585938 C 112.050781 33.183594 112.523438 32.984375 113.074219 32.984375 L 118.796875 32.984375 C 119.335938 32.984375 119.804688 33.183594 120.203125 33.585938 C 120.597656 33.980469 120.796875 34.457031 120.796875 35.011719 L 120.796875 35.929688 L 118.675781 35.929688 L 118.675781 35.121094 L 113.167969 35.121094 L 113.167969 36.847656 L 118.796875 36.847656 C 119.335938 36.847656 119.804688 37.050781 120.203125 37.453125 C 120.597656 37.84375 120.796875 38.320312 120.796875 38.878906 L 120.796875 40.824219 C 120.796875 41.382812 120.597656 41.863281 120.203125 42.265625 C 119.804688 42.65625 119.335938 42.855469 118.796875 42.855469 Z M 125.332031 42.855469 C 124.78125 42.855469 124.3125 42.65625 123.914062 42.265625 C 123.527344 41.863281 123.335938 41.382812 123.335938 40.824219 L 123.335938 39.90625 L 125.425781 39.90625 L 125.425781 40.714844 L 130.933594 40.714844 L 130.933594 38.988281 L 125.332031 38.988281 C 124.78125 38.988281 124.3125 38.792969 123.914062 38.398438 C 123.527344 37.996094 123.335938 37.515625 123.335938 36.960938 L 123.335938 35.011719 C 123.335938 34.457031 123.527344 33.980469 123.914062 33.585938 C 124.3125 33.183594 124.78125 32.984375 125.332031 32.984375 L 131.054688 32.984375 C 131.597656 32.984375 132.0625 33.183594 132.457031 33.585938 C 132.855469 33.980469 133.054688 34.457031 133.054688 35.011719 L 133.054688 35.929688 L 130.933594 35.929688 L 130.933594 35.121094 L 125.425781 35.121094 L 125.425781 36.847656 L 131.054688 36.847656 C 131.597656 36.847656 132.0625 37.050781 132.457031 37.453125 C 132.855469 37.84375 133.054688 38.320312 133.054688 38.878906 L 133.054688 40.824219 C 133.054688 41.382812 132.855469 41.863281 132.457031 42.265625 C 132.0625 42.65625 131.59375 42.855469 131.054688 42.855469 Z M 125.332031 42.855469 " fill-opacity="1" fill-rule="nonzero"/></g><g clip-path="url(#7078c00f5e)"><path fill="#0063f7" d="M 17.679688 25.285156 L 21.730469 27.339844 L 21.730469 43.960938 L 25.777344 42.761719 L 25.777344 29.398438 L 29.828125 31.453125 L 29.828125 41.5625 L 33.878906 40.363281 L 33.878906 43.792969 L 17.679688 49.960938 Z M 17.679688 25.285156 " fill-opacity="1" fill-rule="nonzero"/></g><path fill="#363636" d="M 13.628906 27.339844 L 9.582031 29.398438 L 9.582031 43.105469 L 13.628906 44.476562 Z M 1.480469 40.363281 L 1.480469 33.511719 L 5.53125 31.453125 L 5.53125 41.5625 Z M 1.480469 40.363281 " fill-opacity="1" fill-rule="nonzero"/></svg>