<svg width="401" height="139" viewBox="0 0 401 139" fill="none" xmlns="http://www.w3.org/2000/svg">
<path d="M182.47 59.2376H191.983L179.254 92.6355H169.406L156.677 59.2376H166.19L174.296 82.6162L182.47 59.2376Z" fill="white"/>
<path d="M200.438 55.2298C199.009 55.2298 197.758 54.7177 196.686 53.6935C195.659 52.6248 195.145 51.3779 195.145 49.953C195.145 48.528 195.659 47.2811 196.686 46.2124C197.758 45.1437 199.009 44.6093 200.438 44.6093C201.912 44.6093 203.162 45.1437 204.19 46.2124C205.262 47.2811 205.798 48.528 205.798 49.953C205.798 51.3779 205.262 52.6248 204.19 53.6935C203.162 54.7177 201.912 55.2298 200.438 55.2298ZM196.15 92.6355V59.2376H204.793V92.6355L196.15 92.6355Z" fill="white"/>
<path d="M228.648 93.5707C223.601 93.5707 219.38 91.8785 215.985 88.4942C212.636 85.1099 210.961 80.924 210.961 75.9366C210.961 70.9491 212.636 66.7633 215.985 63.3789C219.38 59.9946 223.601 58.3024 228.648 58.3024C231.908 58.3024 234.878 59.0817 237.558 60.6403C240.238 62.1989 242.27 64.2918 243.654 66.9191L236.218 71.2609C235.548 69.8804 234.521 68.7894 233.136 67.9879C231.796 67.1863 230.278 66.7855 228.581 66.7855C225.99 66.7855 223.846 67.6539 222.149 69.3906C220.452 71.0827 219.603 73.2647 219.603 75.9366C219.603 78.5639 220.452 80.7459 222.149 82.4826C223.846 84.1747 225.99 85.0208 228.581 85.0208C230.322 85.0208 231.863 84.6423 233.203 83.8853C234.588 83.0837 235.615 81.9927 236.285 80.6123L243.788 84.8872C242.315 87.5145 240.238 89.6297 237.558 91.2328C234.878 92.7914 231.908 93.5707 228.648 93.5707Z" fill="white"/>
<path d="M273.294 59.2376H281.936V92.6355H273.294V88.6946C270.704 91.9453 267.063 93.5707 262.374 93.5707C257.907 93.5707 254.066 91.8785 250.851 88.4942C247.68 85.0653 246.094 80.8795 246.094 75.9366C246.094 70.9937 247.68 66.8301 250.851 63.4457C254.066 60.0169 257.907 58.3024 262.374 58.3024C267.063 58.3024 270.704 59.9278 273.294 63.1785V59.2376ZM257.349 82.7498C259.091 84.4864 261.302 85.3548 263.982 85.3548C266.661 85.3548 268.872 84.4864 270.614 82.7498C272.401 80.9685 273.294 78.6975 273.294 75.9366C273.294 73.1757 272.401 70.9269 270.614 69.1902C268.872 67.409 266.661 66.5183 263.982 66.5183C261.302 66.5183 259.091 67.409 257.349 69.1902C255.607 70.9269 254.736 73.1757 254.736 75.9366C254.736 78.6975 255.607 80.9685 257.349 82.7498Z" fill="white"/>
<path d="M298.416 64.982C299.22 62.8446 300.537 61.2415 302.368 60.1727C304.244 59.104 306.321 58.5696 308.599 58.5696V68.1882C305.964 67.8765 303.597 68.4109 301.497 69.7913C299.443 71.1718 298.416 73.4651 298.416 76.6713V92.6355H289.773V59.2376H298.416V64.982Z" fill="white"/>
<path d="M317.941 55.2298C316.512 55.2298 315.261 54.7177 314.189 53.6935C313.162 52.6248 312.648 51.3779 312.648 49.953C312.648 48.528 313.162 47.2811 314.189 46.2124C315.261 45.1437 316.512 44.6093 317.941 44.6093C319.415 44.6093 320.665 45.1437 321.693 46.2124C322.765 47.2811 323.301 48.528 323.301 49.953C323.301 51.3779 322.765 52.6248 321.693 53.6935C320.665 54.7177 319.415 55.2298 317.941 55.2298ZM313.653 92.6355V59.2376H322.296V92.6355H313.653Z" fill="white"/>
<path d="M352.314 59.2376H360.957V92.6355H352.314V88.895C350.215 92.0121 346.888 93.5707 342.332 93.5707C338.669 93.5707 335.632 92.3461 333.221 89.8969C330.853 87.4477 329.67 84.0634 329.67 79.7439V59.2376H338.312V78.6752C338.312 80.9017 338.915 82.6162 340.121 83.8185C341.327 84.9763 342.935 85.5552 344.945 85.5552C347.178 85.5552 348.964 84.865 350.304 83.4845C351.644 82.1041 352.314 80.0334 352.314 77.2725V59.2376Z" fill="white"/>
<path d="M376.583 68.7226C376.583 69.6132 377.163 70.348 378.324 70.9269C379.53 71.4612 380.982 71.9511 382.679 72.3964C384.376 72.7972 386.074 73.3315 387.771 73.9995C389.468 74.6229 390.897 75.6917 392.058 77.2057C393.264 78.7197 393.867 80.6123 393.867 82.8833C393.867 86.3122 392.572 88.9618 389.982 90.8321C387.436 92.6578 384.242 93.5707 380.401 93.5707C373.523 93.5707 368.834 90.9211 366.332 85.622L373.836 81.4138C374.818 84.3083 377.007 85.7556 380.401 85.7556C383.483 85.7556 385.024 84.7982 385.024 82.8833C385.024 81.9927 384.421 81.2802 383.215 80.7459C382.054 80.167 380.625 79.6549 378.927 79.2096C377.23 78.7643 375.533 78.2076 373.836 77.5397C372.139 76.8717 370.687 75.8252 369.481 74.4003C368.32 72.9307 367.739 71.105 367.739 68.923C367.739 65.6277 368.945 63.045 371.357 61.1747C373.813 59.2599 376.851 58.3024 380.468 58.3024C383.193 58.3024 385.672 58.9259 387.905 60.1727C390.138 61.3751 391.902 63.1118 393.197 65.3828L385.828 69.3906C384.756 67.1195 382.969 65.984 380.468 65.984C379.352 65.984 378.414 66.2289 377.655 66.7187C376.94 67.2086 376.583 67.8765 376.583 68.7226Z" fill="white"/>
<path d="M90.5024 81.9498C89.4515 78.7992 87.6123 76.4362 83.6713 74.0732C86.2987 73.2856 88.1378 72.7604 89.1887 72.2353C88.4005 70.1349 87.6123 69.0847 85.7732 67.7719C90.5024 58.5826 96.2825 54.3817 95.7571 50.706C92.867 52.2813 89.9769 57.7949 84.7223 60.1579C85.7732 51.2311 89.7142 45.98 89.7142 42.8294C89.7142 41.2541 87.8751 38.1034 86.2987 36.003C77.6284 48.8681 72.3738 64.3587 72.3738 81.1621C72.3738 92.1894 74.7384 102.954 78.6794 112.669C81.3067 114.506 83.4086 116.082 85.5105 119.232C85.2477 112.143 88.1378 109.518 85.7732 95.34C86.8241 95.8651 87.8751 96.6528 88.926 96.6528C89.1887 92.7145 88.926 87.726 86.2987 80.3745C87.6123 80.3745 88.4005 80.8996 90.5024 81.9498Z" fill="url(#paint0_linear)"/>
<path d="M29.2146 95.6373C24.1776 97.399 20.148 99.9158 16.8739 103.188C10.3258 93.3722 6.29625 81.2917 6.29625 68.7078C6.29625 34.2281 34.2516 6.29192 68.755 6.29192C103.258 6.29192 131.214 34.2281 131.214 68.7078C131.214 96.8956 112.325 120.805 86.6364 128.607V123.07C87.1401 123.07 87.8956 123.573 88.903 124.832C90.1623 117.281 90.4141 109.479 89.4068 101.426C91.6734 102.433 93.4364 104.194 94.9474 106.208C95.4511 100.167 94.1919 93.6238 90.9178 87.0802C92.9326 87.8353 94.4437 89.3453 95.703 91.6104C96.2067 86.0735 95.4511 81.2917 90.9178 76.7615C92.4289 77.0132 93.4363 78.0199 95.703 80.0333C94.4437 73.4897 90.4142 72.2313 90.4142 67.7011C90.4142 60.6541 104.014 55.3689 96.9622 46.8119C94.6956 49.3287 92.4289 51.5938 89.9105 53.3555C90.9178 49.3287 93.1845 44.5468 93.1845 42.2817C93.1845 39.765 86.6364 31.2079 85.629 29.9496C85.3772 29.6979 84.1179 29.4462 83.1105 29.6979C80.0883 29.9496 81.0957 31.963 79.8364 33.2214C78.0735 35.4865 75.555 38.2549 73.792 41.0233C72.5328 42.5334 71.7772 44.7985 70.518 45.0502C51.6292 48.0703 49.8663 65.1843 31.7331 63.4226C32.4887 68.9595 37.0219 72.483 42.8145 74.9997C40.0442 82.55 33.496 89.0937 24.9331 95.1339C26.4442 95.1339 27.7035 95.3856 29.2146 95.6373ZM0 68.7078C0 106.711 30.7257 137.416 68.755 137.416C106.784 137.416 137.51 106.711 137.51 68.7078C137.51 30.7046 106.784 0 68.755 0C30.7257 0 0 30.7046 0 68.7078ZM65.7328 66.6944C63.4662 66.9461 62.9625 67.1978 60.6958 67.9528C60.9477 62.4159 67.9995 55.3689 74.7995 47.567C78.0735 43.7918 82.3549 35.7381 83.8661 35.7381C84.8735 35.7381 89.1549 41.7784 89.1549 44.0435C89.1549 47.0636 85.3772 52.0971 84.3698 60.6542C89.4067 58.3891 91.9253 53.1038 94.9474 51.5938C95.703 55.3689 89.9104 59.3958 85.3772 68.2045C87.1401 69.7145 87.8957 70.7212 88.6512 72.483C87.6438 72.9863 85.8808 73.4897 83.3623 74.2447C87.3919 76.5098 89.1549 79.0266 89.9105 81.795C88.1475 80.7883 87.1401 80.5366 85.629 80.285C88.1475 87.0802 88.3994 92.1138 88.1475 95.8889C87.1401 95.8889 85.8809 95.3856 85.1253 94.6305C87.3919 108.221 84.6216 110.738 84.8735 117.533C82.8587 114.513 80.8438 112.751 78.3253 111.241C76.5624 118.037 73.7921 121.057 72.0291 122.818C73.5402 113.255 73.2884 104.698 69.2588 96.1406C67.9995 97.399 67.7477 98.909 66.9921 100.671C61.9551 97.1473 59.9403 91.8621 62.9625 82.2984C60.6959 84.0601 59.9403 85.5702 58.681 87.0802C57.1699 75.5031 60.6959 71.2246 65.7328 66.6944Z" fill="white"/>
<defs>
<linearGradient id="paint0_linear" x1="80.6006" y1="120.598" x2="91.7503" y2="37.7708" gradientUnits="userSpaceOnUse">
<stop stop-color="#4C4EF0"/>
<stop offset="1" stop-color="white" stop-opacity="0"/>
</linearGradient>
</defs>
</svg>
