<svg width="1460" height="500" viewBox="0 0 1460 500" fill="none" xmlns="http://www.w3.org/2000/svg">
<path d="M662.326 212.273L698.223 212.273L650.192 338.467H613.031L565 212.273H600.897L631.485 300.608L662.326 212.273Z" fill="#10121F"/>
<path d="M730.126 197.13C724.733 197.13 720.015 195.195 715.97 191.325C712.094 187.286 710.156 182.575 710.156 177.191C710.156 171.807 712.094 167.096 715.97 163.057C720.015 159.019 724.733 157 730.126 157C735.688 157 740.407 159.019 744.283 163.057C748.328 167.096 750.35 171.807 750.35 177.191C750.35 182.575 748.328 187.286 744.283 191.325C740.407 195.195 735.688 197.13 730.126 197.13ZM713.947 338.467V212.273H746.558V338.467H713.947Z" fill="#10121F"/>
<path d="M836.571 342C817.527 342 801.601 335.606 788.792 322.819C776.153 310.031 769.833 294.215 769.833 275.37C769.833 256.525 776.153 240.709 788.792 227.921C801.601 215.133 817.527 208.739 836.571 208.739C848.873 208.739 860.081 211.684 870.192 217.573C880.304 223.462 887.972 231.37 893.197 241.297L865.136 257.703C862.609 252.487 858.732 248.364 853.508 245.336C848.452 242.307 842.722 240.793 836.318 240.793C826.543 240.793 818.454 244.074 812.05 250.636C805.645 257.03 802.443 265.274 802.443 275.37C802.443 285.297 805.645 293.542 812.05 300.104C818.454 306.497 826.543 309.694 836.318 309.694C842.891 309.694 848.705 308.264 853.761 305.404C858.985 302.375 862.861 298.253 865.389 293.037L893.702 309.19C888.141 319.117 880.304 327.109 870.192 333.166C860.081 339.055 848.873 342 836.571 342Z" fill="#10121F"/>
<path d="M1005.04 212.273L1037.65 212.273V338.467L1005.04 338.467V323.576C995.262 335.859 981.527 342 963.831 342C946.978 342 932.485 335.606 920.35 322.819C908.385 309.863 902.402 294.046 902.402 275.37C902.402 256.693 908.385 240.961 920.35 228.173C932.485 215.217 946.978 208.739 963.831 208.739C981.527 208.739 995.262 214.881 1005.04 227.164V212.273ZM944.871 301.113C951.444 307.675 959.786 310.956 969.898 310.956C980.01 310.956 988.352 307.675 994.925 301.113C1001.67 294.383 1005.04 285.802 1005.04 275.37C1005.04 264.938 1001.67 256.441 994.925 249.879C988.352 243.148 980.01 239.783 969.898 239.783C959.786 239.783 951.444 243.148 944.871 249.879C938.299 256.441 935.012 264.938 935.012 275.37C935.012 285.802 938.299 294.383 944.871 301.113Z" fill="#10121F"/>
<path d="M1099.83 233.978C1102.86 225.902 1107.83 219.844 1114.74 215.806C1121.82 211.768 1129.66 209.749 1138.25 209.749V246.093C1128.31 244.915 1119.38 246.934 1111.46 252.15C1103.7 257.366 1099.83 266.031 1099.83 278.146V338.467H1067.22V212.273H1099.83V233.978Z" fill="#10121F"/>
<path d="M1173.5 197.13C1168.11 197.13 1163.39 195.195 1159.35 191.325C1155.47 187.286 1153.53 182.575 1153.53 177.191C1153.53 171.807 1155.47 167.096 1159.35 163.057C1163.39 159.019 1168.11 157 1173.5 157C1179.07 157 1183.78 159.019 1187.66 163.057C1191.71 167.096 1193.73 171.807 1193.73 177.191C1193.73 182.575 1191.71 187.286 1187.66 191.325C1183.78 195.195 1179.07 197.13 1173.5 197.13ZM1157.33 338.467V212.273L1189.94 212.273V338.467H1157.33Z" fill="#10121F"/>
<path d="M1303.21 212.273H1335.82V338.467H1303.21V324.333C1295.29 336.111 1282.73 342 1265.54 342C1251.72 342 1240.26 337.373 1231.16 328.119C1222.23 318.864 1217.76 306.077 1217.76 289.756V212.273H1250.37V285.718C1250.37 294.131 1252.65 300.608 1257.2 305.151C1261.75 309.526 1267.81 311.714 1275.4 311.714C1283.83 311.714 1290.57 309.106 1295.62 303.89C1300.68 298.673 1303.21 290.849 1303.21 280.417V212.273Z" fill="#10121F"/>
<path d="M1394.78 248.112C1394.78 251.477 1396.97 254.253 1401.35 256.441C1405.9 258.46 1411.38 260.311 1417.78 261.993C1424.19 263.508 1430.59 265.527 1437 268.05C1443.4 270.406 1448.79 274.444 1453.17 280.165C1457.72 285.886 1460 293.037 1460 301.618C1460 314.574 1455.11 324.585 1445.34 331.652C1435.73 338.551 1423.68 342 1409.19 342C1383.23 342 1365.54 331.989 1356.1 311.966L1384.41 296.065C1388.12 307.002 1396.38 312.471 1409.19 312.471C1420.82 312.471 1426.63 308.853 1426.63 301.618C1426.63 298.253 1424.36 295.561 1419.81 293.542C1415.42 291.354 1410.03 289.419 1403.63 287.737C1397.22 286.054 1390.82 283.951 1384.41 281.427C1378.01 278.903 1372.53 274.949 1367.98 269.565C1363.6 264.012 1361.41 257.114 1361.41 248.869C1361.41 236.418 1365.96 226.659 1375.06 219.592C1384.33 212.357 1395.79 208.739 1409.44 208.739C1419.72 208.739 1429.07 211.095 1437.5 215.806C1445.93 220.349 1452.58 226.911 1457.47 235.492L1429.66 250.636C1425.62 242.055 1418.88 237.764 1409.44 237.764C1405.23 237.764 1401.69 238.689 1398.82 240.54C1396.13 242.391 1394.78 244.915 1394.78 248.112Z" fill="#10121F"/>
<path d="M329.074 298.182C325.253 286.718 318.566 278.121 304.236 269.523C313.789 266.657 320.476 264.746 324.298 262.835C321.432 255.193 318.566 251.371 311.878 246.595C329.074 213.158 350.091 197.873 348.181 184.499C337.672 190.231 327.164 210.292 308.057 218.89C311.878 186.409 326.208 167.303 326.208 155.839C326.208 150.107 319.521 138.643 313.789 131C282.263 177.811 263.157 234.176 263.157 295.316C263.157 335.44 271.755 374.608 286.085 409.955C295.638 416.643 303.28 422.375 310.923 433.838C309.968 408.045 320.476 398.491 311.878 346.904C315.7 348.815 319.521 351.681 323.342 351.681C324.298 337.351 323.342 319.199 313.789 292.45C318.566 292.45 321.432 294.361 329.074 298.182Z" fill="url(#paint0_linear)"/>
<path d="M106.227 347.985C87.9121 354.396 73.2601 363.553 61.3553 375.458C37.5458 339.744 22.8938 295.788 22.8938 250C22.8938 124.542 124.542 22.8938 250 22.8938C375.458 22.8938 477.106 124.542 477.106 250C477.106 352.564 408.425 439.56 315.018 467.949V447.802C316.85 447.802 319.597 449.634 323.26 454.212C327.839 426.74 328.755 398.352 325.092 369.048C333.333 372.711 339.744 379.121 345.238 386.447C347.07 364.469 342.491 340.659 330.586 316.85C337.912 319.597 343.407 325.092 347.985 333.333C349.817 313.187 347.07 295.788 330.586 279.304C336.081 280.22 339.744 283.883 347.985 291.209C343.407 267.399 328.755 262.82 328.755 246.337C328.755 220.696 378.205 201.465 352.564 170.33C344.322 179.487 336.081 187.729 326.923 194.139C330.586 179.487 338.828 162.088 338.828 153.846C338.828 144.689 315.018 113.553 311.355 108.974C310.44 108.059 305.861 107.143 302.198 108.059C291.209 108.974 294.872 116.3 290.293 120.879C283.883 129.121 274.725 139.194 268.315 149.267C263.736 154.762 260.989 163.004 256.41 163.919C187.729 174.908 181.319 237.179 115.385 230.769C118.132 250.916 134.615 263.736 155.678 272.894C145.604 300.366 121.795 324.176 90.6593 346.154C96.1539 346.154 100.733 347.07 106.227 347.985ZM0 250C0 388.278 111.722 500 250 500C388.278 500 500 388.278 500 250C500 111.722 388.278 0 250 0C111.722 0 0 111.722 0 250ZM239.011 242.674C230.769 243.59 228.938 244.505 220.696 247.253C221.612 227.106 247.253 201.465 271.978 173.077C283.883 159.341 299.451 130.037 304.945 130.037C308.608 130.037 324.176 152.015 324.176 160.256C324.176 171.245 310.44 189.56 306.777 220.696C325.092 212.454 334.249 193.223 345.238 187.729C347.985 201.465 326.923 216.117 310.44 248.169C316.85 253.663 319.597 257.326 322.344 263.736C318.681 265.568 312.271 267.399 303.114 270.147C317.766 278.388 324.176 287.546 326.923 297.619C320.513 293.956 316.85 293.04 311.355 292.125C320.513 316.85 321.429 335.165 320.513 348.901C316.85 348.901 312.271 347.07 309.524 344.322C317.766 393.773 307.692 402.93 308.608 427.656C301.282 416.667 293.956 410.256 284.799 404.762C278.388 429.487 268.315 440.476 261.905 446.886C267.399 412.088 266.484 380.952 251.832 349.817C247.253 354.396 246.337 359.89 243.59 366.3C225.275 353.48 217.949 334.249 228.938 299.451C220.696 305.861 217.949 311.355 213.37 316.85C207.875 274.725 220.696 259.157 239.011 242.674Z" fill="#10121F"/>
<defs>
<linearGradient id="paint0_linear" x1="293.07" y1="438.806" x2="333.667" y2="137.44" gradientUnits="userSpaceOnUse">
<stop stop-color="#4C4EF0"/>
<stop offset="1" stop-color="#4C4EF0" stop-opacity="0"/>
</linearGradient>
</defs>
</svg>
