<?xml version="1.0" encoding="utf-8"?>
<!-- Generator: Adobe Illustrator 27.3.1, SVG Export Plug-In . SVG Version: 6.00 Build 0)  -->
<svg version="1.1" id="Lager_1" xmlns="http://www.w3.org/2000/svg" xmlns:xlink="http://www.w3.org/1999/xlink" x="0px" y="0px"
	 viewBox="0 0 869.6 684.9" style="enable-background:new 0 0 869.6 684.9;" xml:space="preserve">
<style type="text/css">
	.st0{fill:#14387F;}
	.st1{display:none;}
	.st2{display:inline;}
	.st3{fill:none;stroke:#14395D;stroke-width:3.1626;stroke-miterlimit:8;}
	.st4{display:inline;fill:none;stroke:#D64391;stroke-miterlimit:10;}
	.st5{display:inline;fill:none;stroke:#14387F;stroke-width:6;stroke-miterlimit:10;}
	.st6{display:inline;fill:#FFFFFF;}
</style>
<g>
	<path class="st0" d="M736,379.4c2.7-16.5,4.1-33.4,4.1-50.5c0-0.4,0-0.8,0-1.2c-2,0.3-4,0.6-6,0.9c0,0.1,0,0.2,0,0.3
		c0,16.7-1.4,33.2-4,49.4C732.1,378.6,734.1,379,736,379.4z"/>
	<path class="st0" d="M384.8,30.7c15.6-2.4,31.4-3.7,47.5-3.7c21.2,0,42.1,2.2,62.4,6.4c0.9-1.9,2-3.7,3.1-5.5
		c-21.3-4.6-43.2-7-65.5-7c-17.4,0-34.6,1.5-51.4,4.3C382.2,27.1,383.6,28.9,384.8,30.7z"/>
	<path class="st0" d="M618.1,90.9c9.6,7.5,18.9,15.7,27.7,24.5c22.9,22.9,41.7,48.9,56,77.1c2.3,0,4.5,0,6.8,0.1
		c-14.7-29.8-34.4-57.3-58.5-81.4c-9.2-9.2-18.9-17.7-29-25.6C620.1,87.4,619.1,89.2,618.1,90.9z"/>
	<path class="st0" d="M165.3,187.7c13.9-26.3,31.9-50.6,53.5-72.2c8-8,16.3-15.4,25-22.4c-1.3-1.5-2.5-3.1-3.7-4.8
		c-8.9,7.1-17.4,14.7-25.6,22.9c-22.1,22.1-40.4,47-54.6,73.8C161.7,185.9,163.5,186.7,165.3,187.7z"/>
	<path class="st0" d="M471.2,628.3c-12.8,1.6-25.8,2.5-38.9,2.5c-20.6,0-40.9-2.1-60.6-6.1c-0.5,2-1.1,3.9-1.7,5.8
		c20.3,4.1,41.1,6.3,62.3,6.3c13.9,0,27.7-0.9,41.2-2.7C472.6,632.2,471.9,630.3,471.2,628.3z"/>
	<path class="st0" d="M131.1,350.6c-2,0.1-4,0.2-6,0.2c1.3,18.3,4.2,36.3,8.6,53.8c2-0.4,4-0.6,6-0.9
		C135.3,386.5,132.4,368.7,131.1,350.6z"/>
	<path class="st0" d="M645.2,542.9c-14.6,14.6-30.5,27.4-47.4,38.5c0.6,2,1.1,4.1,1.5,6.2c18.1-11.7,35.1-25.4,50.7-41
		c0.6-0.6,1.2-1.3,1.8-1.9C649.5,544.2,647.3,543.6,645.2,542.9z"/>
	<path class="st0" d="M254.2,572.8c-12.4-9.1-24.3-19.3-35.4-30.4c-3.5-3.5-7-7.2-10.3-10.8c-1.5,1.3-3.1,2.5-4.7,3.7
		c3.5,3.9,7.1,7.6,10.8,11.3c11.7,11.7,24.2,22.4,37.4,31.9C252.6,576.6,253.3,574.6,254.2,572.8z"/>
</g>
<g id="Lager_5" class="st1">
	<g class="st2">
		<line class="st3" x1="638.5" y1="373.9" x2="803.4" y2="424.3"/>
		<line class="st3" x1="614.6" y1="399.5" x2="728.5" y2="496.6"/>
		<line class="st3" x1="635.2" y1="304.5" x2="763.6" y2="234.7"/>
		<line class="st3" x1="643.6" y1="340.5" x2="802.7" y2="316.6"/>
		<line class="st3" x1="611.6" y1="281.4" x2="712.7" y2="164.4"/>
		<line class="st3" x1="282.1" y1="475.9" x2="355.8" y2="402.5"/>
		<line class="st3" x1="281.8" y1="188.7" x2="383.1" y2="277.1"/>
		<path class="st3" d="M730.4,543.9c-6.2,7.1-12.7,14.1-19.5,20.6s-13.9,12.7-21.3,18.7s-15,11.4-23.1,16.4
			c-8.1,5.1-16.1,10-24.7,14.2c-8.4,4.4-17.1,8.4-26.1,11.9s-18,6.6-27.4,9.3c-9.3,2.7-18.8,4.9-28.5,6.6c-9.6,1.7-19.5,3-29.4,3.8
			c-10,0.8-19.9,1.1-30.2,0.9c-10.3-0.2-20.2-0.9-30-2.2s-19.6-2.8-29.3-5.1c-9.6-2.2-19-4.7-28.1-7.9c-9.2-3.2-18.2-6.6-26.9-10.4
			s-17.2-8.2-25.5-13s-16.3-9.8-24-15.3s-15.2-11.2-22.3-17.4c-7.1-6.2-14.1-12.7-20.6-19.5S281,541.7,275,534.2"/>
		<path class="st3" d="M283.2,159.1c6.2-7.1,12.7-14.1,19.5-20.6s13.9-12.7,21.3-18.7s15-11.4,23.1-16.4s16.1-10,24.7-14.2
			c8.5-4.3,17.1-8.4,26.1-11.9c8.9-3.5,18-6.6,27.4-9.3c9.3-2.7,18.8-4.9,28.5-6.6c9.6-1.7,19.5-3,29.4-3.8
			c10-0.8,19.9-1.1,30.2-0.9c10.1,0.2,20.2,0.9,30,2.2s19.6,2.8,29.3,5.1c9.6,2.2,19,4.7,28.1,7.9c9.2,3.2,18.2,6.5,26.9,10.4
			s17.2,8.2,25.5,13c8.2,4.7,16.3,9.8,24,15.3"/>
	</g>
</g>
<g id="Lager_3" class="st1">
	<line class="st4" x1="262.6" y1="349.5" x2="591.8" y2="349.5"/>
	<line class="st4" x1="286.1" y1="264.6" x2="568.2" y2="434.4"/>
	<line class="st4" x1="286.2" y1="434.5" x2="568.1" y2="264.5"/>
	<line class="st4" x1="268.5" y1="305.8" x2="585.9" y2="393.2"/>
	<line class="st4" x1="268.7" y1="394.1" x2="585.6" y2="304.9"/>
	<line class="st4" x1="310.8" y1="233.1" x2="543.6" y2="465.9"/>
	<line class="st4" x1="344.9" y1="206.9" x2="509.5" y2="492.1"/>
	<line class="st4" x1="314.4" y1="469.4" x2="540" y2="229.6"/>
	<line class="st4" x1="355" y1="497.5" x2="499.3" y2="201.5"/>
</g>
<g>
	<g>
		<path class="st0" d="M45.3,298c-0.7-0.8-1.6-1.2-2.9-1.2c-2.5,0-4.4,2-4.4,4.9c0,2.8,1.9,4.9,4.3,4.9c1.3,0,2.4-0.6,3.1-1.6
			l2.8,2.1c-1.3,1.8-3.4,2.6-5.5,2.6c-4.7,0-8.2-3.1-8.2-8s3.4-8,8.2-8c1.7,0,3.8,0.6,5.1,2.2L45.3,298z"/>
		<path class="st0" d="M59.5,307.5c-1,1.3-2.7,2-4.4,2c-3.2,0-5.8-2.1-5.8-5.4s2.6-5.4,5.8-5.4c3,0,4.9,2.1,4.9,5.4v1h-7.4
			c0.3,1.2,1.2,2,2.4,2c1,0,1.7-0.5,2.3-1.3L59.5,307.5z M56.8,303c0-1.1-0.8-2-2-2c-1.4,0-2.2,1-2.3,2H56.8z"/>
		<path class="st0" d="M61.9,298.9h3.2v1.7l0,0c0.7-1.3,1.6-1.9,3-1.9c0.4,0,0.8,0,1.1,0.1v2.9c-0.4-0.1-0.9-0.2-1.4-0.2
			c-2.4,0-2.7,1.4-2.7,3.5v4.3h-3.2C61.9,309.4,61.9,298.9,61.9,298.9z"/>
		<path class="st0" d="M77.8,301.4H75v3.5c0,1.1,0.1,1.9,1.5,1.9c0.3,0,1,0,1.3-0.3v2.7c-0.7,0.3-1.5,0.3-2.2,0.3
			c-2.1,0-3.8-0.9-3.8-3.1v-4.9h-2v-2.6h2v-3.1H75v3.1h2.8V301.4z"/>
		<path class="st0" d="M81.1,293.7c1,0,1.9,0.8,1.9,1.9c0,1-0.8,1.9-1.9,1.9c-1,0-1.9-0.8-1.9-1.9C79.2,294.6,80.1,293.7,81.1,293.7
			z M79.4,298.9h3.2v10.4h-3.2V298.9z"/>
		<path class="st0" d="M86.1,301.4H84v-2.6h2.1V297c0-2.3,0.6-4.2,4.1-4.2c0.6,0,1.3,0,1.9,0.2l-0.1,2.7c-0.4-0.1-0.7-0.2-1-0.2
			c-1,0-1.5,0.3-1.5,1.7v1.6h2.4v2.6h-2.4v7.9h-3.2v-7.9L86.1,301.4L86.1,301.4z M94.5,293.7c1,0,1.9,0.8,1.9,1.9
			c0,1-0.8,1.9-1.9,1.9c-1,0-1.9-0.8-1.9-1.9C92.7,294.6,93.5,293.7,94.5,293.7z M93,298.9h3.2v10.4H93V298.9z"/>
		<path class="st0" d="M105.6,302.2c-0.3-0.4-0.9-0.8-1.6-0.8c-1.6,0-2.6,1.1-2.6,2.6s1,2.6,2.6,2.6c0.7,0,1.2-0.4,1.6-0.8l2.1,2.2
			c-1,1-2.5,1.4-3.7,1.4c-3.2,0-5.8-2.1-5.8-5.4s2.6-5.4,5.8-5.4c1.2,0,2.7,0.4,3.7,1.4L105.6,302.2z"/>
		<path class="st0" d="M115.4,308L115.4,308c-0.7,1.1-2,1.6-3.3,1.6c-1.9,0-3.7-1.1-3.7-3.2c0-3.6,4.3-3.6,7-3.6
			c0-1.1-0.9-1.9-2-1.9c-1,0-1.9,0.5-2.6,1.2l-1.7-1.7c1.2-1.1,2.9-1.7,4.6-1.7c3.7,0,4.7,1.9,4.7,5.4v5.3h-2.9L115.4,308L115.4,308
			z M114.6,304.8c-1,0-3.2,0.1-3.2,1.5c0,0.8,0.8,1.1,1.5,1.1c1.3,0,2.4-0.7,2.4-1.9v-0.7H114.6z"/>
		<path class="st0" d="M127.5,301.4h-2.8v3.5c0,1.1,0.1,1.9,1.5,1.9c0.3,0,1,0,1.3-0.3v2.7c-0.7,0.3-1.5,0.3-2.2,0.3
			c-2.1,0-3.8-0.9-3.8-3.1v-4.9h-2v-2.6h2v-3.1h3.2v3.1h2.8V301.4z"/>
		<path class="st0" d="M138.9,307.5c-1,1.3-2.7,2-4.4,2c-3.2,0-5.8-2.1-5.8-5.4s2.6-5.4,5.8-5.4c3,0,4.9,2.1,4.9,5.4v1H132
			c0.3,1.2,1.2,2,2.4,2c1,0,1.7-0.5,2.3-1.3L138.9,307.5z M136.2,303c0-1.1-0.8-2-2-2c-1.4,0-2.2,1-2.3,2H136.2z"/>
		<path class="st0" d="M148.1,294.1h3.3v15.2h-3.3V294.1z"/>
		<path class="st0" d="M160,301.9c-0.5-0.6-1.1-0.9-1.9-0.9c-0.5,0-1.2,0.2-1.2,0.9c0,1.5,5.4,0.2,5.4,4.2c0,2.6-2.6,3.4-4.8,3.4
			c-1.4,0-3-0.4-4.1-1.4l1.9-2.2c0.6,0.7,1.3,1.1,2.3,1.1c0.7,0,1.4-0.2,1.4-0.7c0-1.7-5.4-0.3-5.4-4.2c0-2.4,2.2-3.5,4.3-3.5
			c1.4,0,2.9,0.3,3.8,1.4L160,301.9z"/>
		<path class="st0" d="M169.9,301.9c-0.5-0.6-1.1-0.9-1.9-0.9c-0.5,0-1.2,0.2-1.2,0.9c0,1.5,5.4,0.2,5.4,4.2c0,2.6-2.6,3.4-4.8,3.4
			c-1.4,0-3-0.4-4.1-1.4l1.9-2.2c0.6,0.7,1.3,1.1,2.3,1.1c0.7,0,1.4-0.2,1.4-0.7c0-1.7-5.4-0.3-5.4-4.2c0-2.4,2.2-3.5,4.3-3.5
			c1.4,0,2.9,0.3,3.8,1.4L169.9,301.9z"/>
		<path class="st0" d="M184,309.3h-3.1v-1.4l0,0c-0.4,0.8-1.5,1.7-3,1.7c-3.2,0-3.8-2.1-3.8-4.9V299h3.2v5.1c0,1.2,0,2.7,1.7,2.7
			s1.9-1.3,1.9-2.6V299h3.2v10.4H184V309.3z"/>
		<path class="st0" d="M192.8,308L192.8,308c-0.7,1.1-2,1.6-3.3,1.6c-1.9,0-3.7-1.1-3.7-3.2c0-3.6,4.3-3.6,7-3.6
			c0-1.1-0.9-1.9-2-1.9c-1,0-1.9,0.5-2.6,1.2l-1.7-1.7c1.2-1.1,2.9-1.7,4.6-1.7c3.7,0,4.7,1.9,4.7,5.4v5.3h-2.9V308H192.8z
			 M192.1,304.8c-1,0-3.2,0.1-3.2,1.5c0,0.8,0.8,1.1,1.5,1.1c1.3,0,2.4-0.7,2.4-1.9v-0.7H192.1z"/>
		<path class="st0" d="M197.8,298.9h3.1v1.4l0,0c0.4-0.8,1.5-1.7,3-1.7c3.2,0,3.8,2.1,3.8,4.9v5.7h-3.2v-5.1c0-1.2,0-2.7-1.7-2.7
			s-1.9,1.3-1.9,2.6v5.2h-3.2v-10.4h0.1V298.9z"/>
		<path class="st0" d="M217.1,302.2c-0.3-0.4-0.9-0.8-1.6-0.8c-1.6,0-2.6,1.1-2.6,2.6s1,2.6,2.6,2.6c0.7,0,1.2-0.4,1.6-0.8l2.1,2.2
			c-1,1-2.5,1.4-3.7,1.4c-3.2,0-5.8-2.1-5.8-5.4s2.6-5.4,5.8-5.4c1.2,0,2.7,0.4,3.7,1.4L217.1,302.2z"/>
		<path class="st0" d="M230.3,307.5c-1,1.3-2.7,2-4.4,2c-3.2,0-5.8-2.1-5.8-5.4s2.6-5.4,5.8-5.4c3,0,4.9,2.1,4.9,5.4v1h-7.4
			c0.3,1.2,1.2,2,2.4,2c1,0,1.7-0.5,2.3-1.3L230.3,307.5z M227.6,303c0-1.1-0.8-2-2-2c-1.4,0-2.2,1-2.3,2H227.6z"/>
		<path class="st0" d="M96.3,331.4l3.4,3.6h-4.1l-1.3-1.4c-1.2,1.3-2.6,1.8-4.4,1.8c-2.7,0-5.4-1.5-5.4-4.5c0-1.9,1.4-3.5,3.2-4.1
			c-1-1.1-1.7-1.9-1.7-3.4c0-2.7,2.3-3.8,4.7-3.8c2.3,0,4.4,1.2,4.4,3.7c0,1.8-1.3,3.1-2.8,3.9l1.9,2.1l1.5-2h3.8L96.3,331.4z
			 M89.6,328.6c-0.8,0.5-1.7,1-1.7,2.2c0,1.1,1,1.9,2,1.9s1.7-0.5,2.4-1.1L89.6,328.6z M89.2,323.5c0,0.7,0.7,1.4,1.3,1.9
			c0.7-0.4,1.7-1.1,1.7-1.9c0-0.9-0.7-1.4-1.5-1.4C89.8,322.1,89.2,322.6,89.2,323.5z"/>
		<path class="st0" d="M117.6,323.8c-0.7-0.8-1.6-1.2-2.9-1.2c-2.5,0-4.4,2-4.4,4.9c0,2.8,1.9,4.9,4.3,4.9c1.3,0,2.4-0.6,3.1-1.6
			l2.8,2.1c-1.3,1.8-3.4,2.6-5.5,2.6c-4.7,0-8.2-3.1-8.2-8s3.4-8,8.2-8c1.7,0,3.8,0.6,5.1,2.2L117.6,323.8z"/>
		<path class="st0" d="M127.4,324.4c3.2,0,5.8,2.1,5.8,5.4s-2.6,5.4-5.8,5.4s-5.8-2.1-5.8-5.4C121.6,326.5,124.1,324.4,127.4,324.4z
			 M127.4,332.4c1.6,0,2.6-1.1,2.6-2.6c0-1.6-1-2.6-2.6-2.6s-2.6,1.1-2.6,2.6C124.8,331.4,125.7,332.4,127.4,332.4z"/>
		<path class="st0" d="M135,324.6h3.1v1.4l0,0c0.4-0.8,1.5-1.7,3-1.7c3.2,0,3.8,2.1,3.8,4.9v5.7h-3.2v-5.1c0-1.2,0-2.7-1.7-2.7
			s-1.9,1.3-1.9,2.6v5.2h-3.2v-10.4h0.1V324.6z"/>
		<path class="st0" d="M154.4,327.2h-2.8v3.5c0,1.1,0.1,1.9,1.5,1.9c0.3,0,1,0,1.3-0.3v2.7c-0.7,0.3-1.5,0.3-2.2,0.3
			c-2.1,0-3.8-0.9-3.8-3.1v-4.9h-2v-2.6h2v-3.1h3.2v3.1h2.8V327.2z"/>
		<path class="st0" d="M156,324.6h3.2v1.7l0,0c0.7-1.3,1.6-1.9,3-1.9c0.4,0,0.8,0,1.1,0.1v2.9c-0.4-0.1-0.9-0.2-1.4-0.2
			c-2.4,0-2.7,1.4-2.7,3.5v4.3H156V324.6L156,324.6z"/>
		<path class="st0" d="M169.8,324.4c3.2,0,5.8,2.1,5.8,5.4s-2.6,5.4-5.8,5.4s-5.8-2.1-5.8-5.4S166.6,324.4,169.8,324.4z
			 M169.8,332.4c1.6,0,2.6-1.1,2.6-2.6c0-1.6-1-2.6-2.6-2.6s-2.6,1.1-2.6,2.6C167.2,331.4,168.2,332.4,169.8,332.4z"/>
		<path class="st0" d="M177.6,318.9h3.2v16.2h-3.2V318.9z"/>
	</g>
	<g>
		<path class="st0" d="M190.8,208.7l-24.4,24.1c-0.8,0.8-2.1,0.8-2.8,0l-12.5-12.6c-0.8-0.8-0.8-2.1,0-2.8l3.7-3.7
			c0.8-0.8,2.1-0.8,2.8,0l7.2,7.5l19.1-18.8c0.8-0.8,2.1-0.8,2.8,0l3.7,3.7C191.4,206.6,191.4,207.9,190.8,208.7L190.8,208.7z"/>
		<g>
			<path class="st0" d="M133.1,242.1h7.3c1.1,0,2.1-0.9,2.1-2l1.2-24.4c0.1-1.2-0.9-2.2-2.1-2.2h-9.9c-1.2,0-2.2,1-2.1,2.2l1.2,24.4
				C131.1,241.2,132,242.1,133.1,242.1z"/>
			<circle class="st0" cx="136.8" cy="253.5" r="7.5"/>
			<path class="st0" d="M136.8,280.4c-24.3,0-44.1-19.7-44.1-44.1c0-24.3,19.7-44.1,44.1-44.1c13.4,0,25.8,5.9,34.2,16.3l-5.6,5.5
				c-6.9-9-17.3-14.1-28.6-14.1c-19.9,0-36.2,16.2-36.2,36.2s16.2,36.2,36.2,36.2s36.2-16.2,36.2-36.2c0-0.8,0-1.6-0.1-2.5l6.9-6.8
				c0.7,3.1,1,6.2,1,9.5C180.9,260.6,161.1,280.4,136.8,280.4z"/>
		</g>
	</g>
</g>
<path class="st0" d="M354.5,78.5c-2.8,0-5.6,1.1-7.6,3.1l-13-7.3c0.7-2,1.1-4.1,1.1-6.3c0-4.3-1.5-8.4-4.1-11.7L350,34.4
	c1.4,0.7,3,1,4.6,1c6.1,0,11.2-5,11.2-11.2s-5-11.2-11.2-11.2c-6.1,0-11.2,5-11.2,11.2c0,2.1,0.6,4.1,1.7,5.9L326,52
	c-2.9-1.8-6.2-2.7-9.7-2.7c-2.2,0-4.3,0.4-6.3,1.1l-16.9-29.3c1.9-2.1,3-4.8,3-7.6c0-6.1-5-11.2-11.2-11.2s-11.2,5-11.2,11.2
	s5,11.2,11.2,11.2c0.8,0,1.7-0.1,2.5-0.3l16.9,29.3c-3.1,2.6-5.2,6-6.2,10l-31.5-1.9c-1.2-4.9-5.6-8.7-10.9-8.7
	c-6.1,0-11.7,5-11.7,11.2s5.5,11.2,11.7,11.2c4.7,0,8.9-2.9,10.5-7.3l31.5,1.9c0.6,5.1,3.2,9.8,7.3,12.8l-10.2,20
	c-0.7-0.1-1.3-0.2-2-0.2c-6.1,0-11.2,5-11.2,11.2s5,11.2,11.2,11.2c6.1,0,11.2-5,11.2-11.2c0-3.1-1.2-5.9-3.4-8.1l10.2-20
	c1.8,0.5,3.6,0.8,5.4,0.8c5.5,0,10.9-2.5,14.4-6.7l13.1,7.3c-0.2,0.8-0.3,1.7-0.3,2.5c0,6.1,5,11.2,11.2,11.2
	c6.1,0,11.2-5,11.2-11.2C365.6,83.5,360.6,78.5,354.5,78.5z M354.5,94.5c-2.6,0-4.7-2.1-4.7-4.7c0-0.8,0.2-1.6,0.6-2.3
	c0.8-1.5,2.4-2.4,4.1-2.4c2.6,0,4.7,2.1,4.7,4.7C359.2,92.4,357.1,94.5,354.5,94.5z M284.8,8.7c2.6,0,4.7,2.1,4.7,4.7
	c0,1.7-0.9,3.3-2.4,4.1c-0.7,0.4-1.5,0.6-2.4,0.6c-2.6,0-4.7-2.1-4.7-4.7C280.1,10.9,282.2,8.7,284.8,8.7z M316.2,80.2
	c-1.9,0-3.8-0.4-5.5-1.3c-4.1-2.1-6.6-6.2-6.6-10.9c0-0.3,0-0.5,0-0.7c0.2-4.1,2.5-7.7,6.1-9.9c1.8-1.1,3.9-1.6,6.1-1.6
	c2.9,0,5.8,1.1,8.1,3c2.6,2.3,4.2,5.6,4.2,9.3c0,2.1-0.6,4.2-1.6,6C324.7,77.9,320.6,80.2,316.2,80.2z M292.8,109.1
	c0.8,0,1.5,0.2,2.1,0.5c1.6,0.8,2.6,2.4,2.6,4.2c0,2.6-2.1,4.7-4.7,4.7s-4.7-2.1-4.7-4.7C288,111.3,290.2,109.1,292.8,109.1z
	 M354.5,19.4c2.6,0,4.7,2.1,4.7,4.7s-2.1,4.7-4.7,4.7c-1.1,0-2.2-0.4-3.1-1.2c-1-0.9-1.6-2.2-1.6-3.6
	C349.7,21.5,351.9,19.4,354.5,19.4z M255.6,59.5c2.6,0,4.7,2.1,4.7,4.7c0,0.1,0,0.2,0,0.3c-0.2,2.5-2.2,4.4-4.7,4.4
	c-2.6,0-4.7-2.1-4.7-4.7C250.9,61.7,253,59.5,255.6,59.5z"/>
<g>
	<g>
		<path class="st0" d="M494,146.5c-0.5-0.7-1.6-1-2.4-1c-0.9,0-2.2,0.4-2.2,1.6c0,2.8,7,1,7,6.3c0,3.4-2.7,5-5.8,5
			c-1.9,0-3.6-0.6-5.1-1.9l2.4-2.6c0.7,0.9,1.8,1.4,2.9,1.4s2.3-0.5,2.3-1.6c0-2.8-7.1-1.3-7.1-6.3c0-3.2,2.8-4.9,5.8-4.9
			c1.7,0,3.3,0.4,4.6,1.6L494,146.5z"/>
		<path class="st0" d="M508.3,156.2c-1,1.3-2.7,2-4.4,2c-3.2,0-5.8-2.1-5.8-5.4c0-3.3,2.6-5.4,5.8-5.4c3,0,4.9,2.1,4.9,5.4v1h-7.4
			c0.3,1.2,1.2,2,2.4,2c1,0,1.7-0.5,2.3-1.3L508.3,156.2z M505.6,151.5c0-1.1-0.8-2-2-2c-1.4,0-2.2,1-2.3,2H505.6z"/>
		<path class="st0" d="M517.8,150.9c-0.3-0.4-0.9-0.8-1.6-0.8c-1.6,0-2.6,1.1-2.6,2.6s1,2.6,2.6,2.6c0.7,0,1.2-0.4,1.6-0.8l2.1,2.2
			c-1,1-2.5,1.4-3.7,1.4c-3.2,0-5.8-2.1-5.8-5.4c0-3.3,2.6-5.4,5.8-5.4c1.2,0,2.7,0.4,3.7,1.4L517.8,150.9z"/>
		<path class="st0" d="M531.2,158h-3.1v-1.4l0,0c-0.4,0.8-1.5,1.7-3,1.7c-3.2,0-3.8-2.1-3.8-4.9v-5.7h3.2v5.1c0,1.2,0,2.7,1.7,2.7
			s1.9-1.3,1.9-2.6v-5.2h3.2V158H531.2z"/>
		<path class="st0" d="M533.4,147.5h3.2v1.7l0,0c0.7-1.3,1.6-1.9,3-1.9c0.4,0,0.8,0,1.1,0.1v2.9c-0.4-0.1-0.9-0.2-1.4-0.2
			c-2.4,0-2.7,1.4-2.7,3.5v4.3h-3.2L533.4,147.5L533.4,147.5z"/>
		<path class="st0" d="M551.6,156.2c-1,1.3-2.7,2-4.4,2c-3.2,0-5.8-2.1-5.8-5.4c0-3.3,2.6-5.4,5.8-5.4c3,0,4.9,2.1,4.9,5.4v1h-7.4
			c0.3,1.2,1.2,2,2.4,2c1,0,1.7-0.5,2.3-1.3L551.6,156.2z M548.9,151.5c0-1.1-0.8-2-2-2c-1.4,0-2.2,1-2.3,2H548.9z"/>
		<path class="st0" d="M561,142.8h3.3v6.3l5.9-6.3h4.3l-6.7,7l7.3,8.2h-4.6l-6.1-7.2v7.2h-3.3v-15.2H561z"/>
		<path class="st0" d="M585.7,156.2c-1,1.3-2.7,2-4.4,2c-3.2,0-5.8-2.1-5.8-5.4c0-3.3,2.6-5.4,5.8-5.4c3,0,4.9,2.1,4.9,5.4v1h-7.4
			c0.3,1.2,1.2,2,2.4,2c1,0,1.7-0.5,2.3-1.3L585.7,156.2z M583,151.5c0-1.1-0.8-2-2-2c-1.4,0-2.2,1-2.3,2H583z"/>
		<path class="st0" d="M594.2,159.7c-0.9,2.2-1.3,3.4-4.4,3.4c-0.8,0-1.6-0.1-2.4-0.4l0.4-2.6c0.5,0.2,1,0.3,1.5,0.3
			c1.4,0,1.7-0.6,2.1-1.7l0.2-0.6l-4.5-10.5h3.5l2.7,6.8l0,0l2.3-6.8h3.3L594.2,159.7z"/>
		<path class="st0" d="M461.6,182.6c-2,1-4.1,1.4-6.3,1.4c-4.7,0-8.2-3.1-8.2-8c0-4.8,3.4-8,8.2-8c2.4,0,4.5,0.5,6,1.9l-2.3,2.6
			c-0.9-0.9-2-1.4-3.7-1.4c-2.8,0-4.7,2-4.7,4.9c0,2.8,1.9,4.9,4.7,4.9c1.5,0,2.5-0.4,3.1-0.7v-2.5h-2.7v-3.1h5.9V182.6z"/>
		<path class="st0" d="M474,181.8c-1,1.3-2.7,2-4.4,2c-3.2,0-5.8-2.1-5.8-5.4c0-3.3,2.6-5.4,5.8-5.4c3,0,4.9,2.1,4.9,5.4v1h-7.4
			c0.3,1.2,1.2,2,2.4,2c1,0,1.7-0.5,2.3-1.3L474,181.8z M471.3,177.3c0-1.1-0.8-2-2-2c-1.4,0-2.2,1-2.3,2H471.3z"/>
		<path class="st0" d="M476.4,173.3h3.1v1.4l0,0c0.4-0.8,1.5-1.7,3-1.7c3.2,0,3.8,2.1,3.8,4.9v5.7h-3.2v-5.1c0-1.2,0-2.7-1.7-2.7
			s-1.9,1.3-1.9,2.6v5.2h-3.2v-10.4h0.1V173.3z"/>
		<path class="st0" d="M498.6,181.8c-1,1.3-2.7,2-4.4,2c-3.2,0-5.8-2.1-5.8-5.4c0-3.3,2.6-5.4,5.8-5.4c3,0,4.9,2.1,4.9,5.4v1h-7.4
			c0.3,1.2,1.2,2,2.4,2c1,0,1.7-0.5,2.3-1.3L498.6,181.8z M495.8,177.3c0-1.1-0.8-2-2-2c-1.4,0-2.2,1-2.3,2H495.8z"/>
		<path class="st0" d="M501.1,173.3h3.2v1.7l0,0c0.7-1.3,1.6-1.9,3-1.9c0.4,0,0.8,0,1.1,0.1v2.9c-0.4-0.1-0.9-0.2-1.4-0.2
			c-2.4,0-2.7,1.4-2.7,3.5v4.3h-3.2V173.3z"/>
		<path class="st0" d="M516.3,182.3L516.3,182.3c-0.7,1.1-2,1.6-3.3,1.6c-1.9,0-3.7-1.1-3.7-3.2c0-3.6,4.3-3.6,7-3.6
			c0-1.1-0.9-1.9-2-1.9c-1,0-1.9,0.5-2.6,1.2l-1.7-1.7c1.2-1.1,2.9-1.7,4.6-1.7c3.7,0,4.7,1.9,4.7,5.4v5.3h-2.9L516.3,182.3
			L516.3,182.3L516.3,182.3z M515.5,179.1c-1,0-3.2,0.1-3.2,1.5c0,0.8,0.8,1.1,1.5,1.1c1.3,0,2.4-0.7,2.4-1.9v-0.7L515.5,179.1
			L515.5,179.1z"/>
		<path class="st0" d="M528.4,175.8h-2.8v3.5c0,1.1,0.1,1.9,1.5,1.9c0.3,0,1,0,1.3-0.3v2.7c-0.7,0.3-1.5,0.3-2.2,0.3
			c-2.1,0-3.8-0.9-3.8-3.1v-4.9h-2v-2.6h2v-3.1h3.2v3.1h2.8V175.8z"/>
		<path class="st0" d="M531.7,168.1c1,0,1.9,0.8,1.9,1.9c0,1-0.8,1.9-1.9,1.9c-1,0-1.9-0.8-1.9-1.9
			C529.8,169,530.7,168.1,531.7,168.1z M530.1,173.3h3.2v10.5h-3.2V173.3z"/>
		<path class="st0" d="M541,173c3.2,0,5.8,2.1,5.8,5.4c0,3.3-2.6,5.4-5.8,5.4s-5.8-2.1-5.8-5.4S537.8,173,541,173z M541,181.1
			c1.6,0,2.6-1.1,2.6-2.6c0-1.6-1-2.6-2.6-2.6s-2.6,1.1-2.6,2.6S539.4,181.1,541,181.1z"/>
		<path class="st0" d="M548.7,173.3h3.1v1.4l0,0c0.4-0.8,1.5-1.7,3-1.7c3.2,0,3.8,2.1,3.8,4.9v5.7h-3.2v-5.1c0-1.2,0-2.7-1.7-2.7
			s-1.9,1.3-1.9,2.6v5.2h-3.2v-10.4h0.1V173.3z"/>
		<path class="st0" d="M573.2,176.3c-0.5-0.6-1.1-0.9-1.9-0.9c-0.5,0-1.2,0.2-1.2,0.9c0,1.5,5.4,0.2,5.4,4.2c0,2.6-2.6,3.4-4.8,3.4
			c-1.4,0-3-0.4-4.1-1.4l1.9-2.2c0.6,0.7,1.3,1.1,2.3,1.1c0.7,0,1.4-0.2,1.4-0.7c0-1.7-5.4-0.3-5.4-4.2c0-2.4,2.2-3.5,4.3-3.5
			c1.4,0,2.9,0.3,3.8,1.4L573.2,176.3z"/>
		<path class="st0" d="M583.3,185.4c-0.9,2.2-1.3,3.4-4.4,3.4c-0.8,0-1.6-0.1-2.4-0.4l0.4-2.6c0.5,0.2,1,0.3,1.5,0.3
			c1.4,0,1.7-0.6,2.1-1.7l0.2-0.6l-4.5-10.5h3.5l2.7,6.8l0,0l2.3-6.8h3.3L583.3,185.4z"/>
		<path class="st0" d="M595.1,176.3c-0.5-0.6-1.1-0.9-1.9-0.9c-0.5,0-1.2,0.2-1.2,0.9c0,1.5,5.4,0.2,5.4,4.2c0,2.6-2.6,3.4-4.8,3.4
			c-1.4,0-3-0.4-4.1-1.4l1.9-2.2c0.6,0.7,1.3,1.1,2.3,1.1c0.7,0,1.4-0.2,1.4-0.7c0-1.7-5.4-0.3-5.4-4.2c0-2.4,2.2-3.5,4.3-3.5
			c1.4,0,2.9,0.3,3.8,1.4L595.1,176.3z"/>
		<path class="st0" d="M606.3,175.8h-2.8v3.5c0,1.1,0.1,1.9,1.5,1.9c0.3,0,1,0,1.3-0.3v2.7c-0.7,0.3-1.5,0.3-2.2,0.3
			c-2.1,0-3.8-0.9-3.8-3.1v-4.9h-2v-2.6h2v-3.1h3.2v3.1h2.8V175.8z"/>
		<path class="st0" d="M617.7,181.8c-1,1.3-2.7,2-4.4,2c-3.2,0-5.8-2.1-5.8-5.4c0-3.3,2.6-5.4,5.8-5.4c3,0,4.9,2.1,4.9,5.4v1h-7.4
			c0.3,1.2,1.2,2,2.4,2c1,0,1.7-0.5,2.3-1.3L617.7,181.8z M615,177.3c0-1.1-0.8-2-2-2c-1.4,0-2.2,1-2.3,2H615z"/>
		<path class="st0" d="M620.1,173.3h3.1v1.4l0,0c0.4-0.8,1.5-1.7,3-1.7s2.6,0.6,3.2,1.9c0.7-1.3,1.7-1.9,3.3-1.9
			c2.8,0,3.7,2,3.7,4.5v6.1h-3.2v-6c0-1-0.4-1.8-1.4-1.8c-1.5,0-1.9,1-1.9,2.3v5.5h-3.2v-5.5c0-0.8,0-2.3-1.4-2.3
			c-1.7,0-1.9,1.3-1.9,2.6v5.2h-3.2L620.1,173.3L620.1,173.3L620.1,173.3z"/>
	</g>
	<g>
		<g>
			<path class="st0" d="M606.1,56.5c-2.6,0-5-1.3-6.4-3.4c-1.1-1.7-1.5-3.7-1.1-5.7s1.6-3.7,3.3-4.9c1.3-0.8,2.7-1.3,4.2-1.3
				c2.6,0,5,1.3,6.4,3.4c1.1,1.7,1.5,3.7,1.1,5.7s-1.6,3.7-3.3,4.9C609,56,607.6,56.5,606.1,56.5z M606,45.7c-0.6,0-1.2,0.2-1.7,0.5
				c-1.4,0.9-1.8,2.9-0.9,4.3c0.6,0.9,1.5,1.4,2.6,1.4l0,0c0.6,0,1.2-0.2,1.7-0.5c1.4-0.9,1.8-2.9,0.9-4.3
				C608.1,46.3,607.1,45.7,606,45.7z"/>
			<path class="st0" d="M548.2,100.9c-0.2,0-0.4,0-0.6-0.1l-12.8-2.6c-0.8-0.2-1.5-0.6-1.9-1.3c-0.4-0.7-0.6-1.5-0.4-2.2l2.4-11.8
				c0.2-0.8,0.6-1.5,1.3-1.9l37.4-24.9c-0.9-9.7,3.7-19.3,11.8-24.8c4.4-2.9,9.5-4.4,14.8-4.4c9,0,17.3,4.4,22.2,11.9
				c8.2,12.3,4.8,28.9-7.4,37c-4.3,2.9-9.5,4.4-14.8,4.4c-5,0-9.9-1.4-14.2-4l-6,4l-1.4,7.1c-0.2,0.8-0.6,1.5-1.3,1.9
				c-0.5,0.3-1.1,0.5-1.7,0.5c-0.2,0-0.4,0-0.6-0.1l-6.4-1.3l-1.3,6.4c-0.2,0.8-0.6,1.5-1.3,1.9c-0.5,0.3-1.1,0.5-1.7,0.5
				c-0.2,0-0.4,0-0.6-0.1l-7.1-1.4L550,100C549.3,100.7,548.8,100.9,548.2,100.9z M547.5,94.7l6.6-4.4c0.5-0.3,1.1-0.5,1.7-0.5
				c0.2,0,0.4,0,0.6,0.1l5.4,1.1l1.1-5.4c0.2-0.8,0.6-1.5,1.3-1.9l1.2-0.8c0.5-0.3,1.1-0.5,1.7-0.5c0.2,0,0.4,0,0.6,0.1l5.4,1.1
				l1.1-5.4c0.2-0.8,0.6-1.5,1.3-1.9l8.4-5.5c0.6-0.5,1.3-0.8,2-0.8c0.6,0,1.2,0.2,1.8,0.6c3.6,2.7,7.9,4.1,12.4,4.1
				c4.1,0,8.1-1.2,11.4-3.4c4.6-3,7.7-7.7,8.9-13.2s0-11-3-15.5c-3.8-5.7-10.3-9.3-17.2-9.3c-4,0-8.1,1.2-11.4,3.4
				c-6.7,4.5-10.3,12.7-9,20.7c0.2,1.4-0.5,2.7-1.7,3.2l-37.5,25l-1.5,7.5L547.5,94.7z"/>
		</g>
		<g>
			<path class="st0" d="M567.2,55.1v-4.9c0-15.3-12.5-27.8-27.8-27.8s-27.8,12.5-27.8,27.8v4.9c-6.3,1.3-11.1,6.9-11.1,13.7v40.7
				c0,7.7,6.2,14,14,14h49.7c7.7,0,14-6.2,14-14V93.3c-0.9,0.5-1.9,0.7-2.9,0.7c-0.4,0-0.8,0-1.3-0.1l-3-0.6l-0.2,1v15.2
				c0,3.6-3,6.6-6.6,6.6h-49.7c-3.6,0-6.6-3-6.6-6.6V68.8c0-3.6,3-6.6,6.6-6.6h42 M519.1,50.2c0-11.3,9.2-20.4,20.4-20.4
				c11.3,0,20.4,9.2,20.4,20.4v4.6H519L519.1,50.2L519.1,50.2z"/>
		</g>
	</g>
</g>
<g>
	<g>
		<path class="st0" d="M454.8,666.1c-0.5-0.7-1.6-1-2.4-1c-0.9,0-2.2,0.4-2.2,1.6c0,2.8,7,1,7,6.3c0,3.4-2.7,5-5.8,5
			c-1.9,0-3.6-0.6-5.1-1.9l2.4-2.6c0.7,0.9,1.8,1.4,2.9,1.4s2.3-0.5,2.3-1.6c0-2.8-7.1-1.3-7.1-6.3c0-3.2,2.8-4.9,5.8-4.9
			c1.7,0,3.3,0.4,4.6,1.6L454.8,666.1z"/>
		<path class="st0" d="M469.3,677.6h-3.1v-1.4l0,0c-0.4,0.8-1.5,1.7-3,1.7c-3.2,0-3.8-2.1-3.8-4.9v-5.7h3.2v5.1c0,1.2,0,2.7,1.7,2.7
			s1.9-1.3,1.9-2.6v-5.2h3.2v10.4L469.3,677.6L469.3,677.6z"/>
		<path class="st0" d="M471.8,667.2h2.9v1.4l0,0c0.5-0.7,1.7-1.6,3.2-1.6c3.1,0,5.1,2.2,5.1,5.4c0,2.9-1.8,5.5-4.7,5.5
			c-1.3,0-2.6-0.4-3.3-1.4l0,0v6h-3.2V667.2z M477.3,675c1.6,0,2.6-1.1,2.6-2.6c0-1.6-1-2.6-2.6-2.6s-2.6,1.1-2.6,2.6
			C474.8,673.9,475.7,675,477.3,675z"/>
		<path class="st0" d="M485.4,667.2h2.9v1.4l0,0c0.5-0.7,1.7-1.6,3.2-1.6c3.1,0,5.1,2.2,5.1,5.4c0,2.9-1.8,5.5-4.7,5.5
			c-1.3,0-2.6-0.4-3.3-1.4l0,0v6h-3.2V667.2z M490.9,675c1.6,0,2.6-1.1,2.6-2.6c0-1.6-1-2.6-2.6-2.6s-2.6,1.1-2.6,2.6
			S489.3,675,490.9,675z"/>
		<path class="st0" d="M504,666.9c3.2,0,5.8,2.1,5.8,5.4c0,3.3-2.6,5.4-5.8,5.4c-3.2,0-5.8-2.1-5.8-5.4
			C498.2,669.1,500.8,666.9,504,666.9z M504,675c1.6,0,2.6-1.1,2.6-2.6c0-1.6-1-2.6-2.6-2.6s-2.6,1.1-2.6,2.6S502.4,675,504,675z"/>
		<path class="st0" d="M511.6,667.2h3.2v1.7l0,0c0.7-1.3,1.6-1.9,3-1.9c0.4,0,0.8,0,1.1,0.1v2.9c-0.4-0.1-0.9-0.2-1.4-0.2
			c-2.4,0-2.7,1.4-2.7,3.5v4.3h-3.2L511.6,667.2L511.6,667.2z"/>
		<path class="st0" d="M527.4,669.7h-2.8v3.5c0,1.1,0.1,1.9,1.5,1.9c0.3,0,1,0,1.3-0.3v2.7c-0.7,0.3-1.5,0.3-2.2,0.3
			c-2.1,0-3.8-0.9-3.8-3.1v-4.9h-2v-2.6h2v-3.1h3.2v3.1h2.8V669.7z"/>
		<path class="st0" d="M536.6,669.7h-2.1v-2.5h2.1v-1.8c0-2.3,0.6-4.2,4.1-4.2c0.6,0,1.3,0,1.9,0.2l-0.1,2.7c-0.4-0.1-0.7-0.2-1-0.2
			c-1,0-1.5,0.3-1.5,1.7v1.6h2.4v2.6H540v7.9h-3.2v-8H536.6z"/>
		<path class="st0" d="M548.8,666.9c3.2,0,5.8,2.1,5.8,5.4c0,3.3-2.6,5.4-5.8,5.4s-5.8-2.1-5.8-5.4
			C542.9,669.1,545.6,666.9,548.8,666.9z M548.8,675c1.6,0,2.6-1.1,2.6-2.6c0-1.6-1-2.6-2.6-2.6s-2.6,1.1-2.6,2.6
			S547.2,675,548.8,675z"/>
		<path class="st0" d="M556.4,667.2h3.2v1.7l0,0c0.7-1.3,1.6-1.9,3-1.9c0.4,0,0.8,0,1.1,0.1v2.9c-0.4-0.1-0.9-0.2-1.4-0.2
			c-2.4,0-2.7,1.4-2.7,3.5v4.3h-3.2L556.4,667.2L556.4,667.2z"/>
		<path class="st0" d="M571.9,662.5h3.3v5.6h6.5v-5.6h3.3v15.2h-3.3v-6.5h-6.5v6.5h-3.3V662.5z"/>
		<path class="st0" d="M595.8,666.1c-0.5-0.7-1.6-1-2.4-1c-0.9,0-2.2,0.4-2.2,1.6c0,2.8,7,1,7,6.3c0,3.4-2.7,5-5.8,5
			c-1.9,0-3.6-0.6-5.1-1.9l2.4-2.6c0.7,0.9,1.8,1.4,2.9,1.4c1.1,0,2.3-0.5,2.3-1.6c0-2.8-7.1-1.3-7.1-6.3c0-3.2,2.8-4.9,5.8-4.9
			c1.7,0,3.3,0.4,4.6,1.6L595.8,666.1z"/>
		<path class="st0" d="M600.5,662.5h5l3.5,9.9l0,0l3.5-9.9h5v15.2h-3.3V666l0,0l-4,11.7h-2.5l-3.8-11.7l0,0v11.7h-3.4V662.5z"/>
		<path class="st0" d="M626.3,670.2c-0.5-0.6-1.1-0.9-1.9-0.9c-0.5,0-1.2,0.2-1.2,0.9c0,1.5,5.4,0.2,5.4,4.2c0,2.6-2.6,3.4-4.8,3.4
			c-1.5,0-3-0.4-4.1-1.4l1.9-2.2c0.6,0.7,1.3,1.1,2.3,1.1c0.7,0,1.5-0.2,1.5-0.7c0-1.7-5.4-0.3-5.4-4.2c0-2.4,2.2-3.5,4.3-3.5
			c1.4,0,2.9,0.3,3.8,1.4L626.3,670.2z"/>
	</g>
	<g>
		<path class="st0" d="M484.2,570.4c2.2,0,4.2-1.1,5.4-2.9c1-1.5,1.3-3.2,0.9-4.9c-0.3-1.7-1.3-3.2-2.7-4.2
			c-1.1-0.7-2.3-1.1-3.6-1.1c-2.2,0-4.2,1.1-5.4,2.9c-0.9,1.5-1.3,3.2-0.9,4.9c0.3,1.7,1.3,3.2,2.7,4.2
			C481.7,570,482.9,570.4,484.2,570.4z M484.2,561c0.5,0,1,0.2,1.4,0.4c1.2,0.8,1.5,2.5,0.7,3.7c-0.5,0.7-1.3,1.2-2.2,1.2l0,0
			c-0.5,0-1-0.2-1.4-0.4c-1.2-0.8-1.5-2.5-0.7-3.7C482.5,561.5,483.3,561,484.2,561z"/>
		<g>
			<path class="st0" d="M567.7,581.9c1.6,0,3.1,1.3,3.1,3.1c-0.1,1.7-1.4,3.1-3.1,3.1c-1.6,0-3.1-1.3-3.1-3.1
				C564.6,583.4,565.9,581.9,567.7,581.9z M557.5,581.9c1.6,0,3.1,1.3,3.1,3.1c0.1,1.7-1.3,3.1-3.1,3.1c-1.6,0-3.1-1.3-3.1-3.1
				C554.4,583.4,555.7,581.9,557.5,581.9z"/>
			<path class="st0" d="M567.7,604.4c1.6,0,3.1,1.3,3.1,3.1c-0.1,1.8-1.4,3.1-3.1,3.1c-1.6,0-3.1-1.3-3.1-3.1
				C564.6,605.9,565.9,604.4,567.7,604.4z M557.5,604.4c1.6,0,3.1,1.3,3.1,3.1s-1.3,3.1-3.1,3.1c-1.6,0-3.1-1.3-3.1-3.1
				C554.4,605.9,555.7,604.4,557.5,604.4z"/>
			<path class="st0" d="M567.7,610.6c1.7,0,3-1.3,3.1-3.1c0-1.8-1.5-3.1-3.1-3.1c-1.8,0-3.1,1.5-3.1,3.1
				C564.6,609.3,566.1,610.6,567.7,610.6z"/>
			<path class="st0" d="M584.3,591.8v-15.1c0-3.7-3.1-6.8-6.8-6.8H518l10.1,6.8h49.5c0.6,0,0.8,0.5,0.8,0.8v15.1
				c0,0.6-0.5,0.8-0.8,0.8h-29.5l1.2,5.8h28.4c0.6,0,0.8,0.5,0.8,0.8v15.1c0,0.6-0.5,0.8-0.8,0.8h-84.9c-0.6,0-0.8-0.5-0.8-0.8V600
				c0-0.6,0.5-0.8,0.8-0.8h11.6c-0.3-0.5-0.5-1.1-0.6-1.6l-0.8-3.9c0,0-9.1,0-11.4,0c-2.8,0-4.4,2.4-4.4,2.4c-0.8,1.1-1,2.3-1,3.5
				v15.1c0,1.3,0.6,2.4,1,3.5c0.1,0.5,0.1,0.7,0,0.8c-0.8,1.1-1,2.3-1,3.5v15.1c0,3.7,3.1,6.8,6.8,6.8h84.9c3.7,0,6.8-3.1,6.8-6.8
				v-15.1c0-1.3-0.6-2.4-1-3.5c-0.1-0.5-0.1-0.7,0-0.8c0.8-1.1,1-2.3,1-3.5v-15.1c0-1.3-0.6-2.4-1-3.5c-0.1-0.5-0.1-0.7,0-0.8
				C584,594.2,584.3,593.1,584.3,591.8z M578.3,638c0,0.6-0.5,0.8-0.8,0.8h-84.9c-0.6,0-0.8-0.5-0.8-0.8v-15.1
				c0-0.6,0.5-0.8,0.8-0.8l0,0h84.9c0.6,0,0.8,0.5,0.8,0.8V638z"/>
			<circle class="st0" cx="557.5" cy="607.5" r="3.1"/>
			<path class="st0" d="M557.5,588.1c1.8,0,3.2-1.4,3.1-3.1c0-1.8-1.5-3.1-3.1-3.1c-1.8,0-3.1,1.5-3.1,3.1
				C554.4,586.8,555.9,588.1,557.5,588.1z"/>
			<path class="st0" d="M557.5,627.2c-1.8,0-3.1,1.3-3.1,3.1s1.5,3.1,3.1,3.1c1.8,0,3.2-1.4,3.1-3.1
				C560.7,628.5,559.2,627.2,557.5,627.2z"/>
			<path class="st0" d="M567.7,627.2c-1.8,0-3.1,1.3-3.1,3.1s1.5,3.1,3.1,3.1c1.7,0,3-1.4,3.1-3.1
				C570.8,628.5,569.3,627.2,567.7,627.2z"/>
			<path class="st0" d="M567.7,588.1c1.7,0,3-1.4,3.1-3.1c0-1.8-1.5-3.1-3.1-3.1c-1.8,0-3.1,1.5-3.1,3.1
				C564.6,586.8,566.1,588.1,567.7,588.1z"/>
		</g>
		<path class="st0" d="M532.9,608.5c0.2,0,0.3,0,0.5-0.1l10.8-2.2c0.7-0.1,1.2-0.5,1.6-1.1c0.4-0.6,0.5-1.3,0.4-1.9l-2-10.1
			c-0.1-0.7-0.5-1.3-1.1-1.6l-31.5-21.4c0.7-8.4-3.1-16.6-10-21.2c-3.7-2.5-8-3.8-12.4-3.8c-7.5,0-14.6,3.8-18.7,10.3
			c-6.8,10.6-4,24.9,6.2,31.8c3.7,2.5,8,3.8,12.4,3.8c4.2,0,8.4-1.2,11.9-3.4l5.1,3.4l1.2,6.1c0.1,0.7,0.5,1.3,1.1,1.6
			c0.4,0.3,0.9,0.4,1.4,0.4c0.2,0,0.3,0,0.5,0l5.4-1.1l1.1,5.5c0.1,0.7,0.5,1.3,1.1,1.6c0.4,0.3,0.9,0.4,1.4,0.4c0.2,0,0.3,0,0.5,0
			l6-1.2l5.6,3.8C531.9,608.3,532.4,608.5,532.9,608.5z M533.4,603.2l-5.6-3.8c-0.4-0.3-0.9-0.4-1.4-0.4c-0.2,0-0.3,0-0.5,0.1
			l-4.6,0.9l-0.9-4.7c-0.1-0.7-0.5-1.3-1.1-1.6l-1-0.7c-0.4-0.3-0.9-0.4-1.4-0.4c-0.2,0-0.3,0-0.5,0.1l-4.6,0.9l-0.9-4.7
			c-0.1-0.7-0.5-1.3-1.1-1.6l-7-4.7c-0.5-0.4-1.1-0.7-1.7-0.7c-0.5,0-1,0.2-1.5,0.5c-3,2.3-6.6,3.5-10.5,3.5c-3.4,0-6.7-1-9.6-2.9
			c-3.8-2.6-6.5-6.6-7.4-11.3s0-9.4,2.5-13.4c3.2-4.9,8.7-8,14.5-8c3.4,0,6.7,1,9.6,2.9c5.7,3.9,8.7,10.9,7.5,17.8
			c-0.2,1.2,0.4,2.3,1.5,2.8l31.6,21.4l1.3,6.5L533.4,603.2z"/>
	</g>
</g>
<g>
	<path class="st0" d="M644.5,273.8c-0.7-0.8-1.6-1.2-2.9-1.2c-2.5,0-4.4,2-4.4,4.9c0,2.8,1.9,4.9,4.3,4.9c1.3,0,2.4-0.6,3.1-1.6
		l2.8,2.1c-1.3,1.8-3.4,2.6-5.5,2.6c-4.7,0-8.2-3.1-8.2-8c0-4.8,3.4-8,8.2-8c1.7,0,3.8,0.6,5.1,2.2L644.5,273.8z"/>
	<path class="st0" d="M658.7,283.2c-1,1.3-2.7,2-4.4,2c-3.2,0-5.8-2.1-5.8-5.4s2.6-5.4,5.8-5.4c3,0,4.9,2.1,4.9,5.4v1h-7.4
		c0.3,1.2,1.2,2,2.4,2c1,0,1.7-0.5,2.3-1.3L658.7,283.2z M656,278.7c0-1.1-0.8-2-2-2c-1.4,0-2.2,1-2.3,2H656z"/>
	<path class="st0" d="M661.1,274.7h3.2v1.7l0,0c0.7-1.3,1.6-1.9,3-1.9c0.4,0,0.8,0,1.1,0.1v2.9c-0.4-0.1-0.9-0.2-1.4-0.2
		c-2.4,0-2.7,1.4-2.7,3.5v4.3h-3.2L661.1,274.7L661.1,274.7z"/>
	<path class="st0" d="M677,277.2h-2.8v3.5c0,1.1,0.1,1.9,1.5,1.9c0.3,0,1,0,1.3-0.3v2.7c-0.7,0.3-1.5,0.3-2.2,0.3
		c-2.1,0-3.8-0.9-3.8-3.1v-4.9h-2v-2.6h2v-3.1h3.2v3.1h2.8V277.2z"/>
	<path class="st0" d="M680.2,269.4c1,0,1.9,0.8,1.9,1.9c0,1-0.8,1.9-1.9,1.9c-1,0-1.9-0.8-1.9-1.9
		C678.4,270.3,679.2,269.4,680.2,269.4z M678.6,274.7h3.2V285h-3.2V274.7z"/>
	<path class="st0" d="M685.3,277.2h-2.1v-2.6h2.1v-1.8c0-2.3,0.6-4.2,4.1-4.2c0.6,0,1.3,0,1.9,0.2l-0.1,2.7c-0.4-0.1-0.7-0.2-1-0.2
		c-1,0-1.5,0.3-1.5,1.7v1.6h2.4v2.6h-2.6v7.9h-3.2L685.3,277.2L685.3,277.2z M693.7,269.4c1,0,1.9,0.8,1.9,1.9c0,1-0.8,1.9-1.9,1.9
		c-1,0-1.9-0.8-1.9-1.9C691.9,270.3,692.7,269.4,693.7,269.4z M692.1,274.7h3.2V285h-3.2V274.7z"/>
	<path class="st0" d="M704.8,278c-0.3-0.4-0.9-0.8-1.6-0.8c-1.6,0-2.6,1.1-2.6,2.6s1,2.6,2.6,2.6c0.7,0,1.2-0.4,1.6-0.8l2.1,2.2
		c-1,1-2.5,1.4-3.7,1.4c-3.2,0-5.8-2.1-5.8-5.4s2.6-5.4,5.8-5.4c1.2,0,2.7,0.4,3.7,1.4L704.8,278z"/>
	<path class="st0" d="M714.6,283.7L714.6,283.7c-0.7,1.1-2,1.6-3.3,1.6c-1.9,0-3.7-1.1-3.7-3.2c0-3.6,4.3-3.6,7-3.6
		c0-1.1-0.9-1.9-2-1.9c-1,0-1.9,0.5-2.6,1.2l-1.7-1.7c1.2-1.1,2.9-1.7,4.6-1.7c3.7,0,4.7,1.9,4.7,5.4v5.3h-2.9L714.6,283.7
		L714.6,283.7L714.6,283.7z M713.7,280.5c-1,0-3.2,0.1-3.2,1.5c0,0.8,0.8,1.1,1.5,1.1c1.3,0,2.4-0.7,2.4-1.9v-0.7H713.7z"/>
	<path class="st0" d="M726.6,277.2h-2.8v3.5c0,1.1,0.1,1.9,1.5,1.9c0.3,0,1,0,1.3-0.3v2.7c-0.7,0.3-1.5,0.3-2.2,0.3
		c-2.1,0-3.8-0.9-3.8-3.1v-4.9h-2v-2.6h2v-3.1h3.2v3.1h2.8V277.2z"/>
	<path class="st0" d="M738.1,283.2c-1,1.3-2.7,2-4.4,2c-3.2,0-5.8-2.1-5.8-5.4s2.6-5.4,5.8-5.4c3,0,4.9,2.1,4.9,5.4v1h-7.4
		c0.3,1.2,1.2,2,2.4,2c1,0,1.7-0.5,2.3-1.3L738.1,283.2z M735.4,278.7c0-1.1-0.8-2-2-2c-1.4,0-2.2,1-2.3,2H735.4z"/>
	<path class="st0" d="M752.8,277.7c-0.5-0.6-1.1-0.9-1.9-0.9c-0.5,0-1.2,0.2-1.2,0.9c0,1.5,5.4,0.2,5.4,4.2c0,2.6-2.6,3.4-4.8,3.4
		c-1.5,0-3-0.4-4.1-1.4l1.9-2.2c0.6,0.7,1.3,1.1,2.3,1.1c0.7,0,1.5-0.2,1.5-0.7c0-1.7-5.4-0.3-5.4-4.2c0-2.4,2.2-3.5,4.3-3.5
		c1.4,0,2.9,0.3,3.8,1.4L752.8,277.7z"/>
	<path class="st0" d="M764,277.2h-2.8v3.5c0,1.1,0.1,1.9,1.5,1.9c0.3,0,1,0,1.3-0.3v2.7c-0.7,0.3-1.5,0.3-2.2,0.3
		c-2.1,0-3.8-0.9-3.8-3.1v-4.9h-2v-2.6h2v-3.1h3.2v3.1h2.8V277.2z"/>
	<path class="st0" d="M772.1,283.7L772.1,283.7c-0.7,1.1-2,1.6-3.3,1.6c-1.9,0-3.7-1.1-3.7-3.2c0-3.6,4.3-3.6,7-3.6
		c0-1.1-0.9-1.9-2-1.9c-1,0-1.9,0.5-2.6,1.2l-1.7-1.7c1.2-1.1,2.9-1.7,4.6-1.7c3.7,0,4.7,1.9,4.7,5.4v5.3h-2.9L772.1,283.7
		L772.1,283.7L772.1,283.7z M771.3,280.5c-1,0-3.2,0.1-3.2,1.5c0,0.8,0.8,1.1,1.5,1.1c1.3,0,2.4-0.7,2.4-1.9v-0.7H771.3z"/>
	<path class="st0" d="M784.2,277.2h-2.8v3.5c0,1.1,0.1,1.9,1.5,1.9c0.3,0,1,0,1.3-0.3v2.7c-0.7,0.3-1.5,0.3-2.2,0.3
		c-2.1,0-3.8-0.9-3.8-3.1v-4.9h-2v-2.6h2v-3.1h3.2v3.1h2.8V277.2z"/>
	<path class="st0" d="M795.9,285h-3.1v-1.4l0,0c-0.4,0.8-1.5,1.7-3,1.7c-3.2,0-3.8-2.1-3.8-4.9v-5.7h3.2v5.1c0,1.2,0,2.7,1.7,2.7
		s1.9-1.3,1.9-2.6v-5.2h3.2V285H795.9z"/>
	<path class="st0" d="M804,277.7c-0.5-0.6-1.1-0.9-1.9-0.9c-0.5,0-1.2,0.2-1.2,0.9c0,1.5,5.4,0.2,5.4,4.2c0,2.6-2.6,3.4-4.8,3.4
		c-1.4,0-3-0.4-4.1-1.4l1.9-2.2c0.6,0.7,1.3,1.1,2.3,1.1c0.7,0,1.4-0.2,1.4-0.7c0-1.7-5.4-0.3-5.4-4.2c0-2.4,2.2-3.5,4.3-3.5
		c1.4,0,2.9,0.3,3.8,1.4L804,277.7z"/>
	<path class="st0" d="M670.4,300.3h3.5l2.6,7l0,0l2.4-7h3.2l-4.1,10.5h-3.4L670.4,300.3z"/>
	<path class="st0" d="M689.9,309.5L689.9,309.5c-0.7,1.1-2,1.6-3.3,1.6c-1.9,0-3.7-1.1-3.7-3.2c0-3.6,4.3-3.6,7-3.6
		c0-1.1-0.9-1.9-2-1.9c-1,0-1.9,0.5-2.6,1.2l-1.7-1.7c1.2-1.1,2.9-1.7,4.6-1.7c3.7,0,4.7,1.9,4.7,5.4v5.3H690L689.9,309.5
		L689.9,309.5L689.9,309.5z M689.1,306.3c-1,0-3.2,0.1-3.2,1.5c0,0.8,0.8,1.1,1.5,1.1c1.3,0,2.4-0.7,2.4-1.9v-0.7H689.1z"/>
	<path class="st0" d="M694.9,294.6h3.2v16.2h-3.2V294.6z"/>
	<path class="st0" d="M702.1,295.2c1,0,1.9,0.8,1.9,1.9c0,1-0.8,1.9-1.9,1.9c-1,0-1.9-0.8-1.9-1.9
		C700.3,296,701.1,295.2,702.1,295.2z M700.5,300.3h3.2v10.5h-3.2V300.3z"/>
	<path class="st0" d="M717,310.8h-3v-1.4l0,0c-0.5,0.7-1.7,1.6-3.2,1.6c-3.1,0-5.1-2.2-5.1-5.4c0-2.9,1.8-5.5,4.7-5.5
		c1.3,0,2.6,0.4,3.3,1.4l0,0v-6.9h3.2L717,310.8L717,310.8z M711.4,303c-1.6,0-2.6,1.1-2.6,2.6c0,1.6,1,2.6,2.6,2.6s2.6-1.1,2.6-2.6
		S713,303,711.4,303z"/>
	<path class="st0" d="M726.1,309.5L726.1,309.5c-0.7,1.1-2,1.6-3.3,1.6c-1.9,0-3.7-1.1-3.7-3.2c0-3.6,4.3-3.6,7-3.6
		c0-1.1-0.9-1.9-2-1.9c-1,0-1.9,0.5-2.6,1.2l-1.7-1.7c1.2-1.1,2.9-1.7,4.6-1.7c3.7,0,4.7,1.9,4.7,5.4v5.3h-2.9L726.1,309.5
		L726.1,309.5L726.1,309.5z M725.3,306.3c-1,0-3.2,0.1-3.2,1.5c0,0.8,0.8,1.1,1.5,1.1c1.3,0,2.4-0.7,2.4-1.9v-0.7H725.3z"/>
	<path class="st0" d="M738.2,303h-2.8v3.5c0,1.1,0.1,1.9,1.5,1.9c0.3,0,1,0,1.3-0.3v2.7c-0.7,0.3-1.5,0.3-2.2,0.3
		c-2.1,0-3.8-0.9-3.8-3.1v-4.9h-2v-2.6h2v-3.1h3.2v3.1h2.8V303z"/>
	<path class="st0" d="M741.4,295.2c1,0,1.9,0.8,1.9,1.9c0,1-0.8,1.9-1.9,1.9c-1,0-1.9-0.8-1.9-1.9
		C739.6,296,740.4,295.2,741.4,295.2z M739.8,300.3h3.2v10.5h-3.2V300.3z"/>
	<path class="st0" d="M750.8,300.1c3.2,0,5.8,2.1,5.8,5.4s-2.6,5.4-5.8,5.4s-5.8-2.1-5.8-5.4C744.9,302.3,747.6,300.1,750.8,300.1z
		 M750.8,308.2c1.6,0,2.6-1.1,2.6-2.6c0-1.6-1-2.6-2.6-2.6s-2.6,1.1-2.6,2.6C748.2,307.2,749.2,308.2,750.8,308.2z"/>
	<path class="st0" d="M758.4,300.3h3.1v1.4l0,0c0.4-0.8,1.5-1.7,3-1.7c3.2,0,3.8,2.1,3.8,4.9v5.7h-3.2v-5.1c0-1.2,0-2.7-1.7-2.7
		s-1.9,1.3-1.9,2.6v5.2h-3.2v-10.4h0.1V300.3z"/>
</g>
<g>
	<g>
		<circle class="st0" cx="795.6" cy="240.5" r="4.1"/>
		<path class="st0" d="M793.1,233.8c-0.8,0-1.4-0.6-1.4-1.4l-0.6-10.9c0-0.4,0.1-0.8,0.4-1.1c0.3-0.3,0.7-0.4,1-0.4h4.9
			c0.4,0,0.8,0.2,1,0.4c0.3,0.3,0.4,0.7,0.4,1.1l-0.6,10.9c0,0.8-0.7,1.4-1.4,1.4H793.1z"/>
		<path class="st0" d="M795,208.9c-12.7,0-22.9,10.3-22.9,22.9s10.3,22.9,22.9,22.9s22.9-10.3,22.9-22.9S807.6,208.9,795,208.9z
			 M795,249.1c-9.5,0-17.1-7.6-17.1-17.1s7.6-17.1,17.1-17.1s17.1,7.6,17.1,17.1C812.1,241.4,804.4,249.1,795,249.1z"/>
	</g>
	<path class="st0" d="M646.4,208.9c-12.7,0-22.9,10.3-22.9,22.9s10.3,22.9,22.9,22.9s22.9-10.3,22.9-22.9
		C669.4,219.3,659.1,208.9,646.4,208.9z M646.4,249.1c-9.5,0-17.1-7.6-17.1-17.1s7.6-17.1,17.1-17.1s17.1,7.6,17.1,17.1
		C663.6,241.4,655.9,249.1,646.4,249.1z"/>
	<path class="st0" d="M643.8,241.5c-0.4,0-0.7-0.1-1-0.4l-7.2-7.3c-0.6-0.6-0.5-1.5,0-2l2.5-2.5c0.3-0.3,0.6-0.4,1-0.4
		s0.7,0.1,1,0.4l3.8,3.8l9.1-9.1c0.3-0.3,0.6-0.4,1-0.4s0.7,0.1,1,0.4l2.5,2.5c0.3,0.3,0.4,0.6,0.4,1s-0.1,0.7-0.4,1L644.9,241
		C644.5,241.3,644.2,241.5,643.8,241.5z"/>
	<path class="st0" d="M745.4,208.9c-12.7,0-22.9,10.3-22.9,22.9s10.3,22.9,22.9,22.9s22.9-10.3,22.9-22.9S758.1,208.9,745.4,208.9z
		 M745.4,249.1c-9.5,0-17.1-7.6-17.1-17.1s7.6-17.1,17.1-17.1s17.1,7.6,17.1,17.1C762.5,241.4,754.9,249.1,745.4,249.1z"/>
	<path class="st0" d="M736.9,235.1c-1.1,0-2.1-1-2.1-2.3v-1.9c0-1.2,0.9-2.3,2.1-2.3h17.2c1.1,0,2.1,1,2.1,2.3v1.9
		c0,1.2-0.9,2.3-2.1,2.3H736.9z"/>
	<path class="st0" d="M695.9,254.9c12.7,0,22.9-10.3,22.9-22.9c0-12.7-10.3-22.9-22.9-22.9S673,219.3,673,232
		C673,244.6,683.3,254.9,695.9,254.9z M695.9,214.8c9.5,0,17.1,7.6,17.1,17.1s-7.6,17.1-17.1,17.1s-17.1-7.6-17.1-17.1
		C678.8,222.5,686.6,214.8,695.9,214.8z"/>
	<path class="st0" d="M701.6,240.9c-0.6,0-1.1-0.2-1.5-0.6l-4.1-4.1l-4.1,4.1c-0.4,0.4-0.9,0.6-1.5,0.6s-1.1-0.2-1.5-0.6l-1.2-1.2
		c-0.4-0.4-0.6-0.9-0.6-1.5s0.2-1.1,0.6-1.5l4.1-4.1l-4.1-4.1c-0.4-0.4-0.6-0.9-0.6-1.5s0.2-1.1,0.6-1.5l1.2-1.2
		c0.4-0.4,0.9-0.6,1.5-0.6s1.1,0.2,1.5,0.6l4.1,4.1l4.1-4.1c0.4-0.4,0.9-0.6,1.5-0.6s1.1,0.2,1.5,0.6l1.2,1.2
		c0.4,0.4,0.6,0.9,0.6,1.5s-0.2,1.1-0.6,1.5l-4.1,4.1l4.1,4.1c0.4,0.4,0.6,0.9,0.6,1.5s-0.2,1.1-0.6,1.5l-1.2,1.2
		C702.7,240.7,702.2,240.9,701.6,240.9z"/>
</g>
<g>
	<g>
		<path class="st0" d="M640.5,486h5.8c3.1,0,5.7,1.1,5.7,4.6c0,2.1-1.1,3.8-3.3,4.1l3.8,6.4h-4l-3.2-6h-1.6v6h-3.3L640.5,486
			L640.5,486z M643.8,492.3h2c1.2,0,2.8,0,2.8-1.7c0-1.5-1.4-1.7-2.6-1.7h-2.2V492.3z"/>
		<path class="st0" d="M663.8,499.4c-1,1.3-2.7,2-4.4,2c-3.2,0-5.8-2.1-5.8-5.4s2.6-5.4,5.8-5.4c3,0,4.9,2.1,4.9,5.4v1h-7.5
			c0.3,1.2,1.2,2,2.4,2c1,0,1.7-0.5,2.3-1.3L663.8,499.4z M661.1,494.8c0-1.1-0.8-2-2-2c-1.4,0-2.2,1-2.3,2H661.1z"/>
		<path class="st0" d="M677.2,506.1H674v-6l0,0c-0.7,1-2,1.4-3.3,1.4c-2.9,0-4.7-2.6-4.7-5.5c0-3.1,2-5.4,5.1-5.4
			c1.4,0,2.7,0.9,3.2,1.6l0,0v-1.4h2.9V506.1z M671.7,493.3c-1.6,0-2.6,1.1-2.6,2.6c0,1.6,1,2.6,2.6,2.6s2.6-1.1,2.6-2.6
			C674.2,494.4,673.3,493.3,671.7,493.3z"/>
		<path class="st0" d="M689.8,501.2h-3.1v-1.4l0,0c-0.4,0.8-1.5,1.7-3,1.7c-3.2,0-3.8-2.1-3.8-4.9v-5.7h3.2v5.1c0,1.2,0,2.7,1.7,2.7
			s1.9-1.3,1.9-2.6v-5.2h3.2v10.4h-0.1V501.2z"/>
		<path class="st0" d="M702,499.4c-1,1.3-2.7,2-4.4,2c-3.2,0-5.8-2.1-5.8-5.4s2.6-5.4,5.8-5.4c3,0,4.9,2.1,4.9,5.4v1H695
			c0.3,1.2,1.2,2,2.4,2c1,0,1.7-0.5,2.3-1.3L702,499.4z M699.3,494.8c0-1.1-0.8-2-2-2c-1.4,0-2.2,1-2.3,2H699.3z"/>
		<path class="st0" d="M710.3,493.8c-0.5-0.6-1.1-0.9-1.9-0.9c-0.5,0-1.2,0.2-1.2,0.9c0,1.5,5.4,0.2,5.4,4.2c0,2.6-2.6,3.4-4.8,3.4
			c-1.5,0-3-0.4-4.1-1.4l1.9-2.2c0.6,0.7,1.3,1.1,2.3,1.1c0.7,0,1.5-0.2,1.5-0.7c0-1.7-5.4-0.3-5.4-4.2c0-2.4,2.2-3.5,4.3-3.5
			c1.4,0,2.9,0.3,3.8,1.4L710.3,493.8z"/>
		<path class="st0" d="M721.4,493.3h-2.8v3.5c0,1.1,0.1,1.9,1.5,1.9c0.3,0,1,0,1.3-0.3v2.7c-0.7,0.3-1.5,0.3-2.2,0.3
			c-2.1,0-3.8-0.9-3.8-3.1v-5h-2v-2.6h2v-3.1h3.2v3.1h2.8V493.3z"/>
		<path class="st0" d="M728.9,493.8c-0.5-0.6-1.1-0.9-1.9-0.9c-0.5,0-1.2,0.2-1.2,0.9c0,1.5,5.4,0.2,5.4,4.2c0,2.6-2.6,3.4-4.8,3.4
			c-1.5,0-3-0.4-4.1-1.4l1.9-2.2c0.6,0.7,1.3,1.1,2.3,1.1c0.7,0,1.5-0.2,1.5-0.7c0-1.7-5.4-0.3-5.4-4.2c0-2.4,2.2-3.5,4.3-3.5
			c1.4,0,2.9,0.3,3.8,1.4L728.9,493.8z"/>
		<path class="st0" d="M751,497.6l3.4,3.6h-4.1l-1.3-1.4c-1.2,1.3-2.6,1.8-4.4,1.8c-2.7,0-5.4-1.5-5.4-4.5c0-1.9,1.4-3.5,3.2-4.1
			c-1-1.1-1.7-1.9-1.7-3.4c0-2.7,2.3-3.8,4.7-3.8c2.3,0,4.4,1.2,4.4,3.7c0,1.8-1.3,3.1-2.8,3.9l1.9,2.1l1.5-2h3.7L751,497.6z
			 M744.2,494.7c-0.8,0.5-1.7,1-1.7,2.2c0,1.1,1,1.9,2,1.9s1.7-0.5,2.4-1.1L744.2,494.7z M743.8,489.6c0,0.7,0.7,1.4,1.3,1.9
			c0.7-0.4,1.7-1.1,1.7-1.9c0-0.9-0.7-1.4-1.5-1.4C744.4,488.2,743.8,488.8,743.8,489.6z"/>
		<path class="st0" d="M767.8,493.8c-0.5-0.6-1.1-0.9-1.9-0.9c-0.5,0-1.2,0.2-1.2,0.9c0,1.5,5.4,0.2,5.4,4.2c0,2.6-2.6,3.4-4.8,3.4
			c-1.4,0-3-0.4-4.1-1.4l1.9-2.2c0.6,0.7,1.3,1.1,2.3,1.1c0.7,0,1.4-0.2,1.4-0.7c0-1.7-5.4-0.3-5.4-4.2c0-2.4,2.2-3.5,4.3-3.5
			c1.4,0,2.9,0.3,3.8,1.4L767.8,493.8z"/>
		<path class="st0" d="M779,493.3h-2.8v3.5c0,1.1,0.1,1.9,1.5,1.9c0.3,0,1,0,1.3-0.3v2.7c-0.7,0.3-1.5,0.3-2.2,0.3
			c-2.1,0-3.8-0.9-3.8-3.1v-5h-2v-2.6h2v-3.1h3.2v3.1h2.8V493.3z"/>
		<path class="st0" d="M787.1,499.9L787.1,499.9c-0.7,1.1-2,1.6-3.3,1.6c-1.9,0-3.7-1.1-3.7-3.2c0-3.6,4.3-3.6,7-3.6
			c0-1.1-0.9-1.9-2-1.9c-1,0-1.9,0.5-2.6,1.2l-1.7-1.7c1.2-1.1,2.9-1.7,4.6-1.7c3.7,0,4.7,1.9,4.7,5.4v5.3h-2.9L787.1,499.9
			L787.1,499.9L787.1,499.9z M786.3,496.6c-1,0-3.2,0.1-3.2,1.5c0,0.8,0.8,1.1,1.5,1.1c1.3,0,2.4-0.7,2.4-1.9v-0.7H786.3
			L786.3,496.6z"/>
		<path class="st0" d="M799.2,493.3h-2.8v3.5c0,1.1,0.1,1.9,1.5,1.9c0.3,0,1,0,1.3-0.3v2.7c-0.7,0.3-1.5,0.3-2.2,0.3
			c-2.1,0-3.8-0.9-3.8-3.1v-5h-2v-2.6h2v-3.1h3.2v3.1h2.8V493.3z"/>
		<path class="st0" d="M810.9,501.2h-3.1v-1.4l0,0c-0.4,0.8-1.5,1.7-3,1.7c-3.2,0-3.8-2.1-3.8-4.9v-5.7h3.2v5.1c0,1.2,0,2.7,1.7,2.7
			s1.9-1.3,1.9-2.6v-5.2h3.2v10.4h-0.1V501.2z"/>
		<path class="st0" d="M819,493.8c-0.5-0.6-1.1-0.9-1.9-0.9c-0.5,0-1.2,0.2-1.2,0.9c0,1.5,5.4,0.2,5.4,4.2c0,2.6-2.6,3.4-4.8,3.4
			c-1.5,0-3-0.4-4.1-1.4l1.9-2.2c0.6,0.7,1.3,1.1,2.3,1.1c0.7,0,1.5-0.2,1.5-0.7c0-1.7-5.4-0.3-5.4-4.2c0-2.4,2.2-3.5,4.3-3.5
			c1.4,0,2.9,0.3,3.8,1.4L819,493.8z"/>
		<path class="st0" d="M640.2,526.9h-3.1v-1.4l0,0c-0.4,0.8-1.5,1.7-3,1.7c-3.2,0-3.8-2.1-3.8-4.9v-5.7h3.2v5.1c0,1.2,0,2.7,1.7,2.7
			s1.9-1.3,1.9-2.6v-5.2h3.2V527L640.2,526.9L640.2,526.9z"/>
		<path class="st0" d="M642.7,516.6h2.9v1.4l0,0c0.5-0.7,1.7-1.6,3.2-1.6c3.1,0,5.1,2.2,5.1,5.4c0,2.9-1.8,5.5-4.7,5.5
			c-1.3,0-2.6-0.4-3.3-1.4l0,0v6h-3.2V516.6z M648.2,524.4c1.6,0,2.6-1.1,2.6-2.6c0-1.6-1-2.6-2.6-2.6s-2.6,1.1-2.6,2.6
			C645.7,523.3,646.6,524.4,648.2,524.4z"/>
		<path class="st0" d="M666.8,526.9h-2.9v-1.4l0,0c-0.5,0.7-1.7,1.6-3.2,1.6c-3.1,0-5.1-2.2-5.1-5.4c0-2.9,1.8-5.5,4.7-5.5
			c1.3,0,2.6,0.4,3.3,1.4l0,0v-6.9h3.2V526.9z M661.3,519.1c-1.6,0-2.6,1.1-2.6,2.6c0,1.6,1,2.6,2.6,2.6s2.6-1.1,2.6-2.6
			C663.9,520.2,662.9,519.1,661.3,519.1z"/>
		<path class="st0" d="M676,525.6L676,525.6c-0.7,1.1-2,1.6-3.3,1.6c-1.9,0-3.7-1.1-3.7-3.2c0-3.6,4.3-3.6,7-3.6
			c0-1.1-0.9-1.9-2-1.9c-1,0-1.9,0.5-2.6,1.2l-1.7-1.7c1.2-1.1,2.9-1.7,4.6-1.7c3.7,0,4.7,1.9,4.7,5.4v5.3h-2.9L676,525.6L676,525.6
			L676,525.6z M675.2,522.4c-1,0-3.2,0.1-3.2,1.5c0,0.8,0.8,1.1,1.5,1.1c1.3,0,2.4-0.7,2.4-1.9v-0.7L675.2,522.4L675.2,522.4z"/>
		<path class="st0" d="M688.1,519.1h-2.8v3.5c0,1.1,0.1,1.9,1.5,1.9c0.3,0,1,0,1.3-0.3v2.7c-0.7,0.3-1.5,0.3-2.2,0.3
			c-2.1,0-3.8-0.9-3.8-3.1v-4.9h-2v-2.6h2v-3.1h3.2v3.1h2.8V519.1z"/>
		<path class="st0" d="M699.6,525.1c-1,1.3-2.7,2-4.4,2c-3.2,0-5.8-2.1-5.8-5.4c0-3.3,2.6-5.4,5.8-5.4c3,0,4.9,2.1,4.9,5.4v1h-7.4
			c0.3,1.2,1.2,2,2.4,2c1,0,1.7-0.5,2.3-1.3L699.6,525.1z M696.8,520.6c0-1.1-0.8-2-2-2c-1.4,0-2.2,1-2.3,2H696.8z"/>
		<path class="st0" d="M708.3,516.6h3.1v1.4l0,0c0.4-0.8,1.5-1.7,3-1.7c3.2,0,3.8,2.1,3.8,4.9v5.7h-3.1v-5.1c0-1.2,0-2.7-1.7-2.7
			s-1.9,1.3-1.9,2.6v5.2h-3.2L708.3,516.6L708.3,516.6z"/>
		<path class="st0" d="M726,516.3c3.2,0,5.8,2.1,5.8,5.4c0,3.3-2.6,5.4-5.8,5.4s-5.8-2.1-5.8-5.4C720.3,518.4,722.8,516.3,726,516.3
			z M726,524.4c1.6,0,2.6-1.1,2.6-2.6c0-1.6-1-2.6-2.6-2.6s-2.6,1.1-2.6,2.6C723.5,523.3,724.4,524.4,726,524.4z"/>
		<path class="st0" d="M740.8,519.1H738v3.5c0,1.1,0.1,1.9,1.5,1.9c0.3,0,1,0,1.3-0.3v2.7c-0.7,0.3-1.5,0.3-2.2,0.3
			c-2.1,0-3.8-0.9-3.8-3.1v-4.9h-2v-2.6h2v-3.1h3.2v3.1h2.8V519.1z"/>
		<path class="st0" d="M744.1,511.3c1,0,1.9,0.8,1.9,1.9c0,1-0.8,1.9-1.9,1.9c-1,0-1.9-0.8-1.9-1.9
			C742.2,512.2,743,511.3,744.1,511.3z M742.5,516.6h3.2V527h-3.2V516.6z"/>
		<path class="st0" d="M749.2,519.1h-2.1v-2.6h2.1v-1.8c0-2.3,0.6-4.2,4.1-4.2c0.6,0,1.3,0,1.9,0.2l-0.1,2.7c-0.4-0.1-0.7-0.2-1-0.2
			c-1,0-1.5,0.3-1.5,1.7v1.6h2.4v2.6h-2.6v7.9h-3.2L749.2,519.1L749.2,519.1z M757.6,511.3c1,0,1.9,0.8,1.9,1.9c0,1-0.8,1.9-1.9,1.9
			c-1,0-1.9-0.8-1.9-1.9C755.7,512.2,756.6,511.3,757.6,511.3z M756,516.6h3.2V527H756V516.6z"/>
		<path class="st0" d="M768.6,519.9c-0.3-0.4-0.9-0.8-1.6-0.8c-1.6,0-2.6,1.1-2.6,2.6c0,1.6,1,2.6,2.6,2.6c0.7,0,1.2-0.4,1.6-0.8
			l2.1,2.2c-1,1-2.5,1.4-3.7,1.4c-3.2,0-5.8-2.1-5.8-5.4c0-3.3,2.6-5.4,5.8-5.4c1.2,0,2.7,0.4,3.7,1.4L768.6,519.9z"/>
		<path class="st0" d="M778.5,525.6L778.5,525.6c-0.7,1.1-2,1.6-3.3,1.6c-1.9,0-3.7-1.1-3.7-3.2c0-3.6,4.3-3.6,7-3.6
			c0-1.1-0.9-1.9-2-1.9c-1,0-1.9,0.5-2.6,1.2l-1.7-1.7c1.2-1.1,2.9-1.7,4.6-1.7c3.7,0,4.7,1.9,4.7,5.4v5.3h-2.9L778.5,525.6
			L778.5,525.6L778.5,525.6z M777.7,522.4c-1,0-3.2,0.1-3.2,1.5c0,0.8,0.8,1.1,1.5,1.1c1.3,0,2.4-0.7,2.4-1.9v-0.7L777.7,522.4
			L777.7,522.4z"/>
		<path class="st0" d="M790.5,519.1h-2.9v3.5c0,1.1,0.1,1.9,1.5,1.9c0.3,0,1,0,1.3-0.3v2.7c-0.7,0.3-1.5,0.3-2.2,0.3
			c-2.1,0-3.8-0.9-3.8-3.1v-4.9h-2v-2.6h2v-3.1h3.2v3.1h2.8v2.5L790.5,519.1L790.5,519.1z"/>
		<path class="st0" d="M793.8,511.3c1,0,1.9,0.8,1.9,1.9c0,1-0.8,1.9-1.9,1.9c-1,0-1.9-0.8-1.9-1.9
			C792,512.2,792.8,511.3,793.8,511.3z M792.2,516.6h3.2V527h-3.2V516.6z"/>
		<path class="st0" d="M803.1,516.3c3.2,0,5.8,2.1,5.8,5.4c0,3.3-2.6,5.4-5.8,5.4s-5.8-2.1-5.8-5.4
			C797.3,518.4,799.9,516.3,803.1,516.3z M803.1,524.4c1.6,0,2.6-1.1,2.6-2.6c0-1.6-1-2.6-2.6-2.6s-2.6,1.1-2.6,2.6
			C800.5,523.3,801.5,524.4,803.1,524.4z"/>
		<path class="st0" d="M810.8,516.6h3.1v1.4l0,0c0.4-0.8,1.5-1.7,3-1.7c3.2,0,3.8,2.1,3.8,4.9v5.7h-3.2v-5.1c0-1.2,0-2.7-1.7-2.7
			s-1.9,1.3-1.9,2.6v5.2h-3.1L810.8,516.6L810.8,516.6z"/>
		<path class="st0" d="M829,519.6c-0.5-0.6-1.1-0.9-1.9-0.9c-0.5,0-1.2,0.2-1.2,0.9c0,1.5,5.4,0.2,5.4,4.2c0,2.6-2.6,3.4-4.8,3.4
			c-1.5,0-3-0.4-4.1-1.4l1.9-2.2c0.6,0.7,1.3,1.1,2.3,1.1c0.7,0,1.5-0.2,1.5-0.7c0-1.7-5.4-0.3-5.4-4.2c0-2.4,2.2-3.5,4.3-3.5
			c1.4,0,2.9,0.3,3.8,1.4L829,519.6z"/>
	</g>
	<g>
		<path class="st0" d="M727.6,470.9c-5.5,0-10.1-4.4-10.3-9.9h20.4C737.7,466.4,733.2,470.9,727.6,470.9z M695.8,455.4
			c-3.1,0-4.9-2.5-4.9-4.9c0-1.2,0.4-2.4,1.3-3.3l0.6-0.7c3.2-3.4,8.7-9.2,8.7-25.2c0-12.4,8.7-22.8,20.9-25.4l0.3-0.1v-3.7
			c0-2.7,2.2-4.9,4.9-4.9s4.9,2.2,4.9,4.9v3.7l0.3,0.1c12.3,2.5,20.9,13,20.9,25.4c0,16.1,5.4,21.8,8.7,25.2l0.6,0.7
			c0.9,0.9,1.3,2.1,1.3,3.3c0,2.4-1.9,4.9-4.9,4.9H695.8z M727.6,402.2c-10.5,0-18.9,8.6-18.9,18.9c0,11.3-2.4,19.8-7.3,26.4
			l-0.5,0.6h53.5l-0.5-0.6c-4.9-6.4-7.3-15.1-7.3-26.3C746.7,410.7,738.1,402.2,727.6,402.2z"/>
	</g>
</g>
<g>
	<g>
		<path class="st0" d="M89.7,505.5h2.8l6.6,15.2h-3.9l-1.3-3.2H88l-1.3,3.2H83L89.7,505.5z M90.9,510l-1.8,4.7h3.7L90.9,510z"/>
		<path class="st0" d="M110.3,520.7h-3.1v-1.4l0,0c-0.4,0.8-1.5,1.7-3,1.7c-3.2,0-3.8-2.1-3.8-4.9v-5.7h3.2v5.1c0,1.2,0,2.7,1.7,2.7
			s1.9-1.3,1.9-2.6v-5.2h3.2L110.3,520.7L110.3,520.7L110.3,520.7z"/>
		<path class="st0" d="M119.6,512.9h-2.8v3.5c0,1.1,0.1,1.9,1.5,1.9c0.3,0,1,0,1.3-0.3v2.7c-0.7,0.3-1.5,0.3-2.2,0.3
			c-2.1,0-3.8-0.9-3.8-3.1V513h-2v-2.6h2v-3.1h3.2v3.1h2.8V512.9z"/>
		<path class="st0" d="M126.7,510.1c3.2,0,5.8,2.1,5.8,5.4s-2.6,5.4-5.8,5.4s-5.8-2.1-5.8-5.4C120.8,512.2,123.5,510.1,126.7,510.1z
			 M126.7,518.2c1.6,0,2.6-1.1,2.6-2.6c0-1.6-1-2.6-2.6-2.6s-2.6,1.1-2.6,2.6S125.1,518.2,126.7,518.2z"/>
		<path class="st0" d="M134.3,510.4h3.1v1.4l0,0c0.4-0.8,1.5-1.7,3-1.7s2.6,0.6,3.2,1.9c0.7-1.3,1.7-1.9,3.3-1.9
			c2.8,0,3.7,2,3.7,4.5v6.1h-3.2v-6c0-1-0.4-1.8-1.4-1.8c-1.5,0-1.9,1-1.9,2.3v5.5H141v-5.4c0-0.8,0-2.3-1.4-2.3
			c-1.7,0-1.9,1.3-1.9,2.6v5.2h-3.2v-10.5h-0.2V510.4z"/>
		<path class="st0" d="M159.5,519.4L159.5,519.4c-0.7,1.1-2,1.6-3.3,1.6c-1.9,0-3.7-1.1-3.7-3.2c0-3.6,4.3-3.6,7-3.6
			c0-1.1-0.9-1.9-2-1.9c-1,0-1.9,0.5-2.6,1.2l-1.7-1.7c1.2-1.1,2.9-1.7,4.6-1.7c3.7,0,4.7,1.9,4.7,5.4v5.3h-2.9v-1.4L159.5,519.4
			L159.5,519.4z M158.7,516.2c-1,0-3.2,0.1-3.2,1.5c0,0.8,0.8,1.1,1.5,1.1c1.3,0,2.4-0.7,2.4-1.9v-0.7L158.7,516.2L158.7,516.2z"/>
		<path class="st0" d="M171.6,512.9h-2.8v3.5c0,1.1,0.1,1.9,1.5,1.9c0.3,0,1,0,1.3-0.3v2.7c-0.7,0.3-1.5,0.3-2.2,0.3
			c-2.1,0-3.8-0.9-3.8-3.1V513h-2v-2.6h2v-3.1h3.2v3.1h2.8V512.9z"/>
		<path class="st0" d="M174.9,505.2c1,0,1.9,0.8,1.9,1.9c0,1-0.8,1.9-1.9,1.9c-1,0-1.9-0.8-1.9-1.9S173.9,505.2,174.9,505.2z
			 M173.3,510.4h3.2v10.5h-3.2V510.4z"/>
		<path class="st0" d="M184.1,510.1c3.2,0,5.8,2.1,5.8,5.4s-2.6,5.4-5.8,5.4s-5.8-2.1-5.8-5.4C178.4,512.2,180.9,510.1,184.1,510.1z
			 M184.1,518.2c1.6,0,2.6-1.1,2.6-2.6c0-1.6-1-2.6-2.6-2.6s-2.6,1.1-2.6,2.6C181.6,517.1,182.5,518.2,184.1,518.2z"/>
		<path class="st0" d="M191.9,510.4h3.1v1.4l0,0c0.4-0.8,1.5-1.7,3-1.7c3.2,0,3.8,2.1,3.8,4.9v5.7h-3.2v-5.1c0-1.2,0-2.7-1.7-2.7
			s-1.9,1.3-1.9,2.6v5.2h-3.1L191.9,510.4L191.9,510.4z"/>
	</g>
	<g>
		<path class="st0" d="M143,491.2c-4.1,0-7.1-0.6-9.8-1.3c-1.4-0.4-2.4-1.6-2.4-3.1v-6.2l-0.6-0.3c-1.6-0.7-3.1-1.6-4.5-2.6
			l-0.5-0.4l-5.2,3c-0.5,0.3-1,0.4-1.6,0.4c-0.9,0-1.7-0.4-2.3-1c-5.9-6.3-7.4-9.9-9.8-16.8c-0.5-1.4,0.1-3,1.4-3.7l5.2-2.9
			l-0.1-0.7c-0.1-1.7-0.1-3.5,0-5.2l0.1-0.7l-5.2-3c-1.3-0.7-1.9-2.3-1.4-3.7c2.3-7,3.8-10.5,9.8-16.8c0.6-0.6,1.4-1,2.3-1
			c0.6,0,1.1,0.1,1.6,0.4l5.2,3l0.5-0.4c1.4-1,2.9-1.9,4.5-2.6l0.6-0.3v-5.9c0-1.5,1-2.7,2.4-3c4-0.9,6.9-1.3,9.8-1.3
			c2.8,0,5.7,0.4,9.8,1.3c1.4,0.3,2.4,1.6,2.4,3v5.9l0.6,0.3c1.6,0.7,3.1,1.6,4.5,2.6l0.5,0.4l5.2-3c0.5-0.3,1-0.4,1.6-0.4
			c0.9,0,1.7,0.4,2.3,1c3.9,4.2,8.2,9.6,9.7,17c0.3,1.3-0.3,2.6-1.4,3.3l-5.2,3.2l0.1,0.6c0.1,1.7,0.1,3.5,0,5.2L173,456l5.2,3.2
			c1.1,0.7,1.7,2,1.4,3.2c-1.2,5.9-4.1,11.1-9.7,17.1c-0.6,0.6-1.4,1-2.3,1c-0.6,0-1.1-0.1-1.6-0.4l-5.2-3l-0.5,0.4
			c-1.4,1-2.9,1.9-4.5,2.6l-0.6,0.3v6.2c0,1.4-1,2.7-2.4,3.1C150.1,490.6,147.1,491.2,143,491.2z M137.1,484.3l0.9,0.1
			c1.6,0.3,3.3,0.4,5,0.4s3.3-0.1,4.9-0.4l0.9-0.1v-8l2.1-0.7c2.8-1,5.3-2.4,7.5-4.3l1.7-1.4l6.9,4l0.6-0.7c2.1-2.6,3.8-5.5,5-8.7
			l0.3-0.8l-6.9-4l0.4-2.2c0.5-2.9,0.5-5.8,0-8.8l-0.4-2.2l6.9-4l-0.3-0.8c-1.2-3.1-2.9-6-5-8.7l-0.6-0.7l-6.9,4l-1.7-1.4
			c-2.3-1.9-4.8-3.4-7.5-4.3l-2.1-0.7v-8.3l-0.9-0.1c-1.6-0.3-3.3-0.4-5-0.4s-3.3,0.1-4.9,0.4l-0.9,0.1v8l-2.1,0.7
			c-2.8,1-5.3,2.4-7.5,4.3l-1.7,1.4l-6.9-4l-0.6,0.7c-2.1,2.6-3.8,5.5-5,8.7l-0.3,0.8l6.9,4l-0.4,2.2c-0.5,2.9-0.5,5.8,0,8.8
			l0.4,2.2l-6.9,4l0.3,0.8c1.2,3.1,2.9,6,5,8.7l0.6,0.7l6.9-4l1.7,1.4c2.3,1.9,4.8,3.4,7.5,4.3l2.1,0.7V484.3z"/>
		<g>
			<path class="st0" d="M137.4,464.6v-22.9c0-1.2,1.5-1.9,2.4-1l15.2,11.5c0.5,0.5,0.5,1.4,0,1.9l-15.2,11.5
				C139,466.4,137.4,465.8,137.4,464.6L137.4,464.6z"/>
		</g>
	</g>
</g>
<g>
	<g>
		<path class="st0" d="M262.1,676.6c-2,1-4.1,1.4-6.3,1.4c-4.7,0-8.2-3.1-8.2-8c0-4.8,3.4-8,8.2-8c2.4,0,4.5,0.5,6,1.9l-2.3,2.6
			c-0.9-0.9-2-1.4-3.7-1.4c-2.8,0-4.7,2-4.7,4.9s1.9,4.9,4.7,4.9c1.4,0,2.5-0.4,3.1-0.7v-2.5h-2.7v-3.1h5.9L262.1,676.6L262.1,676.6
			z"/>
		<path class="st0" d="M271.2,676.3L271.2,676.3c-0.7,1.1-2,1.6-3.3,1.6c-1.9,0-3.7-1.1-3.7-3.2c0-3.6,4.3-3.6,7-3.6
			c0-1.1-0.9-1.9-2-1.9c-1,0-1.9,0.5-2.6,1.2l-1.7-1.7c1.2-1.1,2.9-1.7,4.6-1.7c3.7,0,4.7,1.9,4.7,5.4v5.3h-2.9v-1.4L271.2,676.3
			L271.2,676.3z M270.4,673c-1,0-3.2,0.1-3.2,1.5c0,0.8,0.8,1.1,1.5,1.1c1.3,0,2.4-0.7,2.4-1.9V673H270.4L270.4,673z"/>
		<path class="st0" d="M283.3,669.7h-2.8v3.5c0,1.1,0.1,1.9,1.5,1.9c0.3,0,1,0,1.3-0.3v2.7c-0.7,0.3-1.5,0.3-2.2,0.3
			c-2.1,0-3.8-0.9-3.8-3.1v-4.9h-2v-2.6h2v-3.1h3.2v3.1h2.8V669.7z"/>
		<path class="st0" d="M294.8,675.9c-1,1.3-2.7,2-4.4,2c-3.2,0-5.8-2.1-5.8-5.4c0-3.3,2.6-5.4,5.8-5.4c3,0,4.9,2.1,4.9,5.4v1h-7.4
			c0.3,1.2,1.2,2,2.4,2c1,0,1.7-0.5,2.3-1.3L294.8,675.9z M292,671.2c0-1.1-0.8-2-2-2c-1.4,0-2.2,1-2.3,2H292z"/>
		<path class="st0" d="M296,667.2h3.4l2.1,6.5l0,0l1.8-6.5h3.5l1.9,6.5l0,0l1.9-6.5h3.2l-3.7,10.5h-3.2l-2.2-6.9l0,0l-1.9,6.9h-3.2
			L296,667.2z"/>
		<path class="st0" d="M321.6,676.3L321.6,676.3c-0.7,1.1-2,1.6-3.3,1.6c-1.9,0-3.7-1.1-3.7-3.2c0-3.6,4.3-3.6,7-3.6
			c0-1.1-0.9-1.9-2-1.9c-1,0-1.9,0.5-2.6,1.2l-1.7-1.7c1.2-1.1,2.9-1.7,4.6-1.7c3.7,0,4.7,1.9,4.7,5.4v5.3h-2.9v-1.4L321.6,676.3
			L321.6,676.3z M320.8,673c-1,0-3.2,0.1-3.2,1.5c0,0.8,0.8,1.1,1.5,1.1c1.3,0,2.4-0.7,2.4-1.9V673H320.8L320.8,673z"/>
		<path class="st0" d="M332.6,679.3c-0.9,2.2-1.3,3.4-4.4,3.4c-0.8,0-1.6-0.1-2.4-0.4l0.4-2.6c0.5,0.2,1,0.3,1.5,0.3
			c1.4,0,1.7-0.6,2.1-1.7l0.2-0.6l-4.5-10.5h3.5l2.7,6.8l0,0l2.3-6.8h3.3L332.6,679.3z"/>
		<path class="st0" d="M350.3,662.5h2.8l6.6,15.2h-3.8l-1.3-3.2h-5.9l-1.3,3.2h-3.7L350.3,662.5z M351.6,666.8l-1.8,4.7h3.7
			L351.6,666.8z"/>
		<path class="st0" d="M361.2,662.5h5.6c3.1,0,5.7,1,5.7,4.6c0,3.5-2.4,4.6-5.6,4.6h-2.4v5.9h-3.3L361.2,662.5L361.2,662.5z
			 M364.5,668.9h2.2c1.2,0,2.3-0.4,2.3-1.8c0-1.6-1.6-1.8-2.9-1.8h-1.6V668.9z"/>
		<path class="st0" d="M374.7,662.5h3.3v15.2h-3.3V662.5z"/>
	</g>
	<g>
		<g>
			<path class="st0" d="M285.6,611.7c-4.3,0-7.9-3.5-7.9-7.9s3.5-7.9,7.9-7.9c4.3,0,7.9,3.5,7.9,7.9
				C293.4,608.3,289.9,611.7,285.6,611.7z M285.6,599.9c-2.2,0-4.1,1.8-4.1,4.1c0,2.2,1.8,4.1,4.1,4.1c2.2,0,4.1-1.8,4.1-4.1
				S287.9,599.9,285.6,599.9z"/>
		</g>
		<g>
			<path class="st0" d="M304,611.7c-4.3,0-7.9-3.5-7.9-7.9s3.5-7.9,7.9-7.9s7.9,3.5,7.9,7.9C311.9,608.3,308.3,611.7,304,611.7z
				 M304,599.9c-2.2,0-4.1,1.8-4.1,4.1c0,2.2,1.8,4.1,4.1,4.1c2.2,0,4.1-1.8,4.1-4.1S306.2,599.9,304,599.9z"/>
		</g>
		<g>
			<path class="st0" d="M285.6,580.5c-4.3,0-7.9-3.5-7.9-7.9s3.5-7.9,7.9-7.9c4.3,0,7.9,3.5,7.9,7.9S289.9,580.5,285.6,580.5z
				 M285.6,568.7c-2.2,0-4.1,1.8-4.1,4.1c0,2.2,1.8,4.1,4.1,4.1c2.2,0,4.1-1.8,4.1-4.1S287.9,568.7,285.6,568.7z"/>
		</g>
		<g>
			<path class="st0" d="M304,580.5c-4.3,0-7.9-3.5-7.9-7.9s3.5-7.9,7.9-7.9s7.9,3.5,7.9,7.9S308.3,580.5,304,580.5z M304,568.7
				c-2.2,0-4.1,1.8-4.1,4.1c0,2.2,1.8,4.1,4.1,4.1c2.2,0,4.1-1.8,4.1-4.1S306.2,568.7,304,568.7z"/>
		</g>
		<path class="st0" d="M339.8,572H320c-1.1,0-1.4-0.9-1.4-2s0.3-2,1.4-2h19.8c1.1,0,1.4,0.9,1.4,2S341,572,339.8,572z"/>
		<path class="st0" d="M329.7,608.9h-9.9c-0.5,0-1-0.9-1-2s0.4-2,1-2h9.9c0.5,0,1,0.9,1,2S330.3,608.9,329.7,608.9z"/>
		<path class="st0" d="M329.7,602.6h-9.9c-0.5,0-1-0.9-1-2s0.4-2,1-2h9.9c0.5,0,1,0.9,1,2C330.7,601.7,330.3,602.6,329.7,602.6z"/>
		<path class="st0" d="M329.6,578.6h-9.9c-0.5,0-1-0.9-1-2s0.4-2,1-2h9.9c0.5,0,1,0.9,1,2C330.6,577.7,330.1,578.6,329.6,578.6z"/>
		<path class="st0" d="M344.6,608.9h-9.9c-0.5,0-1-0.9-1-2s0.4-2,1-2h9.9c0.5,0,1,0.9,1,2S345.1,608.9,344.6,608.9z"/>
		<path class="st0" d="M344.6,602.6h-9.9c-0.5,0-1-0.9-1-2s0.4-2,1-2h9.9c0.5,0,1,0.9,1,2C345.6,601.7,345.1,602.6,344.6,602.6z"/>
		<path class="st0" d="M312.6,651.5c-4.5,0-8.8-3-10.1-7.4V644h-30.2c-1.6,0-2.9-1.3-2.9-2.9s1.3-2.9,2.9-2.9h30.2V638
			c1-3.3,3.6-5.9,6.9-6.9h0.1v-8.5h-40.4c-1.6,0-2.9-1.3-2.9-2.9v-62.1c0-1.6,1.3-2.9,2.9-2.9h86.6c1.6,0,2.9,1.3,2.9,2.9v62.1
			c0,1.6-1.3,2.9-2.9,2.9h-40.4v8.5h0.1c3.3,1,5.9,3.6,6.9,6.9v0.1h30.2c1.6,0,2.9,1.3,2.9,2.9c0,1.6-1.3,2.9-2.9,2.9h-30.2v0.1
			C321.3,648.5,317.1,651.5,312.6,651.5z M312.6,636.4c-2.5,0-4.6,2.1-4.6,4.6s2.1,4.6,4.6,4.6s4.6-2.1,4.6-4.6
			C317.2,638.4,315.1,636.4,312.6,636.4z M272.2,616.5h80.6v-25.1h-80.6V616.5z M272.2,585.5h80.6v-25.1h-80.6V585.5z"/>
	</g>
</g>
<g>
	<path class="st0" d="M242.5,146.7c-0.7-0.8-1.6-1.2-2.9-1.2c-2.5,0-4.4,2-4.4,4.9c0,2.8,1.9,4.9,4.3,4.9c1.3,0,2.4-0.6,3.1-1.6
		l2.8,2.1c-1.3,1.8-3.4,2.6-5.5,2.6c-4.7,0-8.2-3.1-8.2-8s3.4-8,8.2-8c1.7,0,3.8,0.6,5.1,2.2L242.5,146.7z"/>
	<path class="st0" d="M256.7,156.2c-1,1.3-2.7,2-4.4,2c-3.2,0-5.8-2.1-5.8-5.4c0-3.3,2.6-5.4,5.8-5.4c3,0,4.9,2.1,4.9,5.4v1h-7.4
		c0.3,1.2,1.2,2,2.4,2c1,0,1.7-0.5,2.3-1.3L256.7,156.2z M254,151.5c0-1.1-0.8-2-2-2c-1.4,0-2.2,1-2.3,2H254z"/>
	<path class="st0" d="M259.2,147.5h3.2v1.7l0,0c0.7-1.3,1.6-1.9,3-1.9c0.4,0,0.8,0,1.1,0.1v2.9c-0.4-0.1-0.9-0.2-1.4-0.2
		c-2.4,0-2.7,1.4-2.7,3.5v4.3h-3.2V147.5L259.2,147.5z"/>
	<path class="st0" d="M275,150.1h-2.8v3.5c0,1.1,0.1,1.9,1.5,1.9c0.3,0,1,0,1.3-0.3v2.7c-0.7,0.3-1.5,0.3-2.2,0.3
		c-2.1,0-3.8-0.9-3.8-3.1v-4.9h-2v-2.6h2v-3.1h3.2v3.1h2.8V150.1z"/>
	<path class="st0" d="M278.3,142.4c1,0,1.9,0.8,1.9,1.9c0,1-0.8,1.9-1.9,1.9c-1,0-1.9-0.8-1.9-1.9S277.2,142.4,278.3,142.4z
		 M276.7,147.5h3.2V158h-3.2V147.5z"/>
	<path class="st0" d="M283.4,150.1h-2.1v-2.6h2.1v-1.8c0-2.3,0.6-4.2,4.1-4.2c0.6,0,1.3,0,1.9,0.2l-0.1,2.7c-0.4-0.1-0.7-0.2-1-0.2
		c-1,0-1.5,0.3-1.5,1.7v1.6h2.4v2.6h-2.4v7.9h-3.2v-7.9H283.4z M291.8,142.4c1,0,1.9,0.8,1.9,1.9c0,1-0.8,1.9-1.9,1.9
		c-1,0-1.9-0.8-1.9-1.9S290.8,142.4,291.8,142.4z M290.2,147.5h3.2V158h-3.2V147.5z"/>
	<path class="st0" d="M302.8,150.9c-0.3-0.4-0.9-0.8-1.6-0.8c-1.6,0-2.6,1.1-2.6,2.6s1,2.6,2.6,2.6c0.7,0,1.2-0.4,1.6-0.8l2.1,2.2
		c-1,1-2.5,1.4-3.7,1.4c-3.2,0-5.8-2.1-5.8-5.4c0-3.3,2.6-5.4,5.8-5.4c1.2,0,2.7,0.4,3.7,1.4L302.8,150.9z"/>
	<path class="st0" d="M312.7,156.7L312.7,156.7c-0.7,1.1-2,1.6-3.3,1.6c-1.9,0-3.7-1.1-3.7-3.2c0-3.6,4.3-3.6,7-3.6
		c0-1.1-0.9-1.9-2-1.9c-1,0-1.9,0.5-2.6,1.2l-1.8-1.8c1.2-1.1,2.9-1.7,4.6-1.7c3.7,0,4.7,1.9,4.7,5.4v5.3h-2.9L312.7,156.7
		L312.7,156.7z M311.9,153.4c-1,0-3.2,0.1-3.2,1.5c0,0.8,0.8,1.1,1.5,1.1c1.3,0,2.4-0.7,2.4-1.9v-0.7L311.9,153.4L311.9,153.4z"/>
	<path class="st0" d="M324.7,150.1h-2.8v3.5c0,1.1,0.1,1.9,1.5,1.9c0.3,0,1,0,1.3-0.3v2.7c-0.7,0.3-1.5,0.3-2.2,0.3
		c-2.1,0-3.8-0.9-3.8-3.1v-4.9h-2v-2.6h2v-3.1h3.2v3.1h2.8V150.1z"/>
	<path class="st0" d="M336.2,156.2c-1,1.3-2.7,2-4.4,2c-3.2,0-5.8-2.1-5.8-5.4c0-3.3,2.6-5.4,5.8-5.4c3,0,4.9,2.1,4.9,5.4v1h-7.4
		c0.3,1.2,1.2,2,2.4,2c1,0,1.7-0.5,2.3-1.3L336.2,156.2z M333.5,151.5c0-1.1-0.8-2-2-2c-1.4,0-2.2,1-2.3,2H333.5z"/>
	<path class="st0" d="M339.4,154.5h3.1l-1.9,6h-2.7L339.4,154.5z"/>
	<path class="st0" d="M361.7,146.7c-0.7-0.8-1.6-1.2-2.9-1.2c-2.5,0-4.4,2-4.4,4.9c0,2.8,1.9,4.9,4.3,4.9c1.3,0,2.4-0.6,3.1-1.6
		l2.8,2.1c-1.3,1.8-3.4,2.6-5.5,2.6c-4.7,0-8.2-3.1-8.2-8s3.4-8,8.2-8c1.7,0,3.8,0.6,5.1,2.2L361.7,146.7z"/>
	<path class="st0" d="M366.4,142.8h3.3V158h-3.3V142.8z"/>
	<path class="st0" d="M373,142.8h3.3v12.1h6.2v3.1H373V142.8z"/>
	<path class="st0" d="M384.7,154.5h3.1l-1.9,6h-2.7L384.7,154.5z"/>
	<path class="st0" d="M274.6,168.4h5c4.9,0,9,2.1,9,7.6c0,4.9-4,7.5-8.6,7.5h-5.4V168.4L274.6,168.4z M277.9,180.6h1.7
		c3.1,0,5.4-1.2,5.4-4.6c0-3-2.4-4.3-5.2-4.3h-2v9L277.9,180.6L277.9,180.6z"/>
	<path class="st0" d="M292.1,168.1c1,0,1.9,0.8,1.9,1.9c0,1-0.8,1.9-1.9,1.9c-1,0-1.9-0.8-1.9-1.9S291,168.1,292.1,168.1z
		 M290.5,173.3h3.2v10.5h-3.2V173.3z"/>
	<path class="st0" d="M301.9,176.3c-0.5-0.6-1.1-0.9-1.9-0.9c-0.5,0-1.2,0.2-1.2,0.9c0,1.5,5.4,0.2,5.4,4.2c0,2.6-2.6,3.4-4.8,3.4
		c-1.4,0-3-0.4-4.1-1.4l1.9-2.2c0.6,0.7,1.3,1.1,2.3,1.1c0.7,0,1.4-0.2,1.4-0.7c0-1.7-5.4-0.3-5.4-4.2c0-2.4,2.2-3.5,4.3-3.5
		c1.4,0,2.9,0.3,3.8,1.4L301.9,176.3z"/>
	<path class="st0" d="M313,175.8h-2.8v3.5c0,1.1,0.1,1.9,1.5,1.9c0.3,0,1,0,1.3-0.3v2.7c-0.7,0.3-1.5,0.3-2.2,0.3
		c-2.1,0-3.8-0.9-3.8-3.1v-4.9h-2v-2.6h2v-3.1h3.2v3.1h2.8V175.8z"/>
	<path class="st0" d="M314.6,173.3h3.2v1.7l0,0c0.7-1.3,1.6-1.9,3-1.9c0.4,0,0.8,0,1.1,0.1v2.9c-0.4-0.1-0.9-0.2-1.4-0.2
		c-2.4,0-2.7,1.4-2.7,3.5v4.3h-3.2V173.3z"/>
	<path class="st0" d="M325,168.1c1,0,1.9,0.8,1.9,1.9c0,1-0.8,1.9-1.9,1.9c-1,0-1.9-0.8-1.9-1.9C323.2,169,324,168.1,325,168.1z
		 M323.4,173.3h3.2v10.5h-3.2V173.3z"/>
	<path class="st0" d="M329.2,167.4h3.2v6.9l0,0c0.7-1,2-1.4,3.3-1.4c2.9,0,4.7,2.6,4.7,5.5c0,3.1-2,5.4-5.1,5.4
		c-1.4,0-2.7-0.9-3.2-1.6l0,0v1.4h-2.9V167.4z M334.8,181.1c1.6,0,2.6-1.1,2.6-2.6c0-1.6-1-2.6-2.6-2.6s-2.6,1.1-2.6,2.6
		C332.2,180,333.2,181.1,334.8,181.1z"/>
	<path class="st0" d="M352.5,183.6h-3.1v-1.4l0,0c-0.4,0.8-1.5,1.7-3,1.7c-3.2,0-3.8-2.1-3.8-4.9v-5.7h3.2v5.1c0,1.2,0,2.7,1.7,2.7
		s1.9-1.3,1.9-2.6v-5.2h3.2v10.4h-0.1V183.6z"/>
	<path class="st0" d="M361.8,175.8H359v3.5c0,1.1,0.1,1.9,1.5,1.9c0.3,0,1,0,1.3-0.3v2.7c-0.7,0.3-1.5,0.3-2.2,0.3
		c-2.1,0-3.8-0.9-3.8-3.1v-4.9h-2v-2.6h2v-3.1h3.2v3.1h2.8V175.8z"/>
	<path class="st0" d="M365.2,168.1c1,0,1.9,0.8,1.9,1.9c0,1-0.8,1.9-1.9,1.9c-1,0-1.9-0.8-1.9-1.9
		C363.2,169,364.2,168.1,365.2,168.1z M363.5,173.3h3.2v10.5h-3.2V173.3z"/>
	<path class="st0" d="M374.5,173c3.2,0,5.8,2.1,5.8,5.4c0,3.3-2.6,5.4-5.8,5.4s-5.8-2.1-5.8-5.4S371.3,173,374.5,173z M374.5,181.1
		c1.6,0,2.6-1.1,2.6-2.6c0-1.6-1-2.6-2.6-2.6s-2.6,1.1-2.6,2.6S372.9,181.1,374.5,181.1z"/>
	<path class="st0" d="M382.2,173.3h3.1v1.4l0,0c0.4-0.8,1.5-1.7,3-1.7c3.2,0,3.8,2.1,3.8,4.9v5.7h-3.2v-5.1c0-1.2,0-2.7-1.7-2.7
		s-1.9,1.3-1.9,2.6v5.2h-3.2v-10.4h0.1V173.3z"/>
	<path class="st0" d="M235.6,172.5c-0.7-0.8-1.6-1.2-2.9-1.2c-2.5,0-4.4,2-4.4,4.9c0,2.8,1.9,4.9,4.3,4.9c1.3,0,2.4-0.6,3.1-1.6
		l2.8,2.1c-1.3,1.8-3.4,2.6-5.5,2.6c-4.7,0-8.2-3.1-8.2-8c0-4.8,3.4-8,8.2-8c1.7,0,3.8,0.6,5.1,2.2L235.6,172.5z"/>
	<path class="st0" d="M240.4,168.5h5.8c3.1,0,5.7,1.1,5.7,4.6c0,2.1-1.1,3.8-3.3,4.1l3.8,6.4h-4l-3.2-6h-1.6v6h-3.3v-15.2
		L240.4,168.5L240.4,168.5z M243.7,174.8h2c1.2,0,2.8,0,2.8-1.7c0-1.5-1.4-1.7-2.6-1.7h-2.2V174.8L243.7,174.8z"/>
	<path class="st0" d="M254.3,168.5h3.3v12.1h6.2v3.1h-9.6L254.3,168.5L254.3,168.5z"/>
</g>
<g id="Lager_2_00000147186642873099273110000011342472373686745535_" class="st1">
	<circle class="st5" cx="432.2" cy="328.6" r="304.9"/>
	<circle class="st6" cx="124.5" cy="263.9" r="86.7"/>
	<ellipse class="st6" cx="311.9" cy="58.4" rx="81.4" ry="62.8"/>
	<ellipse class="st6" cx="557.7" cy="59.5" rx="69.2" ry="63.7"/>
	<ellipse class="st6" cx="150.5" cy="477.4" rx="84" ry="74.5"/>
	<ellipse class="st6" cx="310.8" cy="604.6" rx="63.3" ry="72"/>
	<ellipse class="st6" cx="533.7" cy="602.3" rx="67" ry="72"/>
	<ellipse class="st6" cx="697.3" cy="462.6" rx="130.1" ry="87.4"/>
	<ellipse class="st6" cx="700.9" cy="261.4" rx="130.1" ry="69.2"/>
</g>
<g>
	<g>
		<path class="st0" d="M328.1,315.5h37c20.7,0,37.8,6.6,37.8,30.2c0,23.3-15.9,30.6-36.8,30.6h-16v38.8h-21.9v-99.6H328.1z
			 M350.1,357.8h14.7c7.8,0,15.4-2.7,15.4-12c0-10.2-10.4-11.7-18.9-11.7h-11.2V357.8z"/>
		<path class="st0" d="M417.1,315.5H439v41.3l38.7-41.3h28.7l-44.2,46.2l48.1,53.2h-30.7l-40.5-47.2v47.3h-21.9v-99.6H417.1z"/>
		<path class="st0" d="M517.9,315.5h21.9v99.6h-21.9V315.5z"/>
	</g>
	<g>
		<path class="st0" d="M348,278.4c-0.6-0.8-1.5-1.5-2.5-2c-1-0.5-2.1-0.7-3-0.7c-0.5,0-1,0-1.5,0.1c-0.5,0.1-1,0.3-1.4,0.5
			c-0.4,0.3-0.8,0.6-1,1c-0.3,0.4-0.4,0.9-0.4,1.5c0,0.5,0.1,1,0.3,1.3c0.2,0.4,0.5,0.7,1,0.9c0.4,0.3,0.9,0.5,1.5,0.7
			c0.6,0.2,1.3,0.4,2,0.7c1.1,0.4,2.2,0.7,3.3,1.2c1.1,0.4,2.2,1,3.1,1.7c0.9,0.7,1.7,1.6,2.3,2.6c0.6,1,0.9,2.3,0.9,3.9
			c0,1.8-0.3,3.3-1,4.7c-0.7,1.3-1.6,2.4-2.7,3.2c-1.1,0.9-2.4,1.5-3.8,1.9c-1.4,0.4-2.9,0.6-4.5,0.6c-2.2,0-4.4-0.4-6.5-1.2
			c-2.1-0.8-3.8-1.9-5.2-3.3l4.9-5c0.8,0.9,1.8,1.7,3,2.4c1.3,0.6,2.5,0.9,3.7,0.9c0.6,0,1.1-0.1,1.6-0.2c0.5-0.1,1-0.3,1.4-0.6
			c0.4-0.3,0.7-0.6,0.9-1.1c0.2-0.4,0.4-1,0.4-1.6c0-0.6-0.1-1.1-0.4-1.5c-0.3-0.4-0.7-0.8-1.3-1.1c-0.5-0.3-1.2-0.6-2-0.9
			c-0.8-0.3-1.7-0.6-2.8-0.9c-1-0.3-2-0.7-2.9-1.1s-1.8-1-2.6-1.7c-0.8-0.7-1.4-1.5-1.8-2.5c-0.5-1-0.7-2.2-0.7-3.6
			c0-1.7,0.4-3.2,1.1-4.5c0.7-1.2,1.6-2.3,2.8-3c1.1-0.8,2.4-1.4,3.9-1.7c1.4-0.4,2.9-0.6,4.4-0.6c1.8,0,3.6,0.3,5.4,1
			c1.8,0.6,3.5,1.6,4.8,2.9L348,278.4z"/>
		<path class="st0" d="M386,301.6l0.2-22.1H386l-8.1,22.1h-5.3l-7.9-22.1h-0.1l0.2,22.1h-7.1v-31.3h10.7l7.1,20h0.2l6.8-20h10.9
			v31.3H386z"/>
		<path class="st0" d="M421,301.6l-2.4-6.1h-12.1l-2.3,6.1h-8.2l13.1-31.3h7.3l13,31.3H421z M412.6,278.6l-4,10.7h7.9L412.6,278.6z"
			/>
		<path class="st0" d="M448.7,301.6l-6.8-12.4h-2.6v12.4H432v-31.3h11.9c1.5,0,3,0.2,4.4,0.5c1.4,0.3,2.7,0.8,3.8,1.6
			c1.1,0.7,2,1.7,2.7,2.9c0.7,1.2,1,2.7,1,4.5c0,2.1-0.6,3.9-1.7,5.3c-1.1,1.4-2.7,2.5-4.8,3.1l8.2,13.4H448.7z M448.4,279.9
			c0-0.7-0.2-1.3-0.5-1.8c-0.3-0.5-0.7-0.8-1.2-1.1c-0.5-0.2-1-0.4-1.6-0.5c-0.6-0.1-1.2-0.1-1.8-0.1h-4v7.3h3.6
			c0.6,0,1.3-0.1,1.9-0.2c0.7-0.1,1.2-0.3,1.8-0.6s1-0.6,1.3-1.1C448.2,281.3,448.4,280.7,448.4,279.9z"/>
		<path class="st0" d="M474.1,276.7v24.8h-7.5v-24.8h-8.8v-6.4h25.2v6.4H474.1z"/>
		<path class="st0" d="M496.3,301.6v-31.3h7.6v31.3H496.3z"/>
		<path class="st0" d="M539.6,285.8c0,2.7-0.5,5.1-1.5,7.1c-1,2-2.4,3.6-4,4.9c-1.7,1.3-3.5,2.2-5.6,2.8c-2.1,0.6-4.2,0.9-6.4,0.9
			h-11.7v-31.3h11.3c2.2,0,4.4,0.3,6.5,0.8c2.1,0.5,4.1,1.4,5.7,2.6c1.7,1.2,3,2.8,4.1,4.8C539.1,280.4,539.6,282.9,539.6,285.8z
			 M531.7,285.8c0-1.8-0.3-3.2-0.9-4.4c-0.6-1.2-1.3-2.1-2.3-2.8c-1-0.7-2-1.2-3.3-1.5c-1.2-0.3-2.5-0.4-3.8-0.4h-3.8V295h3.6
			c1.4,0,2.7-0.2,3.9-0.5c1.3-0.3,2.4-0.8,3.3-1.5c1-0.7,1.7-1.6,2.3-2.8C531.4,289,531.7,287.6,531.7,285.8z"/>
	</g>
</g>
</svg>
