<svg xmlns="http://www.w3.org/2000/svg" xmlns:xlink="http://www.w3.org/1999/xlink" width="169" zoomAndPan="magnify" viewBox="0 0 126.75 119.999999" height="160" preserveAspectRatio="xMidYMid meet" version="1.0"><defs><g/><clipPath id="501443c050"><path d="M 0 0.117188 L 126.5 0.117188 L 126.5 119.882812 L 0 119.882812 Z M 0 0.117188 " clip-rule="nonzero"/></clipPath><clipPath id="f6b3b59025"><path d="M 9.191406 40 L 27 40 L 27 63 L 9.191406 63 Z M 9.191406 40 " clip-rule="nonzero"/></clipPath><clipPath id="a9c5a2c0e8"><path d="M 21 72 L 29 72 L 29 73.785156 L 21 73.785156 Z M 21 72 " clip-rule="nonzero"/></clipPath><clipPath id="fa23c4d878"><path d="M 29 56 L 43 56 L 43 73.785156 L 29 73.785156 Z M 29 56 " clip-rule="nonzero"/></clipPath><clipPath id="89fe507b25"><path d="M 25 39.351562 L 29 39.351562 L 29 43 L 25 43 Z M 25 39.351562 " clip-rule="nonzero"/></clipPath><clipPath id="714ec4c09f"><path d="M 40 54 L 43.625 54 L 43.625 58 L 40 58 Z M 40 54 " clip-rule="nonzero"/></clipPath></defs><g clip-path="url(#501443c050)"><path fill="#ffffff" d="M 0 0.117188 L 126.5 0.117188 L 126.5 119.882812 L 0 119.882812 Z M 0 0.117188 " fill-opacity="1" fill-rule="nonzero"/><path fill="#01133d" d="M 0 0.117188 L 126.5 0.117188 L 126.5 119.882812 L 0 119.882812 Z M 0 0.117188 " fill-opacity="1" fill-rule="nonzero"/></g><path fill="#00a0cb" d="M 17.636719 64.011719 C 17.480469 64.011719 17.324219 63.941406 17.222656 63.804688 C 13.976562 59.511719 14.40625 53.394531 18.214844 49.585938 C 22.449219 45.351562 29.34375 45.351562 33.578125 49.585938 C 33.78125 49.789062 33.78125 50.117188 33.578125 50.320312 C 33.375 50.523438 33.046875 50.523438 32.84375 50.320312 C 29.011719 46.492188 22.785156 46.488281 18.953125 50.320312 C 15.507812 53.765625 15.121094 59.292969 18.054688 63.179688 C 18.230469 63.410156 18.183594 63.734375 17.953125 63.90625 C 17.859375 63.976562 17.746094 64.011719 17.636719 64.011719 Z M 17.636719 64.011719 " fill-opacity="1" fill-rule="nonzero"/><path fill="#00a0cb" d="M 24.984375 68.085938 C 24.96875 68.085938 24.953125 68.085938 24.9375 68.082031 C 22.777344 67.894531 20.753906 67.074219 19.074219 65.71875 C 18.851562 65.539062 18.816406 65.210938 18.996094 64.988281 C 19.175781 64.765625 19.503906 64.730469 19.726562 64.910156 C 21.242188 66.132812 23.074219 66.875 25.027344 67.046875 C 25.3125 67.070312 25.523438 67.320312 25.5 67.609375 C 25.476562 67.878906 25.25 68.085938 24.984375 68.085938 Z M 24.984375 68.085938 " fill-opacity="1" fill-rule="nonzero"/><path fill="#00a0cb" d="M 26.480469 68.109375 C 26.207031 68.109375 25.976562 67.894531 25.960938 67.621094 C 25.945312 67.332031 26.164062 67.085938 26.453125 67.070312 C 28.867188 66.933594 31.136719 65.921875 32.84375 64.214844 C 33.046875 64.011719 33.375 64.011719 33.578125 64.214844 C 33.78125 64.417969 33.78125 64.746094 33.578125 64.949219 C 31.691406 66.835938 29.179688 67.960938 26.507812 68.109375 C 26.503906 68.105469 26.492188 68.109375 26.480469 68.109375 Z M 26.480469 68.109375 " fill-opacity="1" fill-rule="nonzero"/><path fill="#00a0cb" d="M 33.847656 52.375 C 32.945312 52.375 32.214844 51.640625 32.214844 50.738281 C 32.214844 49.835938 32.945312 49.101562 33.847656 49.101562 C 34.75 49.101562 35.484375 49.835938 35.484375 50.738281 C 35.484375 51.640625 34.75 52.375 33.847656 52.375 Z M 33.847656 50.144531 C 33.523438 50.144531 33.253906 50.414062 33.253906 50.738281 C 33.253906 51.066406 33.523438 51.332031 33.847656 51.332031 C 34.175781 51.332031 34.441406 51.066406 34.441406 50.738281 C 34.445312 50.414062 34.179688 50.144531 33.847656 50.144531 Z M 33.847656 50.144531 " fill-opacity="1" fill-rule="nonzero"/><path fill="#00a0cb" d="M 33.847656 65.433594 C 32.945312 65.433594 32.214844 64.699219 32.214844 63.800781 C 32.214844 62.898438 32.945312 62.164062 33.847656 62.164062 C 34.75 62.164062 35.484375 62.898438 35.484375 63.800781 C 35.484375 64.699219 34.75 65.433594 33.847656 65.433594 Z M 33.847656 63.207031 C 33.523438 63.207031 33.253906 63.472656 33.253906 63.800781 C 33.253906 64.125 33.523438 64.390625 33.847656 64.390625 C 34.175781 64.390625 34.441406 64.125 34.441406 63.800781 C 34.445312 63.472656 34.179688 63.207031 33.847656 63.207031 Z M 33.847656 63.207031 " fill-opacity="1" fill-rule="nonzero"/><path fill="#00c0e4" d="M 25.898438 65.25 C 21.496094 65.25 17.914062 61.667969 17.914062 57.265625 C 17.914062 52.863281 21.496094 49.28125 25.898438 49.28125 C 26.1875 49.28125 26.421875 49.515625 26.421875 49.800781 C 26.421875 50.089844 26.1875 50.324219 25.898438 50.324219 C 22.066406 50.324219 18.953125 53.4375 18.953125 57.269531 C 18.953125 61.101562 22.066406 64.214844 25.898438 64.214844 C 29.730469 64.214844 32.84375 61.097656 32.84375 57.265625 C 32.84375 56.976562 33.078125 56.742188 33.367188 56.742188 C 33.652344 56.742188 33.886719 56.976562 33.886719 57.265625 C 33.882812 61.667969 30.300781 65.25 25.898438 65.25 Z M 25.898438 65.25 " fill-opacity="1" fill-rule="nonzero"/><path fill="#00c0e4" d="M 33.363281 57.785156 C 32.460938 57.785156 31.726562 57.050781 31.726562 56.152344 C 31.726562 55.25 32.460938 54.515625 33.363281 54.515625 C 34.261719 54.515625 34.996094 55.25 34.996094 56.152344 C 34.996094 57.050781 34.261719 57.785156 33.363281 57.785156 Z M 33.363281 55.558594 C 33.035156 55.558594 32.769531 55.824219 32.769531 56.15625 C 32.769531 56.480469 33.035156 56.746094 33.363281 56.746094 C 33.6875 56.746094 33.953125 56.480469 33.953125 56.15625 C 33.957031 55.824219 33.691406 55.558594 33.363281 55.558594 Z M 33.363281 55.558594 " fill-opacity="1" fill-rule="nonzero"/><g clip-path="url(#f6b3b59025)"><path fill="#6f64b6" d="M 10.527344 62.570312 C 10.300781 62.570312 10.101562 62.425781 10.027344 62.203125 C 9.53125 60.605469 9.28125 58.945312 9.28125 57.265625 C 9.28125 48.101562 16.734375 40.652344 25.898438 40.652344 C 26.1875 40.652344 26.421875 40.882812 26.421875 41.171875 C 26.421875 41.460938 26.1875 41.691406 25.898438 41.691406 C 17.3125 41.691406 10.324219 48.679688 10.324219 57.269531 C 10.324219 58.847656 10.5625 60.402344 11.027344 61.894531 C 11.109375 62.167969 10.957031 62.457031 10.683594 62.546875 C 10.628906 62.558594 10.574219 62.570312 10.527344 62.570312 Z M 10.527344 62.570312 " fill-opacity="1" fill-rule="nonzero"/></g><path fill="#6f64b6" d="M 19.636719 72.613281 C 19.570312 72.613281 19.503906 72.601562 19.4375 72.570312 C 15.472656 70.898438 12.246094 67.660156 10.574219 63.691406 C 10.464844 63.425781 10.589844 63.121094 10.851562 63.011719 C 11.113281 62.898438 11.417969 63.027344 11.53125 63.289062 C 13.097656 67.007812 16.125 70.042969 19.839844 71.613281 C 20.105469 71.726562 20.226562 72.03125 20.117188 72.292969 C 20.03125 72.496094 19.839844 72.613281 19.636719 72.613281 Z M 19.636719 72.613281 " fill-opacity="1" fill-rule="nonzero"/><g clip-path="url(#a9c5a2c0e8)"><path fill="#6f64b6" d="M 25.898438 73.882812 C 24.6875 73.882812 23.484375 73.753906 22.3125 73.492188 C 22.03125 73.433594 21.855469 73.152344 21.917969 72.871094 C 21.980469 72.59375 22.257812 72.414062 22.539062 72.480469 C 24.339844 72.875 26.234375 72.949219 28.058594 72.695312 C 28.347656 72.652344 28.605469 72.855469 28.644531 73.140625 C 28.683594 73.421875 28.484375 73.683594 28.199219 73.722656 C 27.441406 73.832031 26.664062 73.882812 25.898438 73.882812 Z M 25.898438 73.882812 " fill-opacity="1" fill-rule="nonzero"/></g><g clip-path="url(#fa23c4d878)"><path fill="#6f64b6" d="M 30.484375 73.21875 C 30.261719 73.21875 30.054688 73.070312 29.988281 72.84375 C 29.90625 72.566406 30.0625 72.28125 30.339844 72.199219 C 36.898438 70.246094 41.476562 64.105469 41.476562 57.265625 C 41.476562 56.976562 41.710938 56.742188 42 56.742188 C 42.285156 56.742188 42.519531 56.976562 42.519531 57.265625 C 42.519531 64.5625 37.636719 71.109375 30.640625 73.195312 C 30.585938 73.210938 30.535156 73.21875 30.484375 73.21875 Z M 30.484375 73.21875 " fill-opacity="1" fill-rule="nonzero"/></g><g clip-path="url(#89fe507b25)"><path fill="#6f64b6" d="M 27.011719 42.617188 C 26.113281 42.617188 25.378906 41.886719 25.378906 40.984375 C 25.378906 40.082031 26.113281 39.351562 27.011719 39.351562 C 27.914062 39.351562 28.648438 40.085938 28.648438 40.988281 C 28.648438 41.886719 27.914062 42.617188 27.011719 42.617188 Z M 27.011719 40.390625 C 26.6875 40.390625 26.421875 40.65625 26.421875 40.984375 C 26.421875 41.308594 26.6875 41.578125 27.011719 41.578125 C 27.339844 41.578125 27.609375 41.308594 27.609375 40.984375 C 27.609375 40.65625 27.339844 40.390625 27.011719 40.390625 Z M 27.011719 40.390625 " fill-opacity="1" fill-rule="nonzero"/></g><g clip-path="url(#714ec4c09f)"><path fill="#6f64b6" d="M 41.996094 57.785156 C 41.09375 57.785156 40.359375 57.050781 40.359375 56.152344 C 40.359375 55.25 41.09375 54.515625 41.996094 54.515625 C 42.898438 54.515625 43.632812 55.25 43.632812 56.152344 C 43.628906 57.050781 42.894531 57.785156 41.996094 57.785156 Z M 41.996094 55.558594 C 41.667969 55.558594 41.402344 55.824219 41.402344 56.15625 C 41.402344 56.480469 41.667969 56.746094 41.996094 56.746094 C 42.324219 56.746094 42.589844 56.480469 42.589844 56.15625 C 42.589844 55.824219 42.324219 55.558594 41.996094 55.558594 Z M 41.996094 55.558594 " fill-opacity="1" fill-rule="nonzero"/></g><path fill="#466bcb" d="M 25.898438 71.007812 C 18.320312 71.007812 12.160156 64.84375 12.160156 57.269531 C 12.160156 56.980469 12.394531 56.746094 12.683594 56.746094 C 12.96875 56.746094 13.203125 56.980469 13.203125 57.269531 C 13.203125 64.269531 18.902344 69.96875 25.902344 69.96875 C 31.464844 69.96875 36.328125 66.402344 38.011719 61.101562 C 38.097656 60.828125 38.390625 60.675781 38.664062 60.761719 C 38.9375 60.847656 39.089844 61.140625 39.003906 61.414062 C 37.179688 67.152344 31.910156 71.007812 25.898438 71.007812 Z M 25.898438 71.007812 " fill-opacity="1" fill-rule="nonzero"/><path fill="#466bcb" d="M 38.984375 59.667969 C 38.960938 59.667969 38.933594 59.664062 38.910156 59.660156 C 38.625 59.621094 38.425781 59.355469 38.46875 59.070312 C 38.554688 58.480469 38.597656 57.867188 38.597656 57.261719 C 38.597656 50.257812 32.902344 44.5625 25.898438 44.5625 C 25.613281 44.5625 25.378906 44.328125 25.378906 44.042969 C 25.378906 43.753906 25.613281 43.519531 25.898438 43.519531 C 33.476562 43.519531 39.636719 49.683594 39.636719 57.261719 C 39.636719 57.914062 39.589844 58.574219 39.5 59.214844 C 39.460938 59.480469 39.238281 59.667969 38.984375 59.667969 Z M 38.984375 59.667969 " fill-opacity="1" fill-rule="nonzero"/><path fill="#466bcb" d="M 24.984375 45.679688 C 24.082031 45.679688 23.347656 44.945312 23.347656 44.046875 C 23.347656 43.144531 24.082031 42.410156 24.984375 42.410156 C 25.886719 42.410156 26.617188 43.144531 26.617188 44.046875 C 26.617188 44.945312 25.886719 45.679688 24.984375 45.679688 Z M 24.984375 43.453125 C 24.65625 43.453125 24.386719 43.71875 24.386719 44.046875 C 24.386719 44.371094 24.652344 44.640625 24.984375 44.640625 C 25.308594 44.640625 25.578125 44.375 25.578125 44.046875 C 25.578125 43.71875 25.308594 43.453125 24.984375 43.453125 Z M 24.984375 43.453125 " fill-opacity="1" fill-rule="nonzero"/><path fill="#466bcb" d="M 12.679688 57.785156 C 11.777344 57.785156 11.042969 57.050781 11.042969 56.152344 C 11.042969 55.25 11.777344 54.515625 12.679688 54.515625 C 13.578125 54.515625 14.3125 55.25 14.3125 56.152344 C 14.308594 57.050781 13.578125 57.785156 12.679688 57.785156 Z M 12.679688 55.558594 C 12.351562 55.558594 12.085938 55.824219 12.085938 56.15625 C 12.085938 56.480469 12.351562 56.746094 12.679688 56.746094 C 13.003906 56.746094 13.269531 56.480469 13.269531 56.15625 C 13.269531 55.824219 13.003906 55.558594 12.679688 55.558594 Z M 12.679688 55.558594 " fill-opacity="1" fill-rule="nonzero"/><path fill="#00defc" d="M 25.898438 62.375 C 23.082031 62.375 20.792969 60.082031 20.792969 57.265625 C 20.792969 56.976562 21.023438 56.742188 21.3125 56.742188 C 21.601562 56.742188 21.832031 56.976562 21.832031 57.265625 C 21.832031 59.507812 23.660156 61.335938 25.902344 61.335938 C 26.542969 61.335938 27.160156 61.1875 27.730469 60.902344 C 27.984375 60.769531 28.296875 60.871094 28.429688 61.132812 C 28.554688 61.386719 28.453125 61.699219 28.199219 61.832031 C 27.472656 62.191406 26.703125 62.375 25.898438 62.375 Z M 25.898438 62.375 " fill-opacity="1" fill-rule="nonzero"/><path fill="#00defc" d="M 29.414062 60.726562 C 29.296875 60.726562 29.175781 60.6875 29.082031 60.605469 C 28.859375 60.421875 28.832031 60.097656 29.015625 59.875 C 29.628906 59.144531 29.964844 58.21875 29.964844 57.269531 C 29.964844 55.027344 28.136719 53.199219 25.894531 53.199219 C 25.609375 53.199219 25.375 52.964844 25.375 52.679688 C 25.375 52.390625 25.609375 52.15625 25.894531 52.15625 C 28.710938 52.15625 31.003906 54.449219 31.003906 57.265625 C 31.003906 58.460938 30.582031 59.625 29.8125 60.542969 C 29.710938 60.664062 29.5625 60.726562 29.414062 60.726562 Z M 29.414062 60.726562 " fill-opacity="1" fill-rule="nonzero"/><path fill="#00defc" d="M 21.308594 57.945312 C 20.40625 57.945312 19.671875 57.210938 19.671875 56.3125 C 19.671875 55.410156 20.40625 54.675781 21.308594 54.675781 C 22.210938 54.675781 22.945312 55.410156 22.945312 56.3125 C 22.945312 57.210938 22.210938 57.945312 21.308594 57.945312 Z M 21.308594 55.71875 C 20.984375 55.71875 20.714844 55.984375 20.714844 56.3125 C 20.714844 56.636719 20.984375 56.902344 21.308594 56.902344 C 21.636719 56.902344 21.902344 56.636719 21.902344 56.3125 C 21.902344 55.984375 21.636719 55.71875 21.308594 55.71875 Z M 21.308594 55.71875 " fill-opacity="1" fill-rule="nonzero"/><g fill="#ffffff" fill-opacity="1"><g transform="translate(49.191965, 58.425117)"><g><path d="M 2.859375 0.09375 C 2.085938 0.09375 1.5 -0.140625 1.09375 -0.609375 C 0.695312 -1.078125 0.476562 -1.722656 0.4375 -2.546875 L 1.5625 -2.859375 C 1.601562 -2.273438 1.71875 -1.800781 1.90625 -1.4375 C 2.09375 -1.082031 2.410156 -0.90625 2.859375 -0.90625 C 3.179688 -0.90625 3.425781 -0.992188 3.59375 -1.171875 C 3.769531 -1.359375 3.859375 -1.625 3.859375 -1.96875 C 3.859375 -2.34375 3.773438 -2.648438 3.609375 -2.890625 C 3.453125 -3.140625 3.203125 -3.414062 2.859375 -3.71875 L 1.34375 -5.0625 C 1.03125 -5.332031 0.800781 -5.625 0.65625 -5.9375 C 0.519531 -6.25 0.453125 -6.628906 0.453125 -7.078125 C 0.453125 -7.742188 0.644531 -8.257812 1.03125 -8.625 C 1.414062 -8.988281 1.9375 -9.171875 2.59375 -9.171875 C 3.3125 -9.171875 3.851562 -8.976562 4.21875 -8.59375 C 4.59375 -8.21875 4.816406 -7.628906 4.890625 -6.828125 L 3.8125 -6.53125 C 3.769531 -7.070312 3.664062 -7.484375 3.5 -7.765625 C 3.332031 -8.054688 3.03125 -8.203125 2.59375 -8.203125 C 2.269531 -8.203125 2.019531 -8.117188 1.84375 -7.953125 C 1.675781 -7.785156 1.59375 -7.535156 1.59375 -7.203125 C 1.59375 -6.929688 1.632812 -6.703125 1.71875 -6.515625 C 1.8125 -6.335938 1.96875 -6.15625 2.1875 -5.96875 L 3.734375 -4.625 C 4.128906 -4.269531 4.441406 -3.882812 4.671875 -3.46875 C 4.910156 -3.0625 5.03125 -2.59375 5.03125 -2.0625 C 5.03125 -1.394531 4.828125 -0.867188 4.421875 -0.484375 C 4.015625 -0.0976562 3.492188 0.09375 2.859375 0.09375 Z M 2.859375 0.09375 "/></g></g></g><g fill="#ffffff" fill-opacity="1"><g transform="translate(55.056848, 58.425117)"><g><path d="M 0.859375 -9.09375 L 2.09375 -9.09375 L 3.703125 -1.71875 L 5.328125 -9.09375 L 6.5625 -9.09375 L 6.734375 0 L 5.703125 0 L 5.609375 -6.609375 L 4.0625 0 L 3.34375 0 L 1.8125 -6.609375 L 1.71875 0 L 0.6875 0 Z M 0.859375 -9.09375 "/></g></g></g><g fill="#ffffff" fill-opacity="1"><g transform="translate(63.022668, 58.425117)"><g><path d="M 0.78125 -9.09375 L 2.015625 -9.09375 L 2.015625 0 L 0.78125 0 Z M 0.78125 -9.09375 "/></g></g></g><g fill="#ffffff" fill-opacity="1"><g transform="translate(66.359688, 58.425117)"><g><path d="M 0.78125 -9.09375 L 2.015625 -9.09375 L 2.015625 0 L 0.78125 0 Z M 0.78125 -9.09375 "/></g></g></g><g fill="#ffffff" fill-opacity="1"><g transform="translate(69.696708, 58.425117)"><g><path d="M 1.703125 -8.15625 L 0.171875 -8.15625 L 0.171875 -9.09375 L 4.46875 -9.09375 L 4.46875 -8.15625 L 2.984375 -8.15625 L 2.984375 0 L 1.703125 0 Z M 1.703125 -8.15625 "/></g></g></g><g fill="#ffffff" fill-opacity="1"><g transform="translate(74.887493, 58.425117)"><g/></g></g><g fill="#ffffff" fill-opacity="1"><g transform="translate(78.011044, 58.425117)"><g><path d="M 2.984375 0.09375 C 2.085938 0.09375 1.457031 -0.171875 1.09375 -0.703125 C 0.726562 -1.234375 0.546875 -1.972656 0.546875 -2.921875 L 0.546875 -6.140625 C 0.546875 -7.128906 0.722656 -7.878906 1.078125 -8.390625 C 1.441406 -8.910156 2.078125 -9.171875 2.984375 -9.171875 C 3.804688 -9.171875 4.394531 -8.953125 4.75 -8.515625 C 5.101562 -8.078125 5.28125 -7.425781 5.28125 -6.5625 L 5.28125 -5.84375 L 4.078125 -5.84375 L 4.078125 -6.484375 C 4.078125 -6.898438 4.054688 -7.21875 4.015625 -7.4375 C 3.984375 -7.664062 3.890625 -7.847656 3.734375 -7.984375 C 3.578125 -8.117188 3.332031 -8.1875 3 -8.1875 C 2.65625 -8.1875 2.398438 -8.113281 2.234375 -7.96875 C 2.066406 -7.820312 1.953125 -7.617188 1.890625 -7.359375 C 1.835938 -7.097656 1.8125 -6.753906 1.8125 -6.328125 L 1.8125 -2.71875 C 1.8125 -2.25 1.847656 -1.882812 1.921875 -1.625 C 2.003906 -1.363281 2.128906 -1.175781 2.296875 -1.0625 C 2.460938 -0.957031 2.695312 -0.90625 3 -0.90625 C 3.320312 -0.90625 3.5625 -0.972656 3.71875 -1.109375 C 3.875 -1.253906 3.972656 -1.445312 4.015625 -1.6875 C 4.054688 -1.9375 4.078125 -2.273438 4.078125 -2.703125 L 4.078125 -3.375 L 5.28125 -3.375 L 5.28125 -2.703125 C 5.28125 -1.796875 5.109375 -1.101562 4.765625 -0.625 C 4.421875 -0.144531 3.828125 0.09375 2.984375 0.09375 Z M 2.984375 0.09375 "/></g></g></g><g fill="#ffffff" fill-opacity="1"><g transform="translate(84.347794, 58.425117)"><g><path d="M 2.09375 -3.21875 L 0.140625 -9.09375 L 1.3125 -9.09375 L 2.703125 -4.703125 L 4.078125 -9.09375 L 5.265625 -9.09375 L 3.3125 -3.21875 L 3.3125 0 L 2.09375 0 Z M 2.09375 -3.21875 "/></g></g></g><g fill="#ffffff" fill-opacity="1"><g transform="translate(90.302556, 58.425117)"><g><path d="M 0.703125 -9.09375 L 2.796875 -9.09375 C 3.617188 -9.09375 4.226562 -8.90625 4.625 -8.53125 C 5.019531 -8.164062 5.21875 -7.59375 5.21875 -6.8125 C 5.21875 -5.65625 4.785156 -5.015625 3.921875 -4.890625 C 4.460938 -4.765625 4.851562 -4.515625 5.09375 -4.140625 C 5.34375 -3.765625 5.46875 -3.25 5.46875 -2.59375 C 5.46875 -1.78125 5.273438 -1.144531 4.890625 -0.6875 C 4.503906 -0.226562 3.921875 0 3.140625 0 L 0.703125 0 Z M 2.734375 -5.296875 C 3.253906 -5.296875 3.613281 -5.410156 3.8125 -5.640625 C 4.019531 -5.867188 4.125 -6.257812 4.125 -6.8125 C 4.125 -7.21875 4.0625 -7.515625 3.9375 -7.703125 C 3.8125 -7.898438 3.625 -8.023438 3.375 -8.078125 C 3.132812 -8.128906 2.769531 -8.15625 2.28125 -8.15625 L 1.984375 -8.15625 L 1.984375 -5.296875 Z M 2.828125 -0.90625 C 3.203125 -0.90625 3.492188 -0.960938 3.703125 -1.078125 C 3.910156 -1.203125 4.050781 -1.382812 4.125 -1.625 C 4.207031 -1.863281 4.25 -2.1875 4.25 -2.59375 C 4.25 -3.175781 4.128906 -3.613281 3.890625 -3.90625 C 3.648438 -4.195312 3.265625 -4.34375 2.734375 -4.34375 L 1.984375 -4.34375 L 1.984375 -0.90625 Z M 2.828125 -0.90625 "/></g></g></g><g fill="#ffffff" fill-opacity="1"><g transform="translate(96.740424, 58.425117)"><g><path d="M 0.703125 -9.09375 L 4.234375 -9.09375 L 4.234375 -8.15625 L 1.984375 -8.15625 L 1.984375 -5.140625 L 3.8125 -5.140625 L 3.8125 -4.25 L 1.984375 -4.25 L 1.984375 -0.90625 L 4.25 -0.90625 L 4.25 0 L 0.703125 0 Z M 0.703125 -9.09375 "/></g></g></g><g fill="#ffffff" fill-opacity="1"><g transform="translate(101.863796, 58.425117)"><g><path d="M 0.703125 -9.09375 L 2.53125 -9.09375 C 3.457031 -9.09375 4.132812 -8.90625 4.5625 -8.53125 C 5 -8.15625 5.21875 -7.539062 5.21875 -6.6875 C 5.21875 -5.519531 4.84375 -4.8125 4.09375 -4.5625 L 5.375 0 L 4.15625 0 L 2.96875 -4.265625 L 1.984375 -4.265625 L 1.984375 0 L 0.703125 0 Z M 2.453125 -5.171875 C 3.003906 -5.171875 3.394531 -5.28125 3.625 -5.5 C 3.863281 -5.71875 3.984375 -6.113281 3.984375 -6.6875 C 3.984375 -7.0625 3.941406 -7.351562 3.859375 -7.5625 C 3.773438 -7.78125 3.628906 -7.9375 3.421875 -8.03125 C 3.210938 -8.132812 2.914062 -8.1875 2.53125 -8.1875 L 1.984375 -8.1875 L 1.984375 -5.171875 Z M 2.453125 -5.171875 "/></g></g></g><g fill="#ffffff" fill-opacity="1"><g transform="translate(108.245487, 58.425117)"><g><path d="M 2.140625 -9.09375 L 3.375 -9.09375 L 5.3125 0 L 4.109375 0 L 3.703125 -2.296875 L 1.84375 -2.296875 L 1.40625 0 L 0.21875 0 Z M 3.53125 -3.203125 L 2.765625 -7.296875 L 2.015625 -3.203125 Z M 3.53125 -3.203125 "/></g></g></g><g fill="#ffffff" fill-opacity="1"><g transform="translate(114.323832, 58.425117)"><g><path d="M 0.78125 -9.09375 L 2.015625 -9.09375 L 2.015625 0 L 0.78125 0 Z M 0.78125 -9.09375 "/></g></g></g><g fill="#d9d9d9" fill-opacity="1"><g transform="translate(58.456993, 65.484359)"><g><path d="M 1.25 0.046875 C 0.914062 0.046875 0.660156 -0.0546875 0.484375 -0.265625 C 0.304688 -0.472656 0.207031 -0.757812 0.1875 -1.125 L 0.6875 -1.25 C 0.695312 -0.988281 0.742188 -0.78125 0.828125 -0.625 C 0.910156 -0.46875 1.050781 -0.390625 1.25 -0.390625 C 1.394531 -0.390625 1.503906 -0.429688 1.578125 -0.515625 C 1.648438 -0.597656 1.6875 -0.710938 1.6875 -0.859375 C 1.6875 -1.023438 1.648438 -1.160156 1.578125 -1.265625 C 1.515625 -1.378906 1.40625 -1.5 1.25 -1.625 L 0.578125 -2.21875 C 0.453125 -2.332031 0.359375 -2.457031 0.296875 -2.59375 C 0.234375 -2.738281 0.203125 -2.90625 0.203125 -3.09375 C 0.203125 -3.382812 0.285156 -3.609375 0.453125 -3.765625 C 0.617188 -3.929688 0.847656 -4.015625 1.140625 -4.015625 C 1.453125 -4.015625 1.6875 -3.929688 1.84375 -3.765625 C 2.007812 -3.597656 2.109375 -3.34375 2.140625 -3 L 1.671875 -2.859375 C 1.648438 -3.097656 1.601562 -3.28125 1.53125 -3.40625 C 1.457031 -3.53125 1.328125 -3.59375 1.140625 -3.59375 C 0.992188 -3.59375 0.882812 -3.554688 0.8125 -3.484375 C 0.738281 -3.410156 0.703125 -3.300781 0.703125 -3.15625 C 0.703125 -3.039062 0.71875 -2.941406 0.75 -2.859375 C 0.789062 -2.773438 0.859375 -2.691406 0.953125 -2.609375 L 1.640625 -2.015625 C 1.804688 -1.867188 1.941406 -1.703125 2.046875 -1.515625 C 2.148438 -1.335938 2.203125 -1.132812 2.203125 -0.90625 C 2.203125 -0.613281 2.113281 -0.378906 1.9375 -0.203125 C 1.757812 -0.0351562 1.53125 0.046875 1.25 0.046875 Z M 1.25 0.046875 "/></g></g></g><g fill="#d9d9d9" fill-opacity="1"><g transform="translate(61.720018, 65.484359)"><g><path d="M 1.046875 0.046875 C 0.828125 0.046875 0.65625 0.00390625 0.53125 -0.078125 C 0.414062 -0.171875 0.332031 -0.296875 0.28125 -0.453125 C 0.238281 -0.617188 0.21875 -0.832031 0.21875 -1.09375 L 0.21875 -1.75 C 0.21875 -2.144531 0.273438 -2.429688 0.390625 -2.609375 C 0.515625 -2.796875 0.734375 -2.890625 1.046875 -2.890625 C 1.273438 -2.890625 1.445312 -2.835938 1.5625 -2.734375 C 1.6875 -2.640625 1.765625 -2.503906 1.796875 -2.328125 C 1.835938 -2.160156 1.859375 -1.929688 1.859375 -1.640625 L 1.859375 -1.40625 L 0.734375 -1.40625 L 0.734375 -0.84375 C 0.734375 -0.664062 0.757812 -0.535156 0.8125 -0.453125 C 0.863281 -0.378906 0.945312 -0.34375 1.0625 -0.34375 C 1.164062 -0.34375 1.238281 -0.378906 1.28125 -0.453125 C 1.320312 -0.535156 1.34375 -0.65625 1.34375 -0.8125 L 1.34375 -0.984375 L 1.859375 -0.984375 L 1.859375 -0.875 C 1.859375 -0.582031 1.789062 -0.351562 1.65625 -0.1875 C 1.53125 -0.03125 1.328125 0.046875 1.046875 0.046875 Z M 1.34375 -1.703125 L 1.34375 -1.953125 C 1.34375 -2.148438 1.320312 -2.289062 1.28125 -2.375 C 1.25 -2.457031 1.171875 -2.5 1.046875 -2.5 C 0.960938 -2.5 0.894531 -2.476562 0.84375 -2.4375 C 0.800781 -2.394531 0.769531 -2.328125 0.75 -2.234375 C 0.738281 -2.148438 0.734375 -2.019531 0.734375 -1.84375 L 0.734375 -1.703125 Z M 1.34375 -1.703125 "/></g></g></g><g fill="#d9d9d9" fill-opacity="1"><g transform="translate(64.726786, 65.484359)"><g><path d="M 1.046875 0.046875 C 0.816406 0.046875 0.640625 0 0.515625 -0.09375 C 0.398438 -0.1875 0.320312 -0.3125 0.28125 -0.46875 C 0.238281 -0.632812 0.21875 -0.84375 0.21875 -1.09375 L 0.21875 -1.75 C 0.21875 -2 0.238281 -2.207031 0.28125 -2.375 C 0.320312 -2.539062 0.398438 -2.664062 0.515625 -2.75 C 0.640625 -2.84375 0.816406 -2.890625 1.046875 -2.890625 C 1.242188 -2.890625 1.398438 -2.851562 1.515625 -2.78125 C 1.628906 -2.71875 1.707031 -2.617188 1.75 -2.484375 C 1.800781 -2.359375 1.828125 -2.191406 1.828125 -1.984375 L 1.828125 -1.828125 L 1.34375 -1.828125 L 1.34375 -2 C 1.34375 -2.1875 1.320312 -2.316406 1.28125 -2.390625 C 1.238281 -2.460938 1.160156 -2.5 1.046875 -2.5 C 0.960938 -2.5 0.894531 -2.476562 0.84375 -2.4375 C 0.800781 -2.394531 0.769531 -2.328125 0.75 -2.234375 C 0.738281 -2.148438 0.734375 -2.023438 0.734375 -1.859375 L 0.734375 -0.953125 C 0.734375 -0.796875 0.742188 -0.671875 0.765625 -0.578125 C 0.785156 -0.492188 0.816406 -0.429688 0.859375 -0.390625 C 0.910156 -0.359375 0.972656 -0.34375 1.046875 -0.34375 C 1.171875 -0.34375 1.25 -0.382812 1.28125 -0.46875 C 1.320312 -0.550781 1.34375 -0.675781 1.34375 -0.84375 L 1.34375 -1.078125 L 1.828125 -1.078125 L 1.828125 -0.875 C 1.828125 -0.5625 1.769531 -0.328125 1.65625 -0.171875 C 1.539062 -0.0234375 1.335938 0.046875 1.046875 0.046875 Z M 1.046875 0.046875 "/></g></g></g><g fill="#d9d9d9" fill-opacity="1"><g transform="translate(67.68427, 65.484359)"><g><path d="M 0.671875 0.046875 C 0.515625 0.046875 0.40625 -0.0078125 0.34375 -0.125 C 0.28125 -0.238281 0.25 -0.378906 0.25 -0.546875 L 0.25 -2.84375 L 0.765625 -2.84375 L 0.765625 -0.703125 C 0.765625 -0.585938 0.78125 -0.503906 0.8125 -0.453125 C 0.851562 -0.398438 0.914062 -0.375 1 -0.375 C 1.101562 -0.375 1.226562 -0.429688 1.375 -0.546875 L 1.375 -2.84375 L 1.890625 -2.84375 L 1.890625 0 L 1.375 0 L 1.375 -0.28125 C 1.144531 -0.0625 0.910156 0.046875 0.671875 0.046875 Z M 0.671875 0.046875 "/></g></g></g><g fill="#d9d9d9" fill-opacity="1"><g transform="translate(70.784671, 65.484359)"><g><path d="M 0.28125 -2.84375 L 0.8125 -2.84375 L 0.8125 -2.4375 C 0.90625 -2.601562 1.003906 -2.71875 1.109375 -2.78125 C 1.210938 -2.84375 1.320312 -2.875 1.4375 -2.875 C 1.46875 -2.875 1.492188 -2.875 1.515625 -2.875 L 1.515625 -2.296875 C 1.410156 -2.335938 1.316406 -2.359375 1.234375 -2.359375 C 1.148438 -2.359375 1.070312 -2.335938 1 -2.296875 C 0.9375 -2.253906 0.875 -2.179688 0.8125 -2.078125 L 0.8125 0 L 0.28125 0 Z M 0.28125 -2.84375 "/></g></g></g><g fill="#d9d9d9" fill-opacity="1"><g transform="translate(73.298631, 65.484359)"><g><path d="M 0.296875 -3.8125 L 0.828125 -3.8125 L 0.828125 -3.265625 L 0.296875 -3.265625 Z M 0.296875 -2.84375 L 0.828125 -2.84375 L 0.828125 0 L 0.296875 0 Z M 0.296875 -2.84375 "/></g></g></g><g fill="#d9d9d9" fill-opacity="1"><g transform="translate(75.359214, 65.484359)"><g><path d="M 0.265625 -2.84375 L 0.796875 -2.84375 L 0.796875 -2.5625 C 1.015625 -2.78125 1.242188 -2.890625 1.484375 -2.890625 C 1.640625 -2.890625 1.75 -2.832031 1.8125 -2.71875 C 1.882812 -2.601562 1.921875 -2.460938 1.921875 -2.296875 L 1.921875 0 L 1.390625 0 L 1.390625 -2.15625 C 1.390625 -2.257812 1.375 -2.335938 1.34375 -2.390625 C 1.3125 -2.441406 1.25 -2.46875 1.15625 -2.46875 C 1.050781 -2.46875 0.929688 -2.410156 0.796875 -2.296875 L 0.796875 0 L 0.265625 0 Z M 0.265625 -2.84375 "/></g></g></g><g fill="#d9d9d9" fill-opacity="1"><g transform="translate(78.454687, 65.484359)"><g><path d="M 1 0.875 C 0.726562 0.875 0.507812 0.832031 0.34375 0.75 C 0.175781 0.664062 0.09375 0.53125 0.09375 0.34375 C 0.09375 0.21875 0.128906 0.109375 0.203125 0.015625 C 0.285156 -0.078125 0.382812 -0.148438 0.5 -0.203125 C 0.414062 -0.222656 0.347656 -0.257812 0.296875 -0.3125 C 0.253906 -0.375 0.234375 -0.4375 0.234375 -0.5 C 0.234375 -0.601562 0.253906 -0.691406 0.296875 -0.765625 C 0.347656 -0.835938 0.429688 -0.925781 0.546875 -1.03125 C 0.429688 -1.113281 0.347656 -1.21875 0.296875 -1.34375 C 0.242188 -1.476562 0.21875 -1.65625 0.21875 -1.875 C 0.21875 -2.207031 0.285156 -2.457031 0.421875 -2.625 C 0.554688 -2.800781 0.753906 -2.890625 1.015625 -2.890625 C 1.171875 -2.890625 1.296875 -2.863281 1.390625 -2.8125 C 1.484375 -2.757812 1.554688 -2.675781 1.609375 -2.5625 C 1.628906 -2.601562 1.675781 -2.65625 1.75 -2.71875 C 1.820312 -2.78125 1.898438 -2.828125 1.984375 -2.859375 L 2.0625 -2.90625 L 2.203125 -2.5625 C 2.140625 -2.550781 2.046875 -2.519531 1.921875 -2.46875 C 1.804688 -2.425781 1.738281 -2.394531 1.71875 -2.375 C 1.738281 -2.3125 1.757812 -2.226562 1.78125 -2.125 C 1.800781 -2.019531 1.8125 -1.929688 1.8125 -1.859375 C 1.8125 -1.546875 1.75 -1.300781 1.625 -1.125 C 1.5 -0.957031 1.296875 -0.875 1.015625 -0.875 C 0.929688 -0.875 0.84375 -0.882812 0.75 -0.90625 C 0.6875 -0.8125 0.65625 -0.738281 0.65625 -0.6875 C 0.65625 -0.65625 0.671875 -0.628906 0.703125 -0.609375 C 0.742188 -0.585938 0.804688 -0.570312 0.890625 -0.5625 L 1.328125 -0.515625 C 1.554688 -0.503906 1.722656 -0.4375 1.828125 -0.3125 C 1.941406 -0.195312 2 -0.0351562 2 0.171875 C 2 0.640625 1.664062 0.875 1 0.875 Z M 1.015625 -1.234375 C 1.160156 -1.234375 1.253906 -1.28125 1.296875 -1.375 C 1.335938 -1.476562 1.359375 -1.644531 1.359375 -1.875 C 1.359375 -2.09375 1.335938 -2.253906 1.296875 -2.359375 C 1.253906 -2.460938 1.164062 -2.515625 1.03125 -2.515625 C 0.882812 -2.515625 0.785156 -2.460938 0.734375 -2.359375 C 0.691406 -2.253906 0.671875 -2.09375 0.671875 -1.875 C 0.671875 -1.664062 0.691406 -1.503906 0.734375 -1.390625 C 0.785156 -1.285156 0.878906 -1.234375 1.015625 -1.234375 Z M 1.046875 0.46875 C 1.234375 0.46875 1.367188 0.441406 1.453125 0.390625 C 1.546875 0.347656 1.59375 0.28125 1.59375 0.1875 C 1.59375 0.09375 1.5625 0.0234375 1.5 -0.015625 C 1.445312 -0.0546875 1.347656 -0.0859375 1.203125 -0.109375 L 0.75 -0.140625 C 0.6875 -0.078125 0.632812 -0.0195312 0.59375 0.03125 C 0.5625 0.09375 0.546875 0.15625 0.546875 0.21875 C 0.546875 0.300781 0.582031 0.363281 0.65625 0.40625 C 0.726562 0.445312 0.859375 0.46875 1.046875 0.46875 Z M 1.046875 0.46875 "/></g></g></g><g fill="#d9d9d9" fill-opacity="1"><g transform="translate(81.530446, 65.484359)"><g/></g></g><g fill="#d9d9d9" fill-opacity="1"><g transform="translate(83.591027, 65.484359)"><g><path d="M 0.21875 0.3125 C 0.414062 0.3125 0.550781 0.296875 0.625 0.265625 C 0.695312 0.234375 0.734375 0.175781 0.734375 0.09375 C 0.734375 0.0625 0.695312 -0.109375 0.625 -0.421875 L 0.0625 -2.84375 L 0.59375 -2.84375 L 0.96875 -0.71875 L 1.34375 -2.84375 L 1.875 -2.84375 L 1.203125 0.15625 C 1.148438 0.351562 1.050781 0.492188 0.90625 0.578125 C 0.757812 0.671875 0.550781 0.71875 0.28125 0.71875 L 0.21875 0.71875 Z M 0.21875 0.3125 "/></g></g></g><g fill="#d9d9d9" fill-opacity="1"><g transform="translate(86.454877, 65.484359)"><g><path d="M 1.046875 0.046875 C 0.742188 0.046875 0.53125 -0.0390625 0.40625 -0.21875 C 0.28125 -0.40625 0.21875 -0.671875 0.21875 -1.015625 L 0.21875 -1.828125 C 0.21875 -2.171875 0.28125 -2.429688 0.40625 -2.609375 C 0.53125 -2.796875 0.742188 -2.890625 1.046875 -2.890625 C 1.347656 -2.890625 1.5625 -2.796875 1.6875 -2.609375 C 1.8125 -2.429688 1.875 -2.171875 1.875 -1.828125 L 1.875 -1.015625 C 1.875 -0.671875 1.8125 -0.40625 1.6875 -0.21875 C 1.5625 -0.0390625 1.347656 0.046875 1.046875 0.046875 Z M 1.046875 -0.34375 C 1.140625 -0.34375 1.207031 -0.367188 1.25 -0.421875 C 1.289062 -0.484375 1.316406 -0.554688 1.328125 -0.640625 C 1.335938 -0.722656 1.34375 -0.832031 1.34375 -0.96875 L 1.34375 -1.859375 C 1.34375 -2.003906 1.335938 -2.117188 1.328125 -2.203125 C 1.316406 -2.285156 1.289062 -2.351562 1.25 -2.40625 C 1.207031 -2.46875 1.140625 -2.5 1.046875 -2.5 C 0.953125 -2.5 0.878906 -2.46875 0.828125 -2.40625 C 0.785156 -2.351562 0.757812 -2.285156 0.75 -2.203125 C 0.75 -2.117188 0.75 -2.003906 0.75 -1.859375 L 0.75 -0.96875 C 0.75 -0.832031 0.75 -0.722656 0.75 -0.640625 C 0.757812 -0.554688 0.785156 -0.484375 0.828125 -0.421875 C 0.878906 -0.367188 0.953125 -0.34375 1.046875 -0.34375 Z M 1.046875 -0.34375 "/></g></g></g><g fill="#d9d9d9" fill-opacity="1"><g transform="translate(89.481352, 65.484359)"><g><path d="M 0.671875 0.046875 C 0.515625 0.046875 0.40625 -0.0078125 0.34375 -0.125 C 0.28125 -0.238281 0.25 -0.378906 0.25 -0.546875 L 0.25 -2.84375 L 0.765625 -2.84375 L 0.765625 -0.703125 C 0.765625 -0.585938 0.78125 -0.503906 0.8125 -0.453125 C 0.851562 -0.398438 0.914062 -0.375 1 -0.375 C 1.101562 -0.375 1.226562 -0.429688 1.375 -0.546875 L 1.375 -2.84375 L 1.890625 -2.84375 L 1.890625 0 L 1.375 0 L 1.375 -0.28125 C 1.144531 -0.0625 0.910156 0.046875 0.671875 0.046875 Z M 0.671875 0.046875 "/></g></g></g><g fill="#d9d9d9" fill-opacity="1"><g transform="translate(92.581751, 65.484359)"><g><path d="M 0.28125 -2.84375 L 0.8125 -2.84375 L 0.8125 -2.4375 C 0.90625 -2.601562 1.003906 -2.71875 1.109375 -2.78125 C 1.210938 -2.84375 1.320312 -2.875 1.4375 -2.875 C 1.46875 -2.875 1.492188 -2.875 1.515625 -2.875 L 1.515625 -2.296875 C 1.410156 -2.335938 1.316406 -2.359375 1.234375 -2.359375 C 1.148438 -2.359375 1.070312 -2.335938 1 -2.296875 C 0.9375 -2.253906 0.875 -2.179688 0.8125 -2.078125 L 0.8125 0 L 0.28125 0 Z M 0.28125 -2.84375 "/></g></g></g><g fill="#d9d9d9" fill-opacity="1"><g transform="translate(95.095711, 65.484359)"><g/></g></g><g fill="#d9d9d9" fill-opacity="1"><g transform="translate(97.156292, 65.484359)"><g><path d="M 0.921875 0.046875 C 0.679688 0.046875 0.503906 -0.0390625 0.390625 -0.21875 C 0.273438 -0.40625 0.21875 -0.707031 0.21875 -1.125 L 0.21875 -1.671875 C 0.21875 -2.046875 0.265625 -2.34375 0.359375 -2.5625 C 0.460938 -2.78125 0.644531 -2.890625 0.90625 -2.890625 C 1.070312 -2.890625 1.234375 -2.8125 1.390625 -2.65625 L 1.390625 -3.984375 L 1.90625 -3.984375 L 1.90625 0 L 1.390625 0 L 1.390625 -0.1875 C 1.242188 -0.03125 1.085938 0.046875 0.921875 0.046875 Z M 1.0625 -0.375 C 1.164062 -0.375 1.273438 -0.410156 1.390625 -0.484375 L 1.390625 -2.34375 C 1.265625 -2.425781 1.148438 -2.46875 1.046875 -2.46875 C 0.835938 -2.46875 0.734375 -2.269531 0.734375 -1.875 L 0.734375 -1.078125 C 0.734375 -0.847656 0.753906 -0.671875 0.796875 -0.546875 C 0.835938 -0.429688 0.925781 -0.375 1.0625 -0.375 Z M 1.0625 -0.375 "/></g></g></g><g fill="#d9d9d9" fill-opacity="1"><g transform="translate(100.266545, 65.484359)"><g><path d="M 0.78125 0.046875 C 0.664062 0.046875 0.566406 0.015625 0.484375 -0.046875 C 0.398438 -0.109375 0.332031 -0.191406 0.28125 -0.296875 C 0.226562 -0.398438 0.203125 -0.507812 0.203125 -0.625 C 0.203125 -0.84375 0.25 -1.019531 0.34375 -1.15625 C 0.445312 -1.300781 0.570312 -1.414062 0.71875 -1.5 C 0.863281 -1.582031 1.066406 -1.675781 1.328125 -1.78125 L 1.328125 -1.984375 C 1.328125 -2.171875 1.304688 -2.300781 1.265625 -2.375 C 1.234375 -2.445312 1.160156 -2.484375 1.046875 -2.484375 C 0.847656 -2.484375 0.75 -2.351562 0.75 -2.09375 L 0.75 -1.9375 L 0.21875 -1.96875 C 0.226562 -2.28125 0.300781 -2.507812 0.4375 -2.65625 C 0.570312 -2.8125 0.785156 -2.890625 1.078125 -2.890625 C 1.347656 -2.890625 1.546875 -2.8125 1.671875 -2.65625 C 1.796875 -2.507812 1.859375 -2.285156 1.859375 -1.984375 L 1.859375 -0.6875 C 1.859375 -0.46875 1.875 -0.238281 1.90625 0 L 1.421875 0 C 1.390625 -0.1875 1.367188 -0.328125 1.359375 -0.421875 C 1.316406 -0.285156 1.242188 -0.171875 1.140625 -0.078125 C 1.046875 0.00390625 0.925781 0.046875 0.78125 0.046875 Z M 0.984375 -0.40625 C 1.054688 -0.40625 1.125 -0.429688 1.1875 -0.484375 C 1.25 -0.546875 1.296875 -0.601562 1.328125 -0.65625 L 1.328125 -1.453125 C 1.191406 -1.378906 1.082031 -1.3125 1 -1.25 C 0.925781 -1.195312 0.863281 -1.128906 0.8125 -1.046875 C 0.757812 -0.972656 0.734375 -0.882812 0.734375 -0.78125 C 0.734375 -0.664062 0.753906 -0.570312 0.796875 -0.5 C 0.835938 -0.4375 0.898438 -0.40625 0.984375 -0.40625 Z M 0.984375 -0.40625 "/></g></g></g><g fill="#d9d9d9" fill-opacity="1"><g transform="translate(103.297953, 65.484359)"><g><path d="M 1.03125 0.046875 C 0.613281 0.046875 0.40625 -0.179688 0.40625 -0.640625 L 0.40625 -2.5 L 0.109375 -2.5 L 0.109375 -2.84375 L 0.40625 -2.84375 L 0.40625 -3.671875 L 0.9375 -3.671875 L 0.9375 -2.84375 L 1.390625 -2.84375 L 1.390625 -2.5 L 0.9375 -2.5 L 0.9375 -0.671875 C 0.9375 -0.554688 0.953125 -0.472656 0.984375 -0.421875 C 1.023438 -0.378906 1.097656 -0.359375 1.203125 -0.359375 C 1.265625 -0.359375 1.328125 -0.363281 1.390625 -0.375 L 1.390625 0.015625 C 1.253906 0.0351562 1.132812 0.046875 1.03125 0.046875 Z M 1.03125 0.046875 "/></g></g></g><g fill="#d9d9d9" fill-opacity="1"><g transform="translate(105.747848, 65.484359)"><g><path d="M 0.78125 0.046875 C 0.664062 0.046875 0.566406 0.015625 0.484375 -0.046875 C 0.398438 -0.109375 0.332031 -0.191406 0.28125 -0.296875 C 0.226562 -0.398438 0.203125 -0.507812 0.203125 -0.625 C 0.203125 -0.84375 0.25 -1.019531 0.34375 -1.15625 C 0.445312 -1.300781 0.570312 -1.414062 0.71875 -1.5 C 0.863281 -1.582031 1.066406 -1.675781 1.328125 -1.78125 L 1.328125 -1.984375 C 1.328125 -2.171875 1.304688 -2.300781 1.265625 -2.375 C 1.234375 -2.445312 1.160156 -2.484375 1.046875 -2.484375 C 0.847656 -2.484375 0.75 -2.351562 0.75 -2.09375 L 0.75 -1.9375 L 0.21875 -1.96875 C 0.226562 -2.28125 0.300781 -2.507812 0.4375 -2.65625 C 0.570312 -2.8125 0.785156 -2.890625 1.078125 -2.890625 C 1.347656 -2.890625 1.546875 -2.8125 1.671875 -2.65625 C 1.796875 -2.507812 1.859375 -2.285156 1.859375 -1.984375 L 1.859375 -0.6875 C 1.859375 -0.46875 1.875 -0.238281 1.90625 0 L 1.421875 0 C 1.390625 -0.1875 1.367188 -0.328125 1.359375 -0.421875 C 1.316406 -0.285156 1.242188 -0.171875 1.140625 -0.078125 C 1.046875 0.00390625 0.925781 0.046875 0.78125 0.046875 Z M 0.984375 -0.40625 C 1.054688 -0.40625 1.125 -0.429688 1.1875 -0.484375 C 1.25 -0.546875 1.296875 -0.601562 1.328125 -0.65625 L 1.328125 -1.453125 C 1.191406 -1.378906 1.082031 -1.3125 1 -1.25 C 0.925781 -1.195312 0.863281 -1.128906 0.8125 -1.046875 C 0.757812 -0.972656 0.734375 -0.882812 0.734375 -0.78125 C 0.734375 -0.664062 0.753906 -0.570312 0.796875 -0.5 C 0.835938 -0.4375 0.898438 -0.40625 0.984375 -0.40625 Z M 0.984375 -0.40625 "/></g></g></g></svg>